<svg xmlns="http://www.w3.org/2000/svg" xmlns:xlink="http://www.w3.org/1999/xlink" width="86" height="87" viewBox="0 0 86 87">
  <defs>
    <clipPath id="clip-path">
      <rect id="Rectángulo_403234" data-name="Rectángulo 403234" width="86" height="87" transform="translate(0 -0.433)" fill="none"/>
    </clipPath>
  </defs>
  <g id="Grupo_1101501" data-name="Grupo 1101501" transform="translate(-230.051 -6179)">
    <g id="Grupo_1101408" data-name="Grupo 1101408" transform="translate(230.051 6179.433)">
      <g id="Grupo_1101407" data-name="Grupo 1101407" transform="translate(0 0)" clip-path="url(#clip-path)">
        <path id="Trazado_912157" data-name="Trazado 912157" d="M97.737,40.853a32.868,32.868,0,0,1-65.737,0q0-1.444.123-2.858a32.869,32.869,0,0,1,65.614,2.858" transform="translate(-26.206 -6.191)" fill="#9ce6ed"/>
        <path id="Trazado_912158" data-name="Trazado 912158" d="M242.3,78.9a32.845,32.845,0,0,1-15.616,27.981L219.432,98.9V87.472h-5.716L208,78.9l5.716-4.287h7.145l4.287-5.716-2.858-7.145,8.941-7.449A32.791,32.791,0,0,1,242.3,78.9" transform="translate(-170.767 -44.235)" fill="#02c26a"/>
        <rect id="Rectángulo_403230" data-name="Rectángulo 403230" width="11" height="15" transform="translate(50 68.567)" fill="#4367e0"/>
        <rect id="Rectángulo_403231" data-name="Rectángulo 403231" width="12" height="26" transform="translate(61 57.567)" fill="#4976f2"/>
        <rect id="Rectángulo_403232" data-name="Rectángulo 403232" width="12" height="40" transform="translate(73 43.567)" fill="#548aff"/>
        <path id="Trazado_912159" data-name="Trazado 912159" d="M113.212,10.678,103.037,20.853v8.574l-8.574,5.716-5.716-5.716H81.6V23.711L74.99,19.744a32.9,32.9,0,0,1,38.222-9.066" transform="translate(-61.517 -6.198)" fill="#02c26a"/>
        <path id="Trazado_912160" data-name="Trazado 912160" d="M60.581,188.862l-5.716,4.287v17.027A32.882,32.882,0,0,1,32,178.858q0-1.444.123-2.858h8.451l4.287,5.716H56.294Z" transform="translate(-26.206 -144.196)" fill="#02c26a"/>
        <path id="Trazado_912161" data-name="Trazado 912161" d="M22.291,242.858c0-1.579-3.2-2.858-7.145-2.858S8,241.28,8,242.858v35.726c0,1.579,3.2,2.858,7.145,2.858s7.145-1.28,7.145-2.858Z" transform="translate(-6.493 -196.763)" fill="#ffc431"/>
        <path id="Trazado_912162" data-name="Trazado 912162" d="M15.145,240c3.946,0,7.145,1.28,7.145,2.858s-3.2,2.858-7.145,2.858S8,244.437,8,242.858,11.2,240,15.145,240" transform="translate(-6.493 -196.763)" fill="#ffd873"/>
        <path id="Trazado_912163" data-name="Trazado 912163" d="M102.291,322.858c0-1.579-3.2-2.858-7.145-2.858S88,321.28,88,322.858v21.436c0,1.579,3.2,2.858,7.145,2.858s7.145-1.28,7.145-2.858Z" transform="translate(-72.203 -262.473)" fill="#ffc431"/>
        <path id="Trazado_912164" data-name="Trazado 912164" d="M95.145,320c3.946,0,7.145,1.28,7.145,2.858s-3.2,2.858-7.145,2.858S88,324.437,88,322.858,91.2,320,95.145,320" transform="translate(-72.203 -262.473)" fill="#ffd873"/>
        <path id="Trazado_912165" data-name="Trazado 912165" d="M182.291,362.858c0-1.579-3.2-2.858-7.145-2.858S168,361.28,168,362.858v14.291c0,1.579,3.2,2.858,7.145,2.858s7.145-1.28,7.145-2.858Z" transform="translate(-137.912 -295.327)" fill="#ffc431"/>
        <path id="Trazado_912166" data-name="Trazado 912166" d="M175.145,360c3.946,0,7.145,1.28,7.145,2.858s-3.2,2.858-7.145,2.858S168,364.437,168,362.858,171.2,360,175.145,360" transform="translate(-137.912 -295.327)" fill="#ffd873"/>
        <path id="Trazado_912167" data-name="Trazado 912167" d="M84.315,232H72.882a1.429,1.429,0,0,0-1.429,1.429v12.862h-10a1.429,1.429,0,0,0-1.429,1.429v10h-10a1.429,1.429,0,0,0-1.429,1.429v12.862H45.73V257.723c0-.8-.389-2.307-2.991-3.348a15.5,15.5,0,0,0-5.583-.939,15.5,15.5,0,0,0-5.583.939l-.133.055v-3.853c0-.8-.389-2.307-2.991-3.348a15.5,15.5,0,0,0-5.583-.939,15.5,15.5,0,0,0-5.583.939l-.133.055v-11c0-.8-.389-2.307-2.991-3.348A15.5,15.5,0,0,0,8.574,232a15.5,15.5,0,0,0-5.583.939C.389,233.98,0,235.484,0,236.287v35.727c0,.8.389,2.307,2.991,3.348a15.5,15.5,0,0,0,5.583.939,15.5,15.5,0,0,0,5.583-.939,6.88,6.88,0,0,0,1.562-.847,6.88,6.88,0,0,0,1.562.847,15.5,15.5,0,0,0,5.583.939,15.5,15.5,0,0,0,5.583-.939,6.88,6.88,0,0,0,1.562-.847,6.88,6.88,0,0,0,1.562.847,15.5,15.5,0,0,0,5.583.939,15.5,15.5,0,0,0,5.583-.939,7.793,7.793,0,0,0,1.016-.49h40.56a1.429,1.429,0,0,0,1.429-1.429V233.429A1.429,1.429,0,0,0,84.315,232M2.858,261.015l.133.055a15.5,15.5,0,0,0,5.583.939,15.5,15.5,0,0,0,5.583-.939l.133-.055v3.8c-.248.442-2.226,1.483-5.716,1.483s-5.468-1.041-5.716-1.483Zm0-7.145.133.055a15.5,15.5,0,0,0,5.583.939,15.5,15.5,0,0,0,5.583-.939l.133-.055v3.8c-.248.442-2.226,1.483-5.716,1.483s-5.468-1.041-5.716-1.483Zm0-7.145.133.055a15.5,15.5,0,0,0,5.583.939,15.5,15.5,0,0,0,5.583-.939l.133-.055v3.8c-.248.442-2.226,1.483-5.716,1.483s-5.468-1.041-5.716-1.483Zm0-7.145.133.055a15.5,15.5,0,0,0,5.583.939,15.5,15.5,0,0,0,5.583-.939l.133-.055v3.8c-.248.442-2.226,1.483-5.716,1.483s-5.468-1.041-5.716-1.483Zm20.007,19.573c-3.491,0-5.468-1.041-5.716-1.483v-3.8l.133.055a15.5,15.5,0,0,0,5.583.939,15.5,15.5,0,0,0,5.583-.939l.133-.055v3.8c-.248.442-2.226,1.483-5.716,1.483m-5.716,1.863.133.055a15.5,15.5,0,0,0,5.583.939,15.5,15.5,0,0,0,5.583-.939l.133-.055v3.8c-.248.442-2.226,1.483-5.716,1.483s-5.468-1.041-5.716-1.483Zm14.291,0,.133.055a15.5,15.5,0,0,0,5.583.939,15.5,15.5,0,0,0,5.583-.939l.133-.055v3.8c-.248.442-2.226,1.483-5.716,1.483s-5.468-1.041-5.716-1.483Zm5.716-4.721c3.363,0,5.317.965,5.678,1.431-.372.468-2.328,1.427-5.678,1.427s-5.307-.959-5.678-1.427c.361-.466,2.316-1.431,5.678-1.431m-14.291-7.145c3.363,0,5.317.965,5.678,1.431-.372.468-2.328,1.427-5.678,1.427s-5.312-.961-5.68-1.429c.367-.468,2.325-1.429,5.68-1.429M8.574,234.858c3.363,0,5.317.965,5.678,1.431-.372.468-2.328,1.427-5.678,1.427s-5.307-.959-5.678-1.427c.361-.466,2.316-1.431,5.678-1.431m0,38.585c-3.485,0-5.462-1.037-5.716-1.481v-3.8l.133.055a15.5,15.5,0,0,0,5.583.939,15.5,15.5,0,0,0,5.583-.939l.133-.055v3.8c-.254.444-2.232,1.481-5.716,1.481m14.291,0c-3.491,0-5.468-1.041-5.716-1.483v-3.8l.133.055a15.5,15.5,0,0,0,5.583.939,15.5,15.5,0,0,0,5.583-.939l.133-.055v3.8c-.254.444-2.232,1.481-5.716,1.481m14.291,0c-3.485,0-5.462-1.037-5.716-1.481v-3.8l.133.055a15.5,15.5,0,0,0,5.583.939,15.5,15.5,0,0,0,5.583-.939l.133-.055v3.8c-.254.444-2.232,1.481-5.716,1.481m14.291-12.862h8.574v11.432H51.446Zm11.432-11.432h8.574v22.865H62.879Zm11.432-14.291h8.574v37.156H74.311Z" transform="translate(0.078 -190.192)"/>
        <rect id="Rectángulo_403233" data-name="Rectángulo 403233" width="3" height="3" transform="translate(37 57.567)"/>
        <path id="Trazado_912168" data-name="Trazado 912168" d="M240,175.439V178.3h7.145a1.429,1.429,0,0,0,1.011-.419l29-29v2.266h2.858v-5.716A1.429,1.429,0,0,0,278.585,144h-5.716v2.858h2.266l-28.581,28.581Z" transform="translate(-197.05 -117.912)"/>
        <path id="Trazado_912169" data-name="Trazado 912169" d="M81.542,9.078A34.3,34.3,0,0,0,24,34.3a34.719,34.719,0,0,0,.289,4.472l2.834-.369a31.889,31.889,0,0,1-.265-4.1c0-.479.013-.955.034-1.429h6.4l3.858,5.145a1.429,1.429,0,0,0,1.143.572H48.914l3.208,5.346-4.685,3.514a1.429,1.429,0,0,0-.572,1.143v4.287h2.858V49.3l5.145-3.858a1.429,1.429,0,0,0,.368-1.879L50.949,36.42a1.429,1.429,0,0,0-1.225-.694H39.005l-3.858-5.145A1.429,1.429,0,0,0,34,30.01H27.152a31.289,31.289,0,0,1,6.3-14.955l4.838,2.9v4.907a1.429,1.429,0,0,0,1.429,1.429h6.553l5.3,5.3a1.429,1.429,0,0,0,1.8.178l8.574-5.716a1.429,1.429,0,0,0,.636-1.189V14.882l9.058-9.058a31.355,31.355,0,0,1,6.229,3.87l-7.628,6.357a1.429,1.429,0,0,0-.412,1.628l2.56,6.4-3.377,4.5H62.585a1.43,1.43,0,0,0-.857.286l-5.716,4.287a1.429,1.429,0,0,0-.332,1.936L61.4,43.664a1.429,1.429,0,0,0,1.189.636h4.287v8.574H69.73v-10A1.429,1.429,0,0,0,68.3,41.443H63.349L58.807,34.63l4.254-3.19H69.73a1.429,1.429,0,0,0,1.143-.572l4.287-5.716a1.428,1.428,0,0,0,.183-1.388l-2.472-6.182L80.05,11.6a31.323,31.323,0,0,1,9.569,19.962l2.848-.245A34.185,34.185,0,0,0,81.542,9.078m-21.4,4.2a1.429,1.429,0,0,0-.419,1.011V22.1l-6.963,4.642-4.888-4.888a1.429,1.429,0,0,0-1.01-.419H41.149V17.149a1.429,1.429,0,0,0-.694-1.225L35.333,12.85a31.426,31.426,0,0,1,33.442-8.2Z" transform="translate(-19.635 0.365)"/>
      </g>
    </g>
  </g>
</svg>
