<svg xmlns="http://www.w3.org/2000/svg" xmlns:xlink="http://www.w3.org/1999/xlink" width="67.405" height="85.346" viewBox="0 0 67.405 85.346">
  <defs>
    <clipPath id="clip-path">
      <rect id="Rectángulo_403286" data-name="Rectángulo 403286" width="67.405" height="85.346" fill="none"/>
    </clipPath>
  </defs>
  <g id="Grupo_1101514" data-name="Grupo 1101514" transform="translate(-390.051 -5022.68)">
    <g id="Grupo_1101468" data-name="Grupo 1101468" transform="translate(390.051 5022.68)">
      <path id="Trazado_912467" data-name="Trazado 912467" d="M39.048,304.728,23.927,330.919l-2.935-10.952L10,322.913,25.137,296.7Z" transform="translate(-8.334 -247.24)" fill="#adeefa"/>
      <path id="Trazado_912468" data-name="Trazado 912468" d="M234.021,296.7l15.136,26.216-10.992-2.945-2.934,10.951-15.121-26.191Z" transform="translate(-183.419 -247.239)" fill="#adeefa"/>
      <g id="Grupo_1101467" data-name="Grupo 1101467">
        <g id="Grupo_1101466" data-name="Grupo 1101466" clip-path="url(#clip-path)">
          <path id="Trazado_912469" data-name="Trazado 912469" d="M52.1,10.57a7.986,7.986,0,0,1,9.34,2.5A7.986,7.986,0,0,0,66.677,16.1a7.986,7.986,0,0,1,6.838,6.837,7.986,7.986,0,0,0,3.025,5.239,7.986,7.986,0,0,1,2.5,9.34,7.985,7.985,0,0,0,0,6.05,7.986,7.986,0,0,1-2.5,9.34,7.987,7.987,0,0,0-3.025,5.239,7.986,7.986,0,0,1-6.838,6.838,7.986,7.986,0,0,0-5.239,3.025,7.986,7.986,0,0,1-9.34,2.5,7.986,7.986,0,0,0-6.05,0,7.986,7.986,0,0,1-9.34-2.5,7.987,7.987,0,0,0-5.239-3.025,7.986,7.986,0,0,1-6.837-6.838A7.986,7.986,0,0,0,21.606,52.9a7.986,7.986,0,0,1-2.5-9.34,7.985,7.985,0,0,0,0-6.05,7.986,7.986,0,0,1,2.5-9.34,7.986,7.986,0,0,0,3.025-5.239A7.986,7.986,0,0,1,31.469,16.1a7.986,7.986,0,0,0,5.239-3.025,7.986,7.986,0,0,1,9.34-2.5A7.986,7.986,0,0,0,52.1,10.57Z" transform="translate(-15.423 -8.312)" fill="#ffec80"/>
          <path id="Trazado_912470" data-name="Trazado 912470" d="M102.172,76.683A20.006,20.006,0,1,1,82.166,96.689a20.006,20.006,0,0,1,20.006-20.006" transform="translate(-68.47 -63.901)" fill="#fff"/>
          <path id="Trazado_912471" data-name="Trazado 912471" d="M142.1,159.243l-9.728-9.728,5.187-5.187,4.541,4.542,8.359-8.359,5.187,5.187Z" transform="translate(-110.306 -117.089)" fill="#ff7d97"/>
          <path id="Trazado_912472" data-name="Trazado 912472" d="M67.181,74.839l-10.8-18.7a9.657,9.657,0,0,0,3.359-6.083,6.282,6.282,0,0,1,2.393-4.146,9.681,9.681,0,0,0,3.025-11.29,6.284,6.284,0,0,1,0-4.787,9.681,9.681,0,0,0-3.025-11.29A6.281,6.281,0,0,1,59.744,14.4a9.681,9.681,0,0,0-8.265-8.265A6.282,6.282,0,0,1,47.333,3.74,9.681,9.681,0,0,0,36.043.715a6.284,6.284,0,0,1-4.787,0A9.681,9.681,0,0,0,19.967,3.74a6.283,6.283,0,0,1-4.146,2.394A9.681,9.681,0,0,0,7.556,14.4a6.283,6.283,0,0,1-2.394,4.146,9.681,9.681,0,0,0-3.025,11.29,6.284,6.284,0,0,1,0,4.787,9.681,9.681,0,0,0,3.025,11.29,6.283,6.283,0,0,1,2.394,4.145,9.657,9.657,0,0,0,3.43,6.141L.223,74.839A1.667,1.667,0,0,0,2.1,77.283L11.48,74.77l2.5,9.341a1.667,1.667,0,0,0,3.054.4L28.651,64.4a9.571,9.571,0,0,0,2.605-.658,6.284,6.284,0,0,1,4.787,0,9.574,9.574,0,0,0,2.718.671l11.606,20.1a1.667,1.667,0,0,0,3.054-.4l2.5-9.341,9.381,2.514a1.667,1.667,0,0,0,1.875-2.444ZM16.162,79.36,14.269,72.3a1.667,1.667,0,0,0-2.042-1.179l-7.1,1.9,8.76-15.172a9.59,9.59,0,0,0,1.938.473,6.283,6.283,0,0,1,4.146,2.394,9.638,9.638,0,0,0,5.013,3.373ZM29.993,60.654a6.337,6.337,0,0,1-7.39-1.98,9.6,9.6,0,0,0-6.333-3.657,6.337,6.337,0,0,1-5.41-5.41A9.6,9.6,0,0,0,7.2,43.274a6.337,6.337,0,0,1-1.98-7.39,9.6,9.6,0,0,0,0-7.313,6.337,6.337,0,0,1,1.98-7.39,9.6,9.6,0,0,0,3.657-6.333,6.337,6.337,0,0,1,5.41-5.41A9.6,9.6,0,0,0,22.6,5.781a6.332,6.332,0,0,1,7.39-1.98,9.6,9.6,0,0,0,7.313,0,6.337,6.337,0,0,1,7.39,1.98,9.6,9.6,0,0,0,6.333,3.656,6.337,6.337,0,0,1,5.41,5.41A9.6,9.6,0,0,0,60.1,21.181a6.337,6.337,0,0,1,1.98,7.39,9.6,9.6,0,0,0,0,7.313,6.337,6.337,0,0,1-1.98,7.39,9.6,9.6,0,0,0-3.656,6.333,6.337,6.337,0,0,1-5.41,5.41A9.6,9.6,0,0,0,44.7,58.674a6.336,6.336,0,0,1-7.39,1.98A9.6,9.6,0,0,0,29.993,60.654ZM55.177,71.118A1.667,1.667,0,0,0,53.135,72.3L51.242,79.36l-8.833-15.3a9.637,9.637,0,0,0,4.923-3.347,6.281,6.281,0,0,1,4.145-2.393,9.58,9.58,0,0,0,2.024-.505l8.779,15.205Z" transform="translate(0 0)"/>
          <path id="Trazado_912473" data-name="Trazado 912473" d="M128.046,134.815,122.859,140a1.667,1.667,0,0,0,0,2.358l9.728,9.728a1.667,1.667,0,0,0,2.358,0l13.546-13.546a1.667,1.667,0,0,0,0-2.358L143.3,131a1.667,1.667,0,0,0-2.358,0l-7.18,7.18-3.362-3.363a1.667,1.667,0,0,0-2.358,0Zm4.541,6.9a1.667,1.667,0,0,0,2.358,0l7.18-7.18,2.829,2.829-11.188,11.188-7.371-7.371,2.829-2.829Z" transform="translate(-101.973 -108.754)"/>
          <path id="Trazado_912474" data-name="Trazado 912474" d="M115.51,95.359A21.68,21.68,0,0,0,101.823,75.2a1.667,1.667,0,0,0-1.229,3.1,18.339,18.339,0,1,1-13.513,0,1.667,1.667,0,1,0-1.229-3.1A21.676,21.676,0,1,0,115.51,95.359" transform="translate(-60.135 -62.57)"/>
          <path id="Trazado_912475" data-name="Trazado 912475" d="M193.849,70.011a1.668,1.668,0,1,0-1.179-.488,1.672,1.672,0,0,0,1.179.488" transform="translate(-160.147 -55.562)"/>
        </g>
      </g>
    </g>
  </g>
</svg>
