<svg xmlns="http://www.w3.org/2000/svg" xmlns:xlink="http://www.w3.org/1999/xlink" width="77.455" height="80.382" viewBox="0 0 77.455 80.382">
  <defs>
    <clipPath id="clip-path">
      <rect id="Rectángulo_403304" data-name="Rectángulo 403304" width="77.455" height="80.382" fill="none"/>
    </clipPath>
  </defs>
  <g id="Grupo_1101519" data-name="Grupo 1101519" transform="translate(-648.823 -5296.644)">
    <g id="Grupo_1101480" data-name="Grupo 1101480" transform="translate(648.823 5296.644)">
      <g id="Grupo_1101479" data-name="Grupo 1101479" clip-path="url(#clip-path)">
        <path id="Trazado_912550" data-name="Trazado 912550" d="M236.124,223.375A3.819,3.819,0,0,1,235,220.656v-7.625h-1.149a1.4,1.4,0,0,1-.848-.285l-.042-.032h-8.982a1.42,1.42,0,0,1-1.272-.8l-4.023-8.338-.25-.157-.157,1.06v22.638l.157.6h22.041Z" transform="translate(-184.006 -171.484)" fill="#ffc344"/>
        <path id="Trazado_912551" data-name="Trazado 912551" d="M218.274,336v2.884l.157.6h22.041L236.984,336Z" transform="translate(-184.006 -283.251)" fill="#feb237"/>
        <path id="Trazado_912552" data-name="Trazado 912552" d="M184.712,113.865a1.118,1.118,0,0,0,.215-.659v-3.084A1.124,1.124,0,0,0,183.8,109h-1.856a1.13,1.13,0,0,1-1.072-.788,11.077,11.077,0,0,0-.665-1.607,1.131,1.131,0,0,1,.2-1.316l1.312-1.312a1.124,1.124,0,0,0,0-1.59l-2.181-2.181a1.124,1.124,0,0,0-1.59,0l-1.312,1.312a1.131,1.131,0,0,1-1.316.2,11.1,11.1,0,0,0-1.607-.665,1.13,1.13,0,0,1-.788-1.072V98.124A1.124,1.124,0,0,0,171.805,97h-3.084a1.124,1.124,0,0,0-1.124,1.124v1.856a1.13,1.13,0,0,1-.788,1.072,11.078,11.078,0,0,0-1.607.665,1.131,1.131,0,0,1-1.316-.2l-1.312-1.312a1.124,1.124,0,0,0-1.59,0l-2.18,2.181a1.124,1.124,0,0,0,0,1.59l1.312,1.312a1.131,1.131,0,0,1,.2,1.316,11.1,11.1,0,0,0-.665,1.607,1.13,1.13,0,0,1-1.072.788h-1.856a1.124,1.124,0,0,0-1.124,1.124v3.084a1.118,1.118,0,0,0,.215.659h28.9Z" transform="translate(-131.171 -81.771)" fill="#b5adb6"/>
        <path id="Trazado_912553" data-name="Trazado 912553" d="M228.423,168.008a4.58,4.58,0,1,0-8.034,0Z" transform="translate(-185.314 -135.915)" fill="#918291"/>
        <path id="Trazado_912554" data-name="Trazado 912554" d="M239.664,161.227a4.566,4.566,0,0,0-1.739.343,4.581,4.581,0,0,1,2.279,6.439h3.477a4.581,4.581,0,0,0-4.017-6.781" transform="translate(-200.572 -135.915)" fill="#7a6d79"/>
        <path id="Trazado_912555" data-name="Trazado 912555" d="M128.076,203.577l-4.023,8.338a1.421,1.421,0,0,1-1.272.8H111.669l-.281.157v13.282a1.57,1.57,0,0,0,1.57,1.57h15.368v-24.3Z" transform="translate(-93.901 -171.484)" fill="#ffd15b"/>
        <path id="Trazado_912556" data-name="Trazado 912556" d="M111.387,336v1.918a1.57,1.57,0,0,0,1.57,1.57h15.368V336Z" transform="translate(-93.9 -283.251)" fill="#ffc344"/>
        <path id="Trazado_912557" data-name="Trazado 912557" d="M233.279,211.62v-1.527a1.415,1.415,0,0,1,1.413-1.413h13.177l-2.108-4.37a1.57,1.57,0,0,0-1.414-.888H219.274l4.132,8.564a1.57,1.57,0,0,0,1.414.888h9.222a1.414,1.414,0,0,1-.763-1.253" transform="translate(-184.849 -171.486)" fill="#ffd15b"/>
        <path id="Trazado_912558" data-name="Trazado 912558" d="M86.084,212.871h14.7a1.57,1.57,0,0,0,1.414-.888l4.132-8.564H90.38a1.57,1.57,0,0,0-1.414.888l-3.588,7.437a.785.785,0,0,0,.707,1.126" transform="translate(-71.907 -171.484)" fill="#ffe177"/>
        <path id="Trazado_912559" data-name="Trazado 912559" d="M345.505,285.336l-4.555-4.555a.8.8,0,0,1,0-1.132l4.555-4.555a4,4,0,0,0,1.172-2.829v-7.625H323.8v7.625a4,4,0,0,0,1.172,2.829l4.555,4.555a.8.8,0,0,1,0,1.132l-4.555,4.555a4,4,0,0,0-1.172,2.829v7.625h22.88v-7.625a4,4,0,0,0-1.172-2.829" transform="translate(-272.962 -223.092)" fill="#f3f0f3"/>
        <path id="Trazado_912560" data-name="Trazado 912560" d="M421.641,285.336l-4.555-4.555a.8.8,0,0,1,0-1.132l4.555-4.555a4,4,0,0,0,1.172-2.829v-7.625H419.34v7.625a4,4,0,0,1-1.172,2.829l-3.3,3.3a2.571,2.571,0,0,0,0,3.636l3.3,3.3a4,4,0,0,1,1.172,2.829v7.625h3.473v-7.625a4,4,0,0,0-1.172-2.829" transform="translate(-349.098 -223.092)" fill="#e2dee2"/>
        <path id="Trazado_912561" data-name="Trazado 912561" d="M364.1,425.017H351.126a.785.785,0,0,0-.785.785v5.188h14.546V425.8a.785.785,0,0,0-.785-.785" transform="translate(-295.339 -358.291)" fill="#b5adb6"/>
        <path id="Trazado_912562" data-name="Trazado 912562" d="M423.4,425.017h-2.718v5.973h3.5V425.8a.785.785,0,0,0-.785-.785" transform="translate(-354.632 -358.291)" fill="#a79ba7"/>
        <path id="Trazado_912563" data-name="Trazado 912563" d="M357.633,314.11l5.933,5.933,5.933-5.933a.785.785,0,0,0-.555-1.34H358.188a.785.785,0,0,0-.555,1.34" transform="translate(-301.291 -263.666)" fill="#b5adb6"/>
        <path id="Trazado_912564" data-name="Trazado 912564" d="M389.674,312.77h-2.712l-4.969,4.969,2.3,2.3,5.933-5.933a.785.785,0,0,0-.555-1.34" transform="translate(-322.021 -263.666)" fill="#a79ba7"/>
        <path id="Trazado_912565" data-name="Trazado 912565" d="M333.912,240.576H309.048a1.57,1.57,0,0,1-1.57-1.57v-1.527a1.57,1.57,0,0,1,1.57-1.57h24.864a1.57,1.57,0,0,1,1.57,1.57v1.527a1.57,1.57,0,0,1-1.57,1.57" transform="translate(-259.205 -198.872)" fill="#fe5ca7"/>
        <path id="Trazado_912566" data-name="Trazado 912566" d="M333.912,466.73H309.048a1.57,1.57,0,0,1-1.57-1.57v-1.527a1.57,1.57,0,0,1,1.57-1.57h24.864a1.57,1.57,0,0,1,1.57,1.57v1.527a1.57,1.57,0,0,1-1.57,1.57" transform="translate(-259.205 -389.521)" fill="#fe5ca7"/>
        <path id="Trazado_912567" data-name="Trazado 912567" d="M333.912,462.063H332v.775a1.57,1.57,0,0,1-1.57,1.57H307.478v.752a1.57,1.57,0,0,0,1.57,1.57h24.864a1.57,1.57,0,0,0,1.57-1.57v-1.527a1.57,1.57,0,0,0-1.57-1.57" transform="translate(-259.205 -389.521)" fill="#fe3d97"/>
        <path id="Trazado_912568" data-name="Trazado 912568" d="M42.386,175.455a.48.48,0,0,0-.791.3l-.171,1.338a.787.787,0,0,1-.9.677,32.192,32.192,0,0,1-23.013-48.1.784.784,0,0,0-.321-1.1l-3.623-1.837a.788.788,0,0,0-1.038.312,37.825,37.825,0,0,0,27.321,56.285.783.783,0,0,1,.662.875l-.156,1.222a.48.48,0,0,0,.69.491l7.881-3.909a.48.48,0,0,0,.1-.793Z" transform="translate(-6.323 -106.77)" fill="#46cc8d"/>
        <path id="Trazado_912569" data-name="Trazado 912569" d="M68.616,22.981l8.776-.62a.48.48,0,0,0,.346-.773l-.825-1.067a.787.787,0,0,1,.156-1.114,32.194,32.194,0,0,1,50.167,17.3.782.782,0,0,0,.755.571h4.187a.786.786,0,0,0,.764-.969A37.823,37.823,0,0,0,73.612,15a.783.783,0,0,1-1.088-.15l-.753-.974a.48.48,0,0,0-.835.14l-2.809,8.337a.48.48,0,0,0,.489.632" transform="translate(-57.41 -6.324)" fill="#46cc8d"/>
        <path id="Trazado_912570" data-name="Trazado 912570" d="M333.912,235.908H332v.757a1.57,1.57,0,0,1-1.57,1.57H307.478v.77a1.57,1.57,0,0,0,1.57,1.57h24.864a1.57,1.57,0,0,0,1.57-1.57v-1.527a1.57,1.57,0,0,0-1.57-1.57" transform="translate(-259.205 -198.871)" fill="#fe3d97"/>
        <path id="Trazado_912571" data-name="Trazado 912571" d="M149.4,108.563a1.178,1.178,0,0,1-1.052-.647,2.3,2.3,0,0,1-.246-1.032V103.8a2.3,2.3,0,0,1,2.3-2.3h1.817a12.364,12.364,0,0,1,.715-1.728l-1.285-1.284a2.305,2.305,0,0,1,0-3.255l2.181-2.181a2.305,2.305,0,0,1,3.255,0l1.284,1.285a12.286,12.286,0,0,1,1.728-.715V91.8a2.3,2.3,0,0,1,2.3-2.3h3.084a2.3,2.3,0,0,1,2.3,2.3v1.817a12.346,12.346,0,0,1,1.728.715L170.8,93.05a2.305,2.305,0,0,1,3.255,0l2.181,2.181a2.305,2.305,0,0,1,0,3.255l-1.285,1.284a12.319,12.319,0,0,1,.715,1.728h1.818a2.3,2.3,0,0,1,2.3,2.3v3.084a2.3,2.3,0,0,1-.246,1.032,1.177,1.177,0,0,1-1.051.647Zm1.057-2.355h26.972v-2.355h-1.8a2.3,2.3,0,0,1-2.192-1.6,9.934,9.934,0,0,0-.594-1.437,2.3,2.3,0,0,1,.418-2.682l1.275-1.274-2.105-2.105-1.274,1.274a2.3,2.3,0,0,1-2.682.418,9.924,9.924,0,0,0-1.437-.594,2.3,2.3,0,0,1-1.6-2.192v-1.8h-2.977v1.8a2.3,2.3,0,0,1-1.6,2.192,9.927,9.927,0,0,0-1.437.594,2.3,2.3,0,0,1-2.683-.418l-1.274-1.274-2.105,2.105,1.274,1.274a2.3,2.3,0,0,1,.418,2.682,9.994,9.994,0,0,0-.594,1.437,2.3,2.3,0,0,1-2.192,1.6h-1.8Z" transform="translate(-124.848 -75.449)"/>
        <path id="Trazado_912572" data-name="Trazado 912572" d="M222.181,162.707h-8.195a1.178,1.178,0,0,1-1.053-.651,5.7,5.7,0,0,1-.607-2.57,5.758,5.758,0,0,1,11.515,0,5.7,5.7,0,0,1-.607,2.57,1.178,1.178,0,0,1-1.053.651m-7.388-2.355h6.582a3.4,3.4,0,1,0-6.582,0" transform="translate(-178.992 -129.593)"/>
        <path id="Trazado_912573" data-name="Trazado 912573" d="M227.427,207.726H218.5a2.763,2.763,0,0,1-2.474-1.554l-4.132-8.563a1.177,1.177,0,0,1,1.061-1.689h25.072a2.763,2.763,0,0,1,2.475,1.553l2.032,4.213-2.121,1.023-2.032-4.213a.394.394,0,0,0-.354-.222h-23.2l3.317,6.874a.4.4,0,0,0,.353.222h8.929Z" transform="translate(-178.527 -165.161)"/>
        <path id="Trazado_912574" data-name="Trazado 912574" d="M340.355,291.331h-22.88a1.177,1.177,0,0,1-1.177-1.177v-7.468a5.146,5.146,0,0,1,1.517-3.662l4.289-4.289-4.289-4.289a5.146,5.146,0,0,1-1.517-3.662v-7.468a1.177,1.177,0,0,1,1.177-1.177h22.88a1.177,1.177,0,0,1,1.177,1.177v7.468a5.145,5.145,0,0,1-1.517,3.662l-4.289,4.289,4.289,4.289a5.145,5.145,0,0,1,1.517,3.662v7.468a1.177,1.177,0,0,1-1.177,1.177m-21.7-2.355h20.525v-6.291a2.8,2.8,0,0,0-.827-2h0l-4.556-4.556a1.981,1.981,0,0,1,0-2.8l4.556-4.556a2.806,2.806,0,0,0,.827-2v-6.291H318.652v6.291a2.8,2.8,0,0,0,.827,2l4.555,4.555a1.981,1.981,0,0,1,0,2.8l-4.556,4.556a2.8,2.8,0,0,0-.827,2Z" transform="translate(-266.64 -217.611)"/>
        <path id="Trazado_912575" data-name="Trazado 912575" d="M390.343,354.784a1.177,1.177,0,0,1-1.177-1.177v-.833a1.177,1.177,0,0,1,2.355,0v.833a1.177,1.177,0,0,1-1.177,1.177" transform="translate(-328.068 -296.397)"/>
        <path id="Trazado_912576" data-name="Trazado 912576" d="M390.343,383.543a1.177,1.177,0,0,1-1.177-1.177v-.833a1.177,1.177,0,0,1,2.355,0v.833a1.177,1.177,0,0,1-1.177,1.177" transform="translate(-328.068 -320.641)"/>
        <path id="Trazado_912577" data-name="Trazado 912577" d="M34.51,180.83a1.658,1.658,0,0,1-1.644-1.869l.107-.839A38.99,38.99,0,0,1,.039,137.885,39.061,39.061,0,0,1,5.188,120.14a1.966,1.966,0,0,1,2.59-.774L11.4,121.2a1.961,1.961,0,0,1,.8,2.743,31.043,31.043,0,0,0,21.779,46.278l.12-.939a1.658,1.658,0,0,1,2.731-1.042l6.644,5.767a1.657,1.657,0,0,1-.35,2.737l-7.881,3.909a1.657,1.657,0,0,1-.737.173M7.045,121.636a36.685,36.685,0,0,0,4.923,42.7A36.136,36.136,0,0,0,33.7,175.849a1.968,1.968,0,0,1,1.67,2.121l5.778-2.866-4.87-4.227-.006.046a1.964,1.964,0,0,1-2.24,1.692,33.37,33.37,0,0,1-24.064-49.5Zm34.889,54.153h0Z" transform="translate(0 -100.448)"/>
        <path id="Trazado_912578" data-name="Trazado 912578" d="M125.857,32.133H121.67a1.964,1.964,0,0,1-1.89-1.436,30.626,30.626,0,0,0-7.009-12.663,31.074,31.074,0,0,0-41-4.238l.579.749a1.658,1.658,0,0,1-1.195,2.668l-8.776.62A1.658,1.658,0,0,1,60.69,15.65L63.5,7.312a1.658,1.658,0,0,1,2.882-.484l.518.67A38.477,38.477,0,0,1,90.975.017,39.114,39.114,0,0,1,115.567,9.66a1.178,1.178,0,0,1-1.551,1.772A36.753,36.753,0,0,0,90.908,2.371,36.152,36.152,0,0,0,68,9.615,1.969,1.969,0,0,1,65.315,9.3l-2.059,6.112,6.432-.455-.028-.036a1.965,1.965,0,0,1,.387-2.781,33.427,33.427,0,0,1,44.46,4.306,32.955,32.955,0,0,1,7.46,13.334h3.387a36.13,36.13,0,0,0-7.6-14.558,1.178,1.178,0,1,1,1.791-1.53,38.465,38.465,0,0,1,8.217,16.018,1.963,1.963,0,0,1-1.908,2.425" transform="translate(-51.089 -0.001)"/>
        <path id="Trazado_912579" data-name="Trazado 912579" d="M327.59,235.431H302.725a2.751,2.751,0,0,1-2.747-2.747v-1.527a2.751,2.751,0,0,1,2.747-2.747H327.59a2.751,2.751,0,0,1,2.747,2.747v1.527a2.747,2.747,0,0,1-2.747,2.747m-24.864-4.667a.393.393,0,0,0-.392.392v1.527a.393.393,0,0,0,.392.392H327.59a.392.392,0,0,0,.392-.392v-1.528a.393.393,0,0,0-.392-.392Z" transform="translate(-252.883 -192.55)"/>
        <path id="Trazado_912580" data-name="Trazado 912580" d="M327.59,461.585H302.725a2.751,2.751,0,0,1-2.747-2.747V457.31a2.751,2.751,0,0,1,2.747-2.747H327.59a2.751,2.751,0,0,1,2.747,2.747v1.527a2.747,2.747,0,0,1-2.747,2.747m-24.864-4.667a.393.393,0,0,0-.392.393v1.527a.393.393,0,0,0,.392.392H327.59a.392.392,0,0,0,.392-.392V457.31a.393.393,0,0,0-.392-.393Z" transform="translate(-252.883 -383.198)"/>
        <path id="Trazado_912581" data-name="Trazado 912581" d="M357.247,314.9a1.174,1.174,0,0,1-.833-.345l-5.933-5.933h0a1.962,1.962,0,0,1,1.388-3.35h10.755a1.962,1.962,0,0,1,1.388,3.35l-5.933,5.933a1.175,1.175,0,0,1-.833.345m-4.43-7.273,4.43,4.43,4.43-4.43Zm-.67-.67h0Z" transform="translate(-294.972 -257.345)"/>
        <path id="Trazado_912582" data-name="Trazado 912582" d="M94.461,207.726h-14.7a1.962,1.962,0,0,1-1.767-2.815l3.588-7.437a2.763,2.763,0,0,1,2.474-1.553h15.952a1.177,1.177,0,0,1,1.061,1.689l-4.132,8.564a2.763,2.763,0,0,1-2.474,1.553m-14.077-2.355H94.461a.4.4,0,0,0,.353-.222l3.317-6.874H84.055a.394.394,0,0,0-.353.222Z" transform="translate(-65.582 -165.161)"/>
        <path id="Trazado_912583" data-name="Trazado 912583" d="M234.771,222.578H212.951a1.177,1.177,0,0,1-1.177-1.177V197.1a1.177,1.177,0,0,1,2.355,0v23.126h20.642a1.177,1.177,0,0,1,0,2.355" transform="translate(-178.526 -165.161)"/>
        <path id="Trazado_912584" data-name="Trazado 912584" d="M122,320.857H106.633a2.751,2.751,0,0,1-2.747-2.747v-4.43a1.177,1.177,0,0,1,2.355,0v4.43a.393.393,0,0,0,.392.393H122a1.177,1.177,0,1,1,0,2.355" transform="translate(-87.576 -263.44)"/>
        <path id="Trazado_912585" data-name="Trazado 912585" d="M105.064,261.832a1.177,1.177,0,0,1-1.177-1.177V257.3a1.177,1.177,0,1,1,2.355,0v3.357a1.177,1.177,0,0,1-1.177,1.177" transform="translate(-87.577 -215.91)"/>
        <path id="Trazado_912586" data-name="Trazado 912586" d="M358.564,425.688H344.018a1.177,1.177,0,0,1-1.177-1.177v-5.031a1.965,1.965,0,0,1,1.962-1.962h3.507a1.177,1.177,0,1,1,0,2.355H345.2v3.461h12.191v-3.461H353.8a1.177,1.177,0,0,1,0-2.355h3.974a1.965,1.965,0,0,1,1.962,1.962v5.031a1.177,1.177,0,0,1-1.177,1.177" transform="translate(-289.016 -351.968)"/>
      </g>
    </g>
  </g>
</svg>
