<svg xmlns="http://www.w3.org/2000/svg" xmlns:xlink="http://www.w3.org/1999/xlink" width="63.17" height="78.75" viewBox="0 0 63.17 78.75">
  <defs>
    <clipPath id="clip-path">
      <rect id="Rectángulo_403308" data-name="Rectángulo 403308" width="63.17" height="78.75" fill="none"/>
    </clipPath>
  </defs>
  <g id="Grupo_1101520" data-name="Grupo 1101520" transform="translate(-921.193 -5298.276)">
    <g id="Grupo_1101483" data-name="Grupo 1101483" transform="translate(921.193 5298.276)">
      <path id="Trazado_912587" data-name="Trazado 912587" d="M88.755,295.925l-7.228-.468L66.756,308.119,79.109,324.36,94.566,310.45l2.046-5.038Z" transform="translate(-56.488 -250.013)" fill="#01d0fb"/>
      <path id="Trazado_912588" data-name="Trazado 912588" d="M177.085,248.68l-5.661-1.331-8.633,7.4,13.039,14.993,8.741-7.867.734-4.106Z" transform="translate(-137.753 -209.305)" fill="#62dbfb"/>
      <path id="Trazado_912589" data-name="Trazado 912589" d="M234.893,197.909l-7.053-.281-8.921,7.648L232.066,219.8l8.775-7.9,2.43-4.888Z" transform="translate(-185.247 -167.231)" fill="#99e6fc"/>
      <g id="Grupo_1101482" data-name="Grupo 1101482">
        <g id="Grupo_1101481" data-name="Grupo 1101481" clip-path="url(#clip-path)">
          <path id="Trazado_912590" data-name="Trazado 912590" d="M294.9,156.679a5.6,5.6,0,0,1-.4,7.9l-4.578,4.118-13-14.276,9.162-7.853,3.956,4.735Z" transform="translate(-234.327 -124.028)" fill="#c8effe"/>
          <path id="Trazado_912591" data-name="Trazado 912591" d="M51.114,247.43l-7.431,2.553L29.2,273.307l20.161,8.252L62.6,262.42l.74-7.135Z" transform="translate(-24.713 -209.373)" fill="#05e39c"/>
          <path id="Trazado_912592" data-name="Trazado 912592" d="M138.734,182.637l-8.5,1.4-6.9,11.121,18.92,12.437L149.3,197.41l.877-6.937Z" transform="translate(-104.365 -154.546)" fill="#00f2a6"/>
          <path id="Trazado_912593" data-name="Trazado 912593" d="M194.146,128.686l-13.175-8.461-6.363.694-6.394,10.3L187.273,144.6l7.262-10.5Z" transform="translate(-142.342 -101.734)" fill="#6cf5c2"/>
          <path id="Trazado_912594" data-name="Trazado 912594" d="M232.058,67.542a5.6,5.6,0,0,1,1.419,7.785l-3.764,5.441L209.786,67.591,216.234,57.2l9.125,5.7Z" transform="translate(-177.519 -48.406)" fill="#9cf8d2"/>
          <path id="Trazado_912595" data-name="Trazado 912595" d="M18.868,221.874,8.531,247.481a12.905,12.905,0,1,0,23.934,9.662l10.222-25.32Z" transform="translate(-6.421 -187.748)" fill="#fed402"/>
          <path id="Trazado_912596" data-name="Trazado 912596" d="M105.134,160.684l-17.59-8.23L82.3,154.04l-5.154,12.423,23.4,9.1,4.862-12.063Z" transform="translate(-65.284 -129.006)" fill="#fee45a"/>
          <path id="Trazado_912597" data-name="Trazado 912597" d="M138.5,81.762l-18.723-6-3.888,1.765L111.058,89.16,134.108,98.6l4.9-12.147Z" transform="translate(-93.976 -64.107)" fill="#fee97d"/>
          <path id="Trazado_912598" data-name="Trazado 912598" d="M165.119,22.346a5.6,5.6,0,0,1,3.125,7.271l-2.68,6.721-23.128-8.93,4.189-10.1a5.585,5.585,0,0,1,4.914-.378Z" transform="translate(-120.529 -13.99)" fill="#fef0ae"/>
          <path id="Trazado_912599" data-name="Trazado 912599" d="M7.521,59.395V13.117a5.6,5.6,0,0,1,5.6-5.6H27.735a5.6,5.6,0,0,1,5.6,5.6V71.053a12.905,12.905,0,0,1-25.811,0Z" transform="translate(-6.364 -6.365)" fill="#f9f7f8"/>
          <path id="Trazado_912600" data-name="Trazado 912600" d="M33.333,13.117v7.16H7.522v-7.16a5.6,5.6,0,0,1,5.6-5.6H27.736A5.6,5.6,0,0,1,33.333,13.117Z" transform="translate(-6.365 -6.365)" fill="#f9b1b1"/>
          <rect id="Rectángulo_403305" data-name="Rectángulo 403305" width="25.811" height="13.039" transform="translate(1.157 13.913)" fill="#f79595"/>
          <rect id="Rectángulo_403306" data-name="Rectángulo 403306" width="25.811" height="13.038" transform="translate(1.157 26.952)" fill="#f47c7c"/>
          <rect id="Rectángulo_403307" data-name="Rectángulo 403307" width="25.811" height="13.039" transform="translate(1.157 39.99)" fill="#ee6161"/>
          <path id="Trazado_912601" data-name="Trazado 912601" d="M65.572,392.316a4.389,4.389,0,1,1-4.389,4.389,4.389,4.389,0,0,1,4.389-4.389" transform="translate(-51.773 -331.974)" fill="#e5e1e5"/>
          <path id="Trazado_912602" data-name="Trazado 912602" d="M61.426,31.875,57.17,27.168A6.748,6.748,0,0,0,55.2,18.185l-6.141-4.247a6.763,6.763,0,0,0-4.25-6.531L31.227,1.993a6.7,6.7,0,0,0-5.05.023A6.731,6.731,0,0,0,21.371,0H6.752A6.76,6.76,0,0,0,0,6.752V64.688a14.054,14.054,0,0,0,23.29,10.6,1.2,1.2,0,0,0,.1-.082L49.72,51.515A1.156,1.156,0,0,0,48.173,49.8l-1.085.976-3.524-3.9,5.532-8,5.03,5.563L51.838,46.5a1.156,1.156,0,1,0,1.547,1.719l7.561-6.8a6.752,6.752,0,0,0,.48-9.537Zm-5.7-8.933a4.409,4.409,0,0,1-.716,3.321l-3.14,4.54L44.718,25.86,48.5,16.368l5.378,3.72a4.409,4.409,0,0,1,1.842,2.855ZM44.732,41.121l-4.78-3.306,3.888-9.751,6.712,4.642ZM37.6,51.437,35.185,49.77l3.888-9.751,4.343,3Zm1.78-18.425-3.351-1.336a1.156,1.156,0,0,0-.856,2.149l3.351,1.336-3.972,9.963-6.424-2.562V31.015l2.448.976a1.156,1.156,0,0,0,.857-2.148l-3.3-1.317V16.979l15.226,6.071ZM25.81,25.8h-13.1a1.156,1.156,0,1,0,0,2.313h13.1V38.834H2.313V28.108H7.783a1.156,1.156,0,1,0,0-2.313H2.313V15.069h23.5V25.8ZM2.313,41.147h23.5V51.873H2.313Zm25.811,3.906,5.568,2.22L28.123,61.236Zm7.206,13.73L36.612,60.2l-5.994,5.394Zm-5,3.16,3.974-9.968,1.975,1.366Zm.038-57.8L43.95,9.556a4.444,4.444,0,0,1,2.758,4.711c0,.009,0,.018,0,.027a4.462,4.462,0,0,1-.274,1.029L44.205,20.9,28.123,14.489V6.752a6.712,6.712,0,0,0-.593-2.761A4.4,4.4,0,0,1,30.37,4.141ZM6.752,2.313H21.371A4.444,4.444,0,0,1,25.81,6.752v6H2.313v-6A4.444,4.444,0,0,1,6.752,2.313M2.313,64.688v-10.5h23.5v10.5a11.749,11.749,0,1,1-23.5,0M45.369,52.319l-7.038,6.334-1.65-1.825,5.532-8ZM60.851,36.626A4.408,4.408,0,0,1,59.4,39.694l-3.551,3.2-5.4-5.97,5.383-7.784,3.879,4.29A4.41,4.41,0,0,1,60.851,36.626Z"/>
          <path id="Trazado_912603" data-name="Trazado 912603" d="M59.21,384.8a5.545,5.545,0,1,0,5.545,5.546A5.552,5.552,0,0,0,59.21,384.8m0,8.778a3.233,3.233,0,1,1,3.233-3.232,3.236,3.236,0,0,1-3.233,3.232" transform="translate(-45.411 -325.613)"/>
        </g>
      </g>
    </g>
  </g>
</svg>
