<svg xmlns="http://www.w3.org/2000/svg" xmlns:xlink="http://www.w3.org/1999/xlink" width="78.683" height="78.668" viewBox="0 0 78.683 78.668">
  <defs>
    <clipPath id="clip-path">
      <rect id="Rectángulo_403309" data-name="Rectángulo 403309" width="78.683" height="78.669" fill="none"/>
    </clipPath>
  </defs>
  <g id="Grupo_1101521" data-name="Grupo 1101521" transform="translate(-1172.288 -5298.357)">
    <g id="Grupo_1101485" data-name="Grupo 1101485" transform="translate(1172.288 5298.357)">
      <g id="Grupo_1101484" data-name="Grupo 1101484" clip-path="url(#clip-path)">
        <path id="Trazado_912604" data-name="Trazado 912604" d="M33.611,338.331,22.446,327.283c-2.871-2.871-9.32-1.293-9.108,3.317.105,2.294,2.586,4.442,3.984,6.087l10.336,11.761a13.73,13.73,0,0,0,8.952,4.635c4.689.459,10.076-.208,13.775-.208a143.989,143.989,0,0,1,16.841.9L79.35,342.083c-3.949-7.055-11.589-10.971-19.572-9.181a58.237,58.237,0,0,1-14.7,1.118c-3.182-.113-7.611-.94-10.162,1.524a4.9,4.9,0,0,0-.292,6.464c2.89,3.555,15.384,2.278,15.384,2.278" transform="translate(-11.777 -287.821)" fill="#ffd4be"/>
        <path id="Trazado_912605" data-name="Trazado 912605" d="M55.448,343.51a1.556,1.556,0,0,1-.18-.01,141.353,141.353,0,0,0-16.661-.89c-1.238,0-2.708.079-4.264.163a65.5,65.5,0,0,1-9.662.038,15.223,15.223,0,0,1-9.969-5.156L4.376,325.893l-.017-.019c-.255-.3-.561-.631-.885-.982-1.5-1.619-3.358-3.633-3.468-6.042a5.85,5.85,0,0,1,3.7-5.724,7.373,7.373,0,0,1,8.061,1.236l9.431,9.332a6.419,6.419,0,0,1,.82-1.05l.04-.04c2.625-2.535,6.535-2.269,9.677-2.054.575.039,1.119.076,1.621.094a56.2,56.2,0,0,0,14.3-1.081,18.69,18.69,0,0,1,12.314,1.39,20.462,20.462,0,0,1,8.956,8.549,1.556,1.556,0,0,1-.278,1.88L56.528,343.074a1.555,1.555,0,0,1-1.08.436M38.607,339.5a145.7,145.7,0,0,1,16.289.827L65.6,330a17.19,17.19,0,0,0-6.977-6.245A15.607,15.607,0,0,0,48.342,322.6a59.258,59.258,0,0,1-15.1,1.155c-.553-.02-1.121-.058-1.723-.1-2.648-.181-5.647-.385-7.283,1.168a3.327,3.327,0,0,0-.852,1.662,1.561,1.561,0,0,1-.055.437,3.336,3.336,0,0,0,.727,2.292c.4.494,1.958,1.683,7.586,1.89a53.09,53.09,0,0,0,6.426-.186,1.556,1.556,0,0,1,.316,3.1,55.2,55.2,0,0,1-6.822.2c-5.165-.186-8.412-1.182-9.927-3.046a6.452,6.452,0,0,1-1.421-4.066L9.575,316.568a4.332,4.332,0,0,0-4.61-.6,2.814,2.814,0,0,0-1.85,2.735c.058,1.274,1.493,2.826,2.645,4.073.343.371.667.722.962,1.068L17.05,335.6a12.124,12.124,0,0,0,7.934,4.114,63.222,63.222,0,0,0,9.192-.048c1.6-.086,3.109-.167,4.431-.167" transform="translate(0 -276)"/>
        <path id="Trazado_912606" data-name="Trazado 912606" d="M454.644,473.765a2.3,2.3,0,0,1-3.245-.194l-4.34-4.5a2.3,2.3,0,0,1-.074-3.25l16.117-15.53a2.3,2.3,0,0,1,3.245.194l4.34,4.5a2.3,2.3,0,0,1,.074,3.25Z" transform="translate(-394.267 -397.233)" fill="#b0aeed"/>
        <path id="Trazado_912607" data-name="Trazado 912607" d="M441.422,464.145q-.117,0-.236-.007a4.034,4.034,0,0,1-2.665-1.243l-4.34-4.5a3.861,3.861,0,0,1-.033-5.45l16.117-15.53a3.861,3.861,0,0,1,5.445.235l4.34,4.5a3.861,3.861,0,0,1,.033,5.45l-16.117,15.53a3.627,3.627,0,0,1-2.544,1.016m11.392-24.639a.55.55,0,0,0-.39.145l-16.117,15.53a.77.77,0,0,0,.115,1.05l4.34,4.5a.933.933,0,0,0,.61.3.566.566,0,0,0,.435-.143h0l16.117-15.53a.77.77,0,0,0-.114-1.05l-4.34-4.5a.938.938,0,0,0-.656-.3" transform="translate(-382.509 -385.477)"/>
        <path id="Trazado_912608" data-name="Trazado 912608" d="M249.845,102.457V98.978a2.535,2.535,0,0,0-2.535-2.535H228.258a2.535,2.535,0,0,0-2.535,2.535V121.2a2.535,2.535,0,0,0,2.535,2.535H247.31a2.535,2.535,0,0,0,2.535-2.535v-6.085" transform="translate(-199.384 -85.189)" fill="#78d0a9"/>
        <path id="Trazado_912609" data-name="Trazado 912609" d="M235.533,113.514H216.481a4.1,4.1,0,0,1-4.091-4.091V87.2a4.1,4.1,0,0,1,4.091-4.091h19.052a4.1,4.1,0,0,1,4.091,4.091v3.479a1.556,1.556,0,0,1-3.112,0V87.2a.98.98,0,0,0-.979-.979H216.481a.98.98,0,0,0-.979.979v22.223a.98.98,0,0,0,.979.979h19.052a.98.98,0,0,0,.979-.979v-6.085a1.556,1.556,0,1,1,3.112,0v6.085a4.1,4.1,0,0,1-4.091,4.091" transform="translate(-187.607 -73.411)"/>
        <path id="Trazado_912610" data-name="Trazado 912610" d="M283.687,17.541a1.556,1.556,0,0,1-1.556-1.556V6.673a3.562,3.562,0,0,0-7.124,0v9.312a1.556,1.556,0,0,1-3.112,0V6.673a6.673,6.673,0,0,1,13.347,0v9.312a1.556,1.556,0,0,1-1.556,1.556" transform="translate(-240.17 0)"/>
        <path id="Trazado_912611" data-name="Trazado 912611" d="M298.975,206.993h-5.581a1.556,1.556,0,0,1,0-3.112h5.581a1.556,1.556,0,1,1,0,3.112" transform="translate(-257.785 -180.091)"/>
        <path id="Trazado_912612" data-name="Trazado 912612" d="M496.925,195.1h-4.106a1.556,1.556,0,1,1,0-3.112h4.106a1.556,1.556,0,0,1,0,3.112" transform="translate(-433.94 -169.587)"/>
        <path id="Trazado_912613" data-name="Trazado 912613" d="M498.729,258.612a1.547,1.547,0,0,1-.776-.209l-3.556-2.053a1.556,1.556,0,0,1,1.556-2.695l3.556,2.053a1.556,1.556,0,0,1-.779,2.9" transform="translate(-436.021 -223.874)"/>
        <path id="Trazado_912614" data-name="Trazado 912614" d="M495.175,119.138a1.556,1.556,0,0,1-.779-2.9l3.556-2.053a1.556,1.556,0,1,1,1.556,2.695l-3.556,2.053a1.548,1.548,0,0,1-.776.209" transform="translate(-436.02 -100.674)"/>
        <path id="Trazado_912615" data-name="Trazado 912615" d="M116.008,195.1H111.9a1.556,1.556,0,1,1,0-3.112h4.106a1.556,1.556,0,1,1,0,3.112" transform="translate(-97.471 -169.587)"/>
        <path id="Trazado_912616" data-name="Trazado 912616" d="M114.258,258.613a1.556,1.556,0,0,1-.779-2.9l3.556-2.053a1.556,1.556,0,0,1,1.556,2.695l-3.556,2.053a1.549,1.549,0,0,1-.776.209" transform="translate(-99.55 -223.875)"/>
        <path id="Trazado_912617" data-name="Trazado 912617" d="M117.811,119.137a1.548,1.548,0,0,1-.776-.209l-3.556-2.053a1.556,1.556,0,0,1,1.556-2.695l3.556,2.053a1.556,1.556,0,0,1-.779,2.9" transform="translate(-99.55 -100.673)"/>
        <path id="Trazado_912618" data-name="Trazado 912618" d="M370.6,473.575a1.371,1.371,0,0,1-.153-.008c-.05,0-.1-.013-.152-.022a1.565,1.565,0,0,1-.291-.089,1.649,1.649,0,0,1-.268-.143,1.336,1.336,0,0,1-.123-.091,1.4,1.4,0,0,1-.114-.1,1.358,1.358,0,0,1-.1-.113c-.032-.04-.063-.081-.091-.123a1.563,1.563,0,0,1-.142-.269,1.489,1.489,0,0,1-.089-.291,1.364,1.364,0,0,1-.023-.151c0-.051-.008-.1-.008-.153s0-.1.008-.154a1.362,1.362,0,0,1,.023-.151,1.493,1.493,0,0,1,.089-.291,1.562,1.562,0,0,1,.142-.269c.028-.042.059-.083.091-.123a1.374,1.374,0,0,1,.1-.113,1.4,1.4,0,0,1,.114-.1,1.329,1.329,0,0,1,.123-.091,1.633,1.633,0,0,1,.268-.144,1.572,1.572,0,0,1,.291-.089c.05-.009.1-.018.152-.022a1.5,1.5,0,0,1,.306,0c.05,0,.1.013.151.022a1.609,1.609,0,0,1,.292.089,1.63,1.63,0,0,1,.268.144,1.329,1.329,0,0,1,.123.091,1.4,1.4,0,0,1,.114.1c.035.036.07.074.1.113s.062.08.09.123a1.579,1.579,0,0,1,.232.56c.01.05.017.1.023.151s.007.1.007.154,0,.1-.007.153-.013.1-.023.151a1.58,1.58,0,0,1-.232.56c-.028.042-.058.083-.09.123s-.068.077-.1.113a1.4,1.4,0,0,1-.114.1,1.336,1.336,0,0,1-.123.091,1.646,1.646,0,0,1-.268.143,1.6,1.6,0,0,1-.292.089c-.049.009-.1.018-.151.022a1.372,1.372,0,0,1-.153.008" transform="translate(-325.982 -415.567)"/>
        <path id="Trazado_912619" data-name="Trazado 912619" d="M420.67,191.278a1.569,1.569,0,0,1-1.1-.456,1.426,1.426,0,0,1-.1-.113,1.366,1.366,0,0,1-.091-.124,1.611,1.611,0,0,1-.143-.268,1.68,1.68,0,0,1-.089-.291c-.009-.05-.018-.1-.022-.152a1.329,1.329,0,0,1-.008-.153,1.556,1.556,0,0,1,1.71-1.548c.05.006.1.013.151.023a1.554,1.554,0,0,1,.56.232,1.507,1.507,0,0,1,.123.09c.04.033.078.068.113.1a1.566,1.566,0,0,1,.456,1.1,1.35,1.35,0,0,1-.008.153,1.393,1.393,0,0,1-.022.152,1.568,1.568,0,0,1-.089.291,1.6,1.6,0,0,1-.144.268,1.36,1.36,0,0,1-.091.124,1.558,1.558,0,0,1-.216.216,1.3,1.3,0,0,1-.123.091,1.557,1.557,0,0,1-.56.232c-.05.009-.1.018-.151.022a1.383,1.383,0,0,1-.153.008" transform="translate(-370.209 -166.209)"/>
      </g>
    </g>
  </g>
</svg>
