<svg xmlns="http://www.w3.org/2000/svg" xmlns:xlink="http://www.w3.org/1999/xlink" width="102.38" height="102.38" viewBox="0 0 102.38 102.38">
  <defs>
    <clipPath id="clip-path">
      <rect id="Rectángulo_403261" data-name="Rectángulo 403261" width="64" height="64" transform="translate(-0.051 -0.051)" fill="none"/>
    </clipPath>
  </defs>
  <g id="Grupo_1101503" data-name="Grupo 1101503" transform="translate(-433.81 -516.152)">
    <circle id="Elipse_4034" data-name="Elipse 4034" cx="49.69" cy="49.69" r="49.69" transform="translate(435.31 517.652)" fill="#efedee" stroke="#007dfe" stroke-miterlimit="10" stroke-width="3"/>
    <g id="Grupo_1101416" data-name="Grupo 1101416" transform="translate(453.102 534.051)">
      <g id="Grupo_1101415" data-name="Grupo 1101415" clip-path="url(#clip-path)">
        <path id="Trazado_912229" data-name="Trazado 912229" d="M51.186,187.733a8.52,8.52,0,1,1-8.52,8.52,8.52,8.52,0,0,1,8.52-8.52" transform="translate(-37.341 -164.304)" fill="#ffe0b2"/>
        <path id="Trazado_912230" data-name="Trazado 912230" d="M99.73,187.733a8.588,8.588,0,0,0-1.6.154,8.52,8.52,0,0,1,0,16.731,8.52,8.52,0,1,0,1.6-16.885" transform="translate(-85.886 -164.303)" fill="#dfc49c"/>
        <path id="Trazado_912231" data-name="Trazado 912231" d="M34.092,345.565V329.591a5.325,5.325,0,0,0-5.325-5.325H13.858a5.325,5.325,0,0,0-5.325,5.325v15.975A1.065,1.065,0,0,0,9.6,346.63h23.43a1.065,1.065,0,0,0,1.065-1.065" transform="translate(-7.468 -283.797)" fill="#007dfe"/>
        <path id="Trazado_912232" data-name="Trazado 912232" d="M148.262,324.267h-3.195a5.325,5.325,0,0,1,5.325,5.325v15.975a1.065,1.065,0,0,1-1.065,1.065h3.195a1.065,1.065,0,0,0,1.065-1.065V329.592a5.325,5.325,0,0,0-5.325-5.325" transform="translate(-126.962 -283.798)" fill="#007dfe"/>
        <path id="Trazado_912233" data-name="Trazado 912233" d="M217.687,27.8,196.647,48.838a14.953,14.953,0,0,1-1.288-17.81l-.113-.113a3.312,3.312,0,0,1-.287-4.473,3.195,3.195,0,0,1,4.676-.174l.242.241A14.953,14.953,0,0,1,217.687,27.8Z" transform="translate(-168.925 -21.149)" fill="#ffdc00"/>
        <path id="Trazado_912234" data-name="Trazado 912234" d="M222.29,24.3a14.859,14.859,0,0,1,8.185,3.537l-19.2,19.2a14.955,14.955,0,0,0,1.354,1.84L233.671,27.84A14.909,14.909,0,0,0,222.29,24.3" transform="translate(-184.909 -21.191)" fill="#fec108"/>
        <path id="Trazado_912235" data-name="Trazado 912235" d="M251.686,222.932a14.859,14.859,0,0,1-3.951,10.107,12.972,12.972,0,0,0-3.5,8.786v.277h-14.91v-.277a12.972,12.972,0,0,0-3.5-8.786,14.859,14.859,0,0,1-3.951-10.107c0-.362.011-.714.032-1.065h29.755C251.676,222.218,251.686,222.57,251.686,222.932Z" transform="translate(-194.178 -194.178)" fill="#ffdc00"/>
        <path id="Trazado_912236" data-name="Trazado 912236" d="M386.085,221.867H382.89c.021.351.032.7.032,1.065a14.86,14.86,0,0,1-3.951,10.107,12.971,12.971,0,0,0-3.5,8.786v.277h3.195v-.277a12.971,12.971,0,0,1,3.5-8.786,14.859,14.859,0,0,0,3.951-10.107c0-.362-.011-.714-.032-1.065" transform="translate(-328.608 -194.178)" fill="#fec108"/>
        <path id="Trazado_912237" data-name="Trazado 912237" d="M281.6,384h14.91v4.26a3.2,3.2,0,0,1-3.195,3.195h-8.52a3.2,3.2,0,0,1-3.195-3.195Z" transform="translate(-246.456 -336.076)" fill="#7f8e94"/>
        <path id="Trazado_912238" data-name="Trazado 912238" d="M353.062,384v4.26a3.2,3.2,0,0,1-3.195,3.195h3.195a3.2,3.2,0,0,0,3.195-3.195V384Z" transform="translate(-306.203 -336.076)" fill="#545c60"/>
        <path id="Trazado_912239" data-name="Trazado 912239" d="M315.676,443.733a2.916,2.916,0,0,1,.043.533,4.3,4.3,0,0,1-8.52,0,2.918,2.918,0,0,1,.043-.533Z" transform="translate(-268.859 -388.354)" fill="#607d8b"/>
        <path id="Trazado_912240" data-name="Trazado 912240" d="M220.2,99.9a1.065,1.065,0,0,1-1.017-.745,11.714,11.714,0,0,1,1.3-9.812,1.065,1.065,0,1,1,1.792,1.148,9.6,9.6,0,0,0-1.056,8.033,1.065,1.065,0,0,1-.7,1.332A1.052,1.052,0,0,1,220.2,99.9Z" transform="translate(-191.36 -77.73)" fill="#f5f5f5"/>
        <path id="Trazado_912241" data-name="Trazado 912241" d="M299.718,279.443l3.195-14.91-6.39,2.13-6.39-2.13,3.195,14.91Z" transform="translate(-253.924 -231.519)" fill="#fa6d61"/>
        <path id="Trazado_912242" data-name="Trazado 912242" d="M326.929,153.6a2.662,2.662,0,1,1-2.662,2.662,2.662,2.662,0,0,1,2.662-2.662" transform="translate(-283.798 -134.43)" fill="#007dfe"/>
        <path id="Trazado_912243" data-name="Trazado 912243" d="M382.389,76.8l2.139,4.207,4.783.675-3.461,3.274.817,4.624L382.389,87.4l-4.278,2.183.817-4.624-3.461-3.274,4.783-.675Z" transform="translate(-328.607 -67.215)" fill="#ffdc00"/>
        <path id="Trazado_912244" data-name="Trazado 912244" d="M426.653,81.682l-4.783-.675L419.73,76.8l-1.6,3.142.542,1.065,4.783.675L420,84.955l.5,2.833,3.511,1.791-.817-4.624Z" transform="translate(-365.949 -67.215)" fill="#fec108"/>
        <path id="Trazado_912245" data-name="Trazado 912245" d="M461.865,4.26A1.065,1.065,0,0,1,460.8,3.195V1.065a1.065,1.065,0,1,1,2.13,0v2.13a1.065,1.065,0,0,1-1.065,1.065" transform="translate(-403.291)" fill="#007dfe"/>
        <path id="Trazado_912246" data-name="Trazado 912246" d="M461.865,55.46a1.065,1.065,0,0,1-1.065-1.065v-2.13a1.065,1.065,0,1,1,2.13,0v2.13a1.065,1.065,0,0,1-1.065,1.065" transform="translate(-403.291 -44.81)" fill="#007dfe"/>
        <path id="Trazado_912247" data-name="Trazado 912247" d="M481.062,36.263h-2.13a1.065,1.065,0,0,1,0-2.13h2.13a1.065,1.065,0,0,1,0,2.13" transform="translate(-418.228 -29.873)" fill="#007dfe"/>
        <path id="Trazado_912248" data-name="Trazado 912248" d="M429.862,36.263h-2.13a1.065,1.065,0,0,1,0-2.13h2.13a1.065,1.065,0,0,1,0,2.13" transform="translate(-373.418 -29.873)" fill="#007dfe"/>
        <path id="Trazado_912249" data-name="Trazado 912249" d="M334.348,443.733h-3.195a2.918,2.918,0,0,1,.043.533,3.766,3.766,0,0,1-2.662,3.451,4.759,4.759,0,0,0,1.6.277,4.022,4.022,0,0,0,4.26-3.727,2.918,2.918,0,0,0-.043-.533" transform="translate(-287.532 -388.354)" fill="#37474f"/>
        <path id="Trazado_912250" data-name="Trazado 912250" d="M496,145.067a1.065,1.065,0,1,1-1.065,1.065A1.065,1.065,0,0,1,496,145.067" transform="translate(-433.165 -126.962)"/>
        <path id="Trazado_912251" data-name="Trazado 912251" d="M57.477,40.4H30.292L49.514,21.177a1.065,1.065,0,0,0-.056-1.558,16.081,16.081,0,0,0-18.368-1.81,4.26,4.26,0,0,0-5.857.558,4.327,4.327,0,0,0-.113,5.4,15.814,15.814,0,0,0-1.8,4.913H18.1a5.331,5.331,0,0,0-5.325,5.325V36.2A9.574,9.574,0,0,0,7.834,53.179H6.39A6.4,6.4,0,0,0,0,59.569V75.543a2.13,2.13,0,0,0,2.13,2.13H25.559a2.13,2.13,0,0,0,2.13-2.13V59.569a6.4,6.4,0,0,0-6.39-6.39H19.855A9.574,9.574,0,0,0,14.91,36.2V34.009A3.2,3.2,0,0,1,18.1,30.814h4.956a16.047,16.047,0,0,0,3.585,11.008c-.008.234-.021.467-.021.707a15.916,15.916,0,0,0,4.234,10.83,11.881,11.881,0,0,1,3.221,8.063v2.407h-2.13a1.065,1.065,0,0,0,0,2.13h2.13a4.26,4.26,0,0,0,3.24,4.122,5.369,5.369,0,0,0,10.56,0,4.26,4.26,0,0,0,3.24-4.122h2.13a1.065,1.065,0,0,0,0-2.13h-2.13V61.422a11.885,11.885,0,0,1,3.221-8.064,15.911,15.911,0,0,0,4.234-10.829c0-.384-.012-.757-.034-1.131a1.065,1.065,0,0,0-1.063-1M21.3,55.309a4.26,4.26,0,0,1,4.26,4.26V75.543H21.3V62.764a1.065,1.065,0,1,0-2.13,0v12.78H8.52V62.764a1.065,1.065,0,1,0-2.13,0v12.78H2.13V59.569a4.26,4.26,0,0,1,4.26-4.26Zm0-9.585a7.455,7.455,0,1,1-7.455-7.455A7.455,7.455,0,0,1,21.3,45.724m6.031-21.5a1.065,1.065,0,0,0-.146-1.329l-.106-.106a2.259,2.259,0,0,1-.231-3.027,2.087,2.087,0,0,1,1.609-.736,2.119,2.119,0,0,1,1.507.623l.241.241a1.065,1.065,0,0,0,1.327.143,13.951,13.951,0,0,1,15.638.482L27.812,39.867a13.951,13.951,0,0,1-.481-15.638M42.6,72.348a3.111,3.111,0,0,1-3.13-2.13h6.26a3.111,3.111,0,0,1-3.13,2.13m6.39-6.39a2.13,2.13,0,0,1-2.13,2.13h-8.52a2.13,2.13,0,0,1-2.13-2.13V62.764h12.78Zm-8.724-5.325L37.642,48.387l4.621,1.541a1.065,1.065,0,0,0,.673,0l4.621-1.541L44.933,60.634Zm12.511-8.72a14.046,14.046,0,0,0-3.765,8.72h-1.9L50.03,47.012a1.065,1.065,0,0,0-1.378-1.233L42.6,47.8l-6.053-2.023a1.065,1.065,0,0,0-1.378,1.233l2.919,13.627h-1.9a14.046,14.046,0,0,0-3.765-8.72,13.8,13.8,0,0,1-3.668-9.385H56.444a13.8,13.8,0,0,1-3.668,9.385" transform="translate(0 -13.775)"/>
        <path id="Trazado_912252" data-name="Trazado 912252" d="M315.733,148.793a3.727,3.727,0,1,0,3.727-3.727,3.727,3.727,0,0,0-3.727,3.727m3.727-1.6a1.6,1.6,0,1,1-1.6,1.6,1.6,1.6,0,0,1,1.6-1.6" transform="translate(-276.329 -126.962)"/>
        <path id="Trazado_912253" data-name="Trazado 912253" d="M381.99,73.484l-4.234-.6-1.887-3.713a1.11,1.11,0,0,0-1.9,0l-1.887,3.713-4.234.6a1.065,1.065,0,0,0-.583,1.829l3.045,2.881-.716,4.059a1.065,1.065,0,0,0,1.533,1.134l3.792-1.936,3.794,1.936a1.065,1.065,0,0,0,1.53-1.134l-.718-4.059,3.046-2.875a1.065,1.065,0,0,0-.584-1.829Zm-4.342,3.556a1.065,1.065,0,0,0-.319.958l.445,2.518L375.4,79.305a1.057,1.057,0,0,0-.967,0L372.06,80.52,372.505,78a1.065,1.065,0,0,0-.319-.958l-1.847-1.759,2.594-.366a1.065,1.065,0,0,0,.8-.572L374.924,72l1.189,2.343a1.065,1.065,0,0,0,.8.572l2.594.366Z" transform="translate(-321.137 -60.073)"/>
      </g>
    </g>
  </g>
</svg>
