<svg xmlns="http://www.w3.org/2000/svg" xmlns:xlink="http://www.w3.org/1999/xlink" width="80.723" height="73.609" viewBox="0 0 80.723 73.609">
  <defs>
    <clipPath id="clip-path">
      <rect id="Rectángulo_403271" data-name="Rectángulo 403271" width="80.723" height="73.609" fill="none"/>
    </clipPath>
  </defs>
  <g id="Grupo_1101500" data-name="Grupo 1101500" transform="translate(-673.638 -3382)">
    <g id="Grupo_1101430" data-name="Grupo 1101430" transform="translate(673.638 3382)">
      <rect id="Rectángulo_403268" data-name="Rectángulo 403268" width="14.907" height="8.289" transform="translate(27.357 58.228)" fill="#548aff"/>
      <rect id="Rectángulo_403269" data-name="Rectángulo 403269" width="5.349" height="8.289" transform="translate(27.357 58.228)" fill="#548aff"/>
      <g id="Grupo_1101429" data-name="Grupo 1101429">
        <g id="Grupo_1101428" data-name="Grupo 1101428" clip-path="url(#clip-path)">
          <path id="Trazado_912330" data-name="Trazado 912330" d="M237.447,493.083H222.539a1.182,1.182,0,0,1-1.182-1.182v-8.289a1.182,1.182,0,0,1,1.182-1.182h14.908a1.182,1.182,0,0,1,1.182,1.182V491.9a1.182,1.182,0,0,1-1.182,1.182m-13.725-2.365h12.543v-5.924H223.722Z" transform="translate(-195.182 -425.383)"/>
          <path id="Trazado_912331" data-name="Trazado 912331" d="M76.41,415.546H10.825L10,415.7v6.726a2.365,2.365,0,0,0,2.365,2.365H74.892a2.365,2.365,0,0,0,2.365-2.365V415.7Z" transform="translate(-8.818 -366.409)" fill="#548aff"/>
          <path id="Trazado_912332" data-name="Trazado 912332" d="M16.7,422.429V415.7l.825-.158h-6.7L10,415.7v6.726a2.365,2.365,0,0,0,2.365,2.365h6.7a2.365,2.365,0,0,1-2.365-2.365" transform="translate(-8.818 -366.408)" fill="#548aff"/>
          <path id="Trazado_912333" data-name="Trazado 912333" d="M66.074,417.158H3.547A3.551,3.551,0,0,1,0,413.611v-6.726a1.182,1.182,0,0,1,2.365,0v6.726a1.184,1.184,0,0,0,1.182,1.182H66.074a1.184,1.184,0,0,0,1.182-1.182v-5.75a1.182,1.182,0,0,1,.552-2.3l.847.158a1.182,1.182,0,0,1,.966,1.162v6.726a3.551,3.551,0,0,1-3.547,3.547" transform="translate(0 -357.59)"/>
          <path id="Trazado_912334" data-name="Trazado 912334" d="M191.079,561.194H167.624a3.7,3.7,0,0,0-3.7,3.7v1.895a.473.473,0,0,0,.473.473h29.909a.473.473,0,0,0,.473-.473v-1.895a3.7,3.7,0,0,0-3.7-3.7" transform="translate(-144.541 -494.835)" fill="#548aff"/>
          <path id="Trazado_912335" data-name="Trazado 912335" d="M171.863,566.788v-1.895a3.7,3.7,0,0,1,3.7-3.7h-7.939a3.7,3.7,0,0,0-3.7,3.7v1.895a.473.473,0,0,0,.473.473h7.939a.473.473,0,0,1-.473-.473" transform="translate(-144.541 -494.835)" fill="#548aff"/>
          <path id="Trazado_912336" data-name="Trazado 912336" d="M185.488,559.626H155.579a1.657,1.657,0,0,1-1.655-1.655v-1.895a4.888,4.888,0,0,1,4.882-4.882h23.456a4.888,4.888,0,0,1,4.882,4.882v1.895a1.657,1.657,0,0,1-1.655,1.655m-29.2-2.365h28.49v-1.185a2.52,2.52,0,0,0-2.517-2.517H158.806a2.52,2.52,0,0,0-2.517,2.517Z" transform="translate(-135.723 -486.017)"/>
          <path id="Trazado_912337" data-name="Trazado 912337" d="M77.257,136.962H10V101.789a2.365,2.365,0,0,1,2.365-2.365H77.257Z" transform="translate(-8.818 -87.667)" fill="#eaf6ff"/>
          <path id="Trazado_912338" data-name="Trazado 912338" d="M19.066,99.424h-6.7A2.365,2.365,0,0,0,10,101.789v35.173h6.7V101.789a2.365,2.365,0,0,1,2.365-2.365" transform="translate(-8.818 -87.667)" fill="#d8ecfe"/>
          <path id="Trazado_912339" data-name="Trazado 912339" d="M68.439,129.328H25.7a1.182,1.182,0,1,1,0-2.365H67.257V91.79H3.547a1.184,1.184,0,0,0-1.182,1.182v33.99H20.181a1.182,1.182,0,1,1,0,2.365h-19A1.183,1.183,0,0,1,0,128.145V92.972a3.551,3.551,0,0,1,3.547-3.547H68.439a1.183,1.183,0,0,1,1.182,1.182v37.538a1.183,1.183,0,0,1-1.182,1.182" transform="translate(0 -78.851)"/>
          <path id="Trazado_912340" data-name="Trazado 912340" d="M448.721,258.265a6.067,6.067,0,1,1-6.067-6.067,6.067,6.067,0,0,1,6.067,6.067" transform="translate(-384.962 -222.376)" fill="#fed402"/>
          <path id="Trazado_912341" data-name="Trazado 912341" d="M440.617,258.265a6.068,6.068,0,0,1,4.052-5.723,6.067,6.067,0,1,0,0,11.446,6.068,6.068,0,0,1-4.052-5.723" transform="translate(-384.962 -222.376)" fill="#fac600"/>
          <path id="Trazado_912342" data-name="Trazado 912342" d="M433.838,256.7a7.249,7.249,0,1,1,7.249-7.249,7.258,7.258,0,0,1-7.249,7.249m0-12.134a4.885,4.885,0,1,0,4.884,4.885,4.89,4.89,0,0,0-4.884-4.885" transform="translate(-376.145 -213.558)"/>
          <path id="Trazado_912343" data-name="Trazado 912343" d="M540.2,418.612h0a8.349,8.349,0,0,1-8.324-8.324v-9.353a8.324,8.324,0,0,1,16.648,0v9.353a8.349,8.349,0,0,1-8.324,8.324" transform="translate(-468.982 -346.186)" fill="#eaf6ff"/>
          <path id="Trazado_912344" data-name="Trazado 912344" d="M537.156,410.288v-9.353a8.355,8.355,0,0,1,5.683-7.89,8.25,8.25,0,0,0-2.641-.435h0a8.349,8.349,0,0,0-8.324,8.324v9.353a8.349,8.349,0,0,0,8.324,8.324h0a8.25,8.25,0,0,0,2.641-.435,8.355,8.355,0,0,1-5.683-7.89" transform="translate(-468.982 -346.186)" fill="#d8ecfe"/>
          <path id="Trazado_912345" data-name="Trazado 912345" d="M531.38,410.977a9.517,9.517,0,0,1-9.507-9.507v-9.353a9.507,9.507,0,0,1,19.013,0v9.353a9.518,9.518,0,0,1-9.507,9.507m0-26a7.15,7.15,0,0,0-7.142,7.142v9.353a7.142,7.142,0,0,0,14.283,0v-9.353a7.15,7.15,0,0,0-7.142-7.142" transform="translate(-460.163 -337.368)"/>
          <path id="Trazado_912346" data-name="Trazado 912346" d="M593.451,399.193a1.183,1.183,0,0,1-1.182-1.182V383.793a1.182,1.182,0,1,1,2.365,0V398.01a1.183,1.183,0,0,1-1.182,1.182" transform="translate(-522.235 -337.368)"/>
          <path id="Trazado_912347" data-name="Trazado 912347" d="M584.835,441.312h0a2.338,2.338,0,0,1-2.338-2.338v-1.8a2.338,2.338,0,1,1,4.676,0v1.8a2.338,2.338,0,0,1-2.338,2.338" transform="translate(-513.619 -383.419)" fill="#0ed290"/>
          <path id="Trazado_912348" data-name="Trazado 912348" d="M576.017,433.677a3.525,3.525,0,0,1-3.521-3.521v-1.8a3.521,3.521,0,1,1,7.041,0v1.8a3.525,3.525,0,0,1-3.521,3.521m0-6.475a1.157,1.157,0,0,0-1.156,1.156v1.8a1.156,1.156,0,1,0,2.312,0v-1.8a1.157,1.157,0,0,0-1.156-1.156" transform="translate(-504.8 -374.601)"/>
          <path id="Trazado_912349" data-name="Trazado 912349" d="M243.007,209.766H224.5a.473.473,0,0,1-.473-.473V190.787a.473.473,0,0,1,.473-.473h18.506a.473.473,0,0,1,.473.473v18.506a.473.473,0,0,1-.473.473" transform="translate(-197.537 -167.81)" fill="#0ed290"/>
          <path id="Trazado_912350" data-name="Trazado 912350" d="M229.384,209.292V190.786a.473.473,0,0,1,.473-.473H224.5a.473.473,0,0,0-.473.473v18.506a.473.473,0,0,0,.473.473h5.357a.473.473,0,0,1-.473-.473" transform="translate(-197.537 -167.809)" fill="#00c285"/>
          <path id="Trazado_912351" data-name="Trazado 912351" d="M234.188,202.131H215.682a1.657,1.657,0,0,1-1.655-1.655V181.969a1.657,1.657,0,0,1,1.655-1.655h18.506a1.657,1.657,0,0,1,1.655,1.655v18.506a1.657,1.657,0,0,1-1.655,1.655m-17.8-2.365h17.087V182.679H216.392Z" transform="translate(-188.719 -158.992)"/>
          <path id="Trazado_912352" data-name="Trazado 912352" d="M106.6,182.678H97.934a1.182,1.182,0,1,1,0-2.365H106.6a1.182,1.182,0,0,1,0,2.365" transform="translate(-85.311 -158.992)"/>
          <path id="Trazado_912353" data-name="Trazado 912353" d="M106.6,214.928H97.934a1.182,1.182,0,1,1,0-2.365H106.6a1.182,1.182,0,1,1,0,2.365" transform="translate(-85.311 -187.428)"/>
          <path id="Trazado_912354" data-name="Trazado 912354" d="M106.6,247.179H97.934a1.182,1.182,0,1,1,0-2.365H106.6a1.182,1.182,0,0,1,0,2.365" transform="translate(-85.311 -215.866)"/>
          <path id="Trazado_912355" data-name="Trazado 912355" d="M106.6,295.555H97.934a1.182,1.182,0,1,1,0-2.365H106.6a1.182,1.182,0,1,1,0,2.365" transform="translate(-85.311 -258.521)"/>
          <path id="Trazado_912356" data-name="Trazado 912356" d="M106.6,327.806H97.934a1.182,1.182,0,1,1,0-2.365H106.6a1.182,1.182,0,0,1,0,2.365" transform="translate(-85.311 -286.959)"/>
          <path id="Trazado_912357" data-name="Trazado 912357" d="M102.441,360.057H97.934a1.182,1.182,0,0,1,0-2.365h4.507a1.182,1.182,0,0,1,0,2.365" transform="translate(-85.311 -315.396)"/>
          <path id="Trazado_912358" data-name="Trazado 912358" d="M312.608,150.789l-9.851,15.558a.473.473,0,0,0,.4.726h19.7a.473.473,0,0,0,.4-.726l-9.851-15.558a.473.473,0,0,0-.8,0" transform="translate(-266.892 -132.765)" fill="#fd4755"/>
          <path id="Trazado_912359" data-name="Trazado 912359" d="M308.117,166.347l7.571-11.958-2.28-3.6a.473.473,0,0,0-.8,0l-9.85,15.558a.473.473,0,0,0,.4.726h5.358a.473.473,0,0,1-.4-.726" transform="translate(-266.893 -132.765)" fill="#fb2b3a"/>
          <path id="Trazado_912360" data-name="Trazado 912360" d="M314.046,159.439h-19.7a1.656,1.656,0,0,1-1.4-2.541L302.8,141.34a1.647,1.647,0,0,1,1.4-.77h0a1.647,1.647,0,0,1,1.4.77l9.85,15.558a1.656,1.656,0,0,1-1.4,2.541m-18.412-2.365h17.123L304.2,143.552Zm8.162-15.1h0Z" transform="translate(-258.08 -123.948)"/>
          <path id="Trazado_912361" data-name="Trazado 912361" d="M10,219.042h5.279a.788.788,0,0,0,.788-.788V199.108H10Z" transform="translate(-8.818 -175.564)" fill="#548aff"/>
          <path id="Trazado_912362" data-name="Trazado 912362" d="M6.461,211.407H1.182A1.183,1.183,0,0,1,0,210.225V190.29a1.183,1.183,0,0,1,1.182-1.182H7.249a1.183,1.183,0,0,1,1.182,1.182v19.146a1.973,1.973,0,0,1-1.971,1.971m-4.1-2.365h3.7V191.473h-3.7Z" transform="translate(0 -166.747)"/>
          <path id="Trazado_912363" data-name="Trazado 912363" d="M16.068,160.329H10v-5.2H15.28a.788.788,0,0,1,.788.788Z" transform="translate(-8.818 -136.786)" fill="#548aff"/>
          <path id="Trazado_912364" data-name="Trazado 912364" d="M7.25,152.7H1.183A1.182,1.182,0,0,1,0,151.513v-5.2a1.182,1.182,0,0,1,1.182-1.182H6.462A1.973,1.973,0,0,1,8.433,147.1v4.412A1.182,1.182,0,0,1,7.25,152.7M2.366,150.33h3.7v-2.835h-3.7Z" transform="translate(-0.001 -127.969)"/>
          <path id="Trazado_912365" data-name="Trazado 912365" d="M469.689,90.414h22.518a.788.788,0,0,0,.788-.788v-12.2H468.9v12.2a.788.788,0,0,0,.788.788" transform="translate(-413.455 -68.272)" fill="#ffe5c2"/>
          <path id="Trazado_912366" data-name="Trazado 912366" d="M474.183,89.627v-12.2H468.9v12.2a.789.789,0,0,0,.788.788h5.282a.788.788,0,0,1-.788-.788" transform="translate(-413.455 -68.273)" fill="#fed2a4"/>
          <path id="Trazado_912367" data-name="Trazado 912367" d="M483.39,82.78H481.1a1.182,1.182,0,0,1,0-2.365H483V69.794h-21.73V80.415h14.32a1.182,1.182,0,0,1,0,2.365H460.872a1.973,1.973,0,0,1-1.971-1.971v-12.2a1.183,1.183,0,0,1,1.182-1.182h24.095a1.183,1.183,0,0,1,1.182,1.182v12.2a1.973,1.973,0,0,1-1.971,1.971" transform="translate(-404.638 -59.456)"/>
          <path id="Trazado_912368" data-name="Trazado 912368" d="M514.8,107.908H500.2a1.182,1.182,0,0,1,0-2.365H514.8a1.182,1.182,0,0,1,0,2.365" transform="translate(-440.007 -93.063)"/>
          <path id="Trazado_912369" data-name="Trazado 912369" d="M504.559,139.617H500.2a1.182,1.182,0,1,1,0-2.365h4.364a1.182,1.182,0,0,1,0,2.365" transform="translate(-440.006 -121.022)"/>
          <path id="Trazado_912370" data-name="Trazado 912370" d="M579.882,139.617H574a1.182,1.182,0,1,1,0-2.365h5.881a1.182,1.182,0,1,1,0,2.365" transform="translate(-505.084 -121.022)"/>
          <path id="Trazado_912371" data-name="Trazado 912371" d="M493,45.114H468.9V41.568a.788.788,0,0,1,.788-.788h22.518a.788.788,0,0,1,.788.788Z" transform="translate(-413.456 -35.958)" fill="#548aff"/>
          <path id="Trazado_912372" data-name="Trazado 912372" d="M474.972,40.779H469.69a.788.788,0,0,0-.788.788v3.545h5.282V41.567a.788.788,0,0,1,.788-.788" transform="translate(-413.456 -35.957)" fill="#548aff"/>
          <path id="Trazado_912373" data-name="Trazado 912373" d="M484.178,37.478H460.083A1.183,1.183,0,0,1,458.9,36.3V32.751a1.973,1.973,0,0,1,1.971-1.971H483.39a1.973,1.973,0,0,1,1.971,1.971V36.3a1.183,1.183,0,0,1-1.182,1.182m-22.912-2.365H483V33.145h-21.73Z" transform="translate(-404.638 -27.14)"/>
          <path id="Trazado_912374" data-name="Trazado 912374" d="M271.585,445.08h-4.333a1.182,1.182,0,0,1,0-2.365h4.333a1.182,1.182,0,0,1,0,2.365" transform="translate(-234.607 -390.365)"/>
          <path id="Trazado_912375" data-name="Trazado 912375" d="M15.7,10.361,15.547,10h-3.97A1.577,1.577,0,0,0,10,11.579v2.914a1.577,1.577,0,0,0,1.577,1.577h3.97l.158-.37Z" transform="translate(-8.818 -8.819)" fill="#fd4755"/>
          <path id="Trazado_912376" data-name="Trazado 912376" d="M11.578,27.5A1.577,1.577,0,0,1,10,25.919v2.608A1.577,1.577,0,0,0,11.578,30.1h3.97l.158-.37V27.125l-.158.37Z" transform="translate(-8.818 -22.854)" fill="#fb2b3a"/>
          <path id="Trazado_912377" data-name="Trazado 912377" d="M300.627,12.6,294.684,10l-.158.318V15.7l.158.364,5.943-2.6a.473.473,0,0,0,0-.867" transform="translate(-259.699 -8.819)" fill="#548aff"/>
          <path id="Trazado_912378" data-name="Trazado 912378" d="M301.8,25.5l-1.99-.871-3.953,1.729v2.608l5.943-2.6a.473.473,0,0,0,0-.867" transform="translate(-260.875 -21.715)" fill="#548aff"/>
          <path id="Trazado_912379" data-name="Trazado 912379" d="M285.865,8.432a1.183,1.183,0,0,1-1.085-.712l-.158-.364a1.182,1.182,0,0,1-.1-.47V1.5a1.182,1.182,0,0,1,.123-.525l.158-.318A1.182,1.182,0,0,1,286.339.1l5.943,2.6h0a1.655,1.655,0,0,1,0,3.033l-5.943,2.6a1.184,1.184,0,0,1-.474.1m1.025-5.51V5.511l2.959-1.295Z" transform="translate(-250.881 0)"/>
          <rect id="Rectángulo_403270" data-name="Rectángulo 403270" width="28.255" height="6.067" transform="translate(6.73 1.183)" fill="#fed402"/>
          <path id="Trazado_912380" data-name="Trazado 912380" d="M60.869,13.462V10H56.911V16.07H85.166V13.462Z" transform="translate(-50.181 -8.82)" fill="#fac600"/>
          <path id="Trazado_912381" data-name="Trazado 912381" d="M76.348,8.434H48.093a1.183,1.183,0,0,1-1.182-1.182V1.184A1.183,1.183,0,0,1,48.093,0H54.45a1.182,1.182,0,1,1,0,2.365H49.276v3.7h25.89v-3.7h-15.2a1.182,1.182,0,0,1,0-2.365h16.38a1.183,1.183,0,0,1,1.182,1.182V7.252a1.183,1.183,0,0,1-1.182,1.182" transform="translate(-41.364 -0.002)"/>
          <path id="Trazado_912382" data-name="Trazado 912382" d="M6.73,8.434H2.759A2.762,2.762,0,0,1,0,5.675V2.761A2.762,2.762,0,0,1,2.759,0H6.73A1.182,1.182,0,0,1,7.812.709l.158.359a1.181,1.181,0,0,1,.1.475V6.881a1.181,1.181,0,0,1-.094.463l-.158.371a1.183,1.183,0,0,1-1.088.72M2.759,2.367a.4.4,0,0,0-.394.394V5.675a.4.4,0,0,0,.394.394H5.7v-3.7Z" transform="translate(0 -0.002)"/>
        </g>
      </g>
    </g>
  </g>
</svg>
