<svg xmlns="http://www.w3.org/2000/svg" xmlns:xlink="http://www.w3.org/1999/xlink" width="82" height="76.879" viewBox="0 0 82 76.879">
  <defs>
    <clipPath id="clip-path">
      <rect id="Rectángulo_403272" data-name="Rectángulo 403272" width="82" height="76.879" fill="none"/>
    </clipPath>
  </defs>
  <g id="Grupo_1101501" data-name="Grupo 1101501" transform="translate(-915 -3379)">
    <g id="Grupo_1101436" data-name="Grupo 1101436" transform="translate(915 3379)">
      <g id="Grupo_1101435" data-name="Grupo 1101435" clip-path="url(#clip-path)">
        <path id="Trazado_912383" data-name="Trazado 912383" d="M330.55,246.074V279.7a2.4,2.4,0,0,1-2.059,2.634h-31.1V246.074Z" transform="translate(-249.762 -206.664)" fill="#fc9086"/>
        <path id="Trazado_912384" data-name="Trazado 912384" d="M328.489,118.6h-31.1v8.687a5.2,5.2,0,1,1,0,7.893v11.755h12.983a5.2,5.2,0,1,1,7.192,0h12.983V120.656a2.058,2.058,0,0,0-2.059-2.059" transform="translate(-249.761 -99.603)" fill="#5e8ee1"/>
        <path id="Trazado_912385" data-name="Trazado 912385" d="M463.345,246.074V279.7a2.4,2.4,0,0,1-2.06,2.634h4.85a2.4,2.4,0,0,0,2.06-2.634V246.074Z" transform="translate(-387.407 -206.664)" fill="#f57a73"/>
        <path id="Trazado_912386" data-name="Trazado 912386" d="M466.135,118.6h-4.85a2.059,2.059,0,0,1,2.059,2.059v26.277h4.85V120.656a2.059,2.059,0,0,0-2.059-2.059" transform="translate(-387.407 -99.603)" fill="#467bff"/>
        <path id="Trazado_912387" data-name="Trazado 912387" d="M43.738,16.537a5.175,5.175,0,0,0-3.01.96V7.574H9.629A2.059,2.059,0,0,0,7.57,9.633V35.91H20.263a5.2,5.2,0,1,0,7.773,0H40.729V25.986a5.2,5.2,0,1,0,3.01-9.449" transform="translate(-6.358 -6.361)" fill="#ffec56"/>
        <path id="Trazado_912388" data-name="Trazado 912388" d="M126.226,304.972a5.182,5.182,0,0,0-2.715.764V295.523H109.677a5.2,5.2,0,1,1-8.655,0H90.352V321.8a2.06,2.06,0,0,0,2.059,2.059h31.1v-9.243a5.2,5.2,0,1,0,2.715-9.645" transform="translate(-75.882 -248.193)" fill="#aceded"/>
        <path id="Trazado_912389" data-name="Trazado 912389" d="M187.334,16.537a5.19,5.19,0,0,1,1.841.336v-9.3h-4.85v6.054a2.927,2.927,0,0,0,2.977,2.91h.033" transform="translate(-154.803 -6.361)" fill="#f9cd45"/>
        <path id="Trazado_912390" data-name="Trazado 912390" d="M100.256,184.5a1.747,1.747,0,0,0-1.686,2.186,5.21,5.21,0,0,1-2.621,5.88,5.2,5.2,0,0,0,6.311-8.065Z" transform="translate(-80.582 -154.951)" fill="#f9cd45"/>
        <path id="Trazado_912391" data-name="Trazado 912391" d="M187.334,126.773H187.3a2.927,2.927,0,0,0-2.977,2.91v6.054h4.85v-9.3a5.19,5.19,0,0,1-1.841.336" transform="translate(-154.803 -106.187)" fill="#f9cd45"/>
        <path id="Trazado_912392" data-name="Trazado 912392" d="M220.7,63.539a5.168,5.168,0,0,0-2.422.6,5.2,5.2,0,0,1,0,9.206,5.2,5.2,0,1,0,2.422-9.808" transform="translate(-183.322 -53.363)" fill="#f9cd45"/>
        <path id="Trazado_912393" data-name="Trazado 912393" d="M301.625,354.519a5.182,5.182,0,0,0-2.426.6,5.2,5.2,0,0,1,0,9.21,5.2,5.2,0,1,0,2.426-9.81" transform="translate(-251.28 -297.741)" fill="#66d6e6"/>
        <path id="Trazado_912394" data-name="Trazado 912394" d="M24.209,33.009a6.412,6.412,0,0,0-.407-2.247H34.371a1.213,1.213,0,0,0,1.213-1.213V21.543a6.417,6.417,0,1,0,0-12.324V1.212A1.213,1.213,0,0,0,34.371,0H3.272A3.276,3.276,0,0,0,0,3.272V29.549a1.213,1.213,0,0,0,1.212,1.213H11.781a6.417,6.417,0,1,0,12.428,2.247m-10.41,0a3.984,3.984,0,0,1,1.011-2.653,1.213,1.213,0,0,0-.905-2.02H2.425V3.272a.848.848,0,0,1,.847-.846H33.159v8.711a1.213,1.213,0,0,0,1.915.988,3.992,3.992,0,1,1,0,6.512,1.212,1.212,0,0,0-1.915.988v8.711H21.679a1.213,1.213,0,0,0-.906,2.02A3.991,3.991,0,1,1,13.8,33.009"/>
        <path id="Trazado_912395" data-name="Trazado 912395" d="M148.251,111.023H128.664a1.213,1.213,0,1,0,0,2.425h19.587a.847.847,0,0,1,.846.846v25.064h-9.472a6.417,6.417,0,1,0-11.789,0h-9.472v-8.454a6.417,6.417,0,1,0,0-12.071v-5.386h5.449a1.213,1.213,0,0,0,0-2.425h-6.662a1.213,1.213,0,0,0-1.212,1.212v8.688a1.213,1.213,0,0,0,2,.919,3.992,3.992,0,1,1,0,6.055,1.213,1.213,0,0,0-2,.92v10.542H103.318a1.213,1.213,0,0,0-1.008,1.888,3.992,3.992,0,1,1-6.64,0,1.213,1.213,0,0,0-1.008-1.888H83.993a1.213,1.213,0,0,0-1.212,1.213v11.334a1.213,1.213,0,0,0,2.425,0V141.784H92.8a6.417,6.417,0,1,0,12.39,0h10.753v9a1.213,1.213,0,0,0,1.846,1.034,3.992,3.992,0,1,1,0,6.813,1.213,1.213,0,0,0-1.846,1.034v8.03H86.053a.848.848,0,0,1-.847-.847V156.756a1.213,1.213,0,0,0-2.425,0v10.092a3.276,3.276,0,0,0,3.272,3.273h62.2a3.276,3.276,0,0,0,3.272-3.273V114.295a3.275,3.275,0,0,0-3.272-3.272m0,56.673H118.365v-6.232a6.417,6.417,0,1,0,0-12.478v-7.2h11.771a1.213,1.213,0,0,0,.838-2.089,3.955,3.955,0,0,1-1.234-2.883,3.992,3.992,0,1,1,6.75,2.884,1.212,1.212,0,0,0,.838,2.088H149.1v25.064a.848.848,0,0,1-.846.847" transform="translate(-69.523 -93.242)"/>
      </g>
    </g>
  </g>
</svg>
