<svg xmlns="http://www.w3.org/2000/svg" xmlns:xlink="http://www.w3.org/1999/xlink" width="86" height="86" viewBox="0 0 86 86">
  <defs>
    <clipPath id="clip-path">
      <rect id="Rectángulo_403287" data-name="Rectángulo 403287" width="86" height="86" transform="translate(0 0.281)" fill="none"/>
    </clipPath>
  </defs>
  <g id="Grupo_1101515" data-name="Grupo 1101515" transform="translate(-645.051 -5022)">
    <g id="Grupo_1101471" data-name="Grupo 1101471" transform="translate(645 5021.668)">
      <path id="Trazado_912476" data-name="Trazado 912476" d="M64,215.5l32.389,13.833L128.776,215.5V187.833L96.388,174,64,187.833Z" transform="translate(-53.197 -144.642)" fill="#ffc15a"/>
      <path id="Trazado_912477" data-name="Trazado 912477" d="M288.294,256.012v27.657L255.905,297.5l-.019-.009V269.836L288.275,256Z" transform="translate(-212.715 -212.812)" fill="#ffcb7c"/>
      <path id="Trazado_912478" data-name="Trazado 912478" d="M128.776,187.833h0L96.388,201.666,64,187.833h0L96.388,174Z" transform="translate(-53.197 -144.642)" fill="#8690a6"/>
      <path id="Trazado_912479" data-name="Trazado 912479" d="M288.388,256h0L256,269.833,265.108,279,297.5,264.491Z" transform="translate(-212.808 -212.809)" fill="#ffedd1"/>
      <path id="Trazado_912480" data-name="Trazado 912480" d="M19.108,256h0L51.5,269.833,42.388,279,10,264.491Z" transform="translate(-8.306 -212.809)" fill="#ffedd1"/>
      <path id="Trazado_912481" data-name="Trazado 912481" d="M288.388,142.666h0L256,128.833l9.109-9.165L297.5,134.175Z" transform="translate(-212.808 -99.475)" fill="#ffc15a"/>
      <path id="Trazado_912482" data-name="Trazado 912482" d="M19.362,142.666h0l32.389-13.833-9.109-9.165L10.253,134.175Z" transform="translate(-8.517 -99.475)" fill="#ffc15a"/>
      <path id="Trazado_912483" data-name="Trazado 912483" d="M188.615,40.61V10H173.1V40.61h-7.514l15.274,15.274L196.129,40.61Z" transform="translate(-137.643 -8.307)" fill="#91def5"/>
      <g id="Grupo_1101470" data-name="Grupo 1101470" transform="translate(0.051 0.05)">
        <g id="Grupo_1101469" data-name="Grupo 1101469" clip-path="url(#clip-path)">
          <path id="Trazado_912484" data-name="Trazado 912484" d="M78.048,43.185l7.785-7.257a1.687,1.687,0,0,0-.462-2.774L52.653,18.516V1.687A1.687,1.687,0,0,0,50.966,0H35.446a1.687,1.687,0,0,0-1.687,1.687V18.516L1.041,33.154a1.687,1.687,0,0,0-.461,2.774l7.764,7.237L.537,50.442A1.687,1.687,0,0,0,1,53.215L9.11,56.849v14A1.686,1.686,0,0,0,10.134,72.4L42.522,86.234a1.686,1.686,0,0,0,1.325,0l9.973-4.259a1.687,1.687,0,0,0-1.325-3.1l-7.623,3.256V61.108L51.1,67.372a1.689,1.689,0,0,0,1.886.351l20.9-9.363V69.737l-8.978,3.834a1.687,1.687,0,1,0,1.325,3.1l10-4.272a1.687,1.687,0,0,0,1.025-1.551v-14l8.112-3.633a1.687,1.687,0,0,0,.461-2.773ZM42.013,48.764a1.687,1.687,0,0,0,2.386,0L56.353,36.809l14.926,6.375-28.094,12L15.112,43.193l14.948-6.384ZM81.672,35.2,75.227,41.2l-16.3-6.963.749-.749a1.687,1.687,0,0,0-1.193-2.88H52.653v-8.4ZM37.133,32.3V3.374h5.409V19.146a1.687,1.687,0,0,0,3.374,0V3.374h3.363V32.3a1.688,1.688,0,0,0,1.687,1.687h3.442l-11.2,11.2L32,33.984h3.442A1.687,1.687,0,0,0,37.133,32.3M33.759,22.212v8.4H27.932a1.687,1.687,0,0,0-1.193,2.88l.75.749L11.186,41.2,4.741,35.2ZM11.143,45.168,40.236,57.593,33.7,64.167,4.7,51.175Zm1.34,13.192,20.9,9.363a1.689,1.689,0,0,0,1.886-.351L41.5,61.108v21.02L12.483,69.737ZM74.917,54.2h0L52.669,64.167l-6.534-6.574L75.227,45.168l6.445,6.008Z" transform="translate(-0.045 -0.044)"/>
          <path id="Trazado_912485" data-name="Trazado 912485" d="M343.628,451.109a1.69,1.69,0,1,0,1.192.495,1.7,1.7,0,0,0-1.192-.495" transform="translate(-284.304 -375.055)"/>
          <path id="Trazado_912486" data-name="Trazado 912486" d="M253.878,146.874a1.688,1.688,0,1,0-1.193-.494,1.7,1.7,0,0,0,1.193.494" transform="translate(-209.694 -119.337)"/>
        </g>
      </g>
    </g>
  </g>
</svg>
