<svg xmlns="http://www.w3.org/2000/svg" xmlns:xlink="http://www.w3.org/1999/xlink" width="85" height="85" viewBox="0 0 85 85">
  <defs>
    <clipPath id="clip-path">
      <rect id="Rectángulo_403273" data-name="Rectángulo 403273" width="85" height="85" transform="translate(0 -0.051)" fill="none"/>
    </clipPath>
  </defs>
  <g id="Grupo_1101502" data-name="Grupo 1101502" transform="translate(-1159.051 -3371)">
    <g id="Grupo_1101438" data-name="Grupo 1101438" transform="translate(1159 3371)">
      <g id="Grupo_1101437" data-name="Grupo 1101437" transform="translate(0.051 0.051)" clip-path="url(#clip-path)">
        <path id="Trazado_912396" data-name="Trazado 912396" d="M307.838,84.573V92.8l-3.4,1.152a21.479,21.479,0,0,1-2.524,6.062l1.6,3.223-5.815,5.815-3.223-1.6a21.479,21.479,0,0,1-6.062,2.524l-1.152.219-2.112-.672a19.93,19.93,0,0,0-1.7-4.142l.123-.233a16.461,16.461,0,1,0-9.23-30.366l-2.825-.96a19.329,19.329,0,0,0-.96-2.935h.014l1.248-.96a21.479,21.479,0,0,1,6.062-2.524l1.152-3.4h8.229l1.152,3.4a21.479,21.479,0,0,1,6.062,2.524l3.223-1.6,5.815,5.815-1.6,3.223a21.479,21.479,0,0,1,2.524,6.062Z" transform="translate(-224.218 -53.071)" fill="#fcd770"/>
        <path id="Trazado_912397" data-name="Trazado 912397" d="M302,204.344l-.247.261-2.236-2.236-3.237,1.673q-.638-.35-1.317-.658l.178-.411V192H311.6v12.344Z" transform="translate(-244.434 -159.126)" fill="#e6e9ed"/>
        <path id="Trazado_912398" data-name="Trazado 912398" d="M312.458,160v5.486H296V160Z" transform="translate(-245.296 -132.612)" fill="#ff826e"/>
        <path id="Trazado_912399" data-name="Trazado 912399" d="M44.963,43.674a16.5,16.5,0,1,0-12.275,5.472,16.47,16.47,0,0,0,12.275-5.472m-17.542,10.3a21.479,21.479,0,0,1-6.062-2.524l-3.223,1.6L12.32,47.24l1.6-3.223A21.479,21.479,0,0,1,11.4,37.954L8,36.8V28.573l3.4-1.152a21.479,21.479,0,0,1,2.524-6.062l-1.6-3.223,5.815-5.815,3.223,1.6A21.479,21.479,0,0,1,27.421,11.4L28.573,8H36.8l1.152,3.4a21.479,21.479,0,0,1,6.062,2.524l3.223-1.6,5.815,5.815-1.6,3.223a20.8,20.8,0,0,1,1.564,3.127,19.329,19.329,0,0,1,.96,2.935l2.825.96.576.192V36.8l-3.4,1.152a21.479,21.479,0,0,1-2.524,6.062L52.644,46.4H45.032l-1.111,3.484a19.927,19.927,0,0,0-4.142,1.7l-3.237-1.673-5.829,5.829.85,1.632h-2.99Z" transform="translate(-6.672 -6.672)" fill="#b4dd7f"/>
        <path id="Trazado_912400" data-name="Trazado 912400" d="M120.458,152v10.972h-5.486v-5.486h-5.486v5.486H104V152Z" transform="translate(-86.213 -125.984)" fill="#e6e9ed"/>
        <path id="Trazado_912401" data-name="Trazado 912401" d="M141.486,184v5.486H136V184Z" transform="translate(-112.727 -152.498)" fill="#aab2bd"/>
        <path id="Trazado_912402" data-name="Trazado 912402" d="M109.945,98.972H88L98.972,88Z" transform="translate(-72.956 -72.956)" fill="#ff826e"/>
        <path id="Trazado_912403" data-name="Trazado 912403" d="M163.889,249.83v8.229l-3.484,1.111a19.929,19.929,0,0,1-1.7,4.142l1.673,3.237-5.829,5.815-3.237-1.66a19.928,19.928,0,0,1-4.142,1.7l-1.111,3.484H137.83l-1.111-3.484a19.928,19.928,0,0,1-4.142-1.7l-3.237,1.66-5.829-5.815,1.673-3.237a19.928,19.928,0,0,1-1.7-4.142L120,258.059V249.83l3.484-1.111a19.928,19.928,0,0,1,1.7-4.142l-.823-1.6-.85-1.632,5.829-5.829,3.237,1.673a19.926,19.926,0,0,1,4.142-1.7L137.83,232h8.229l1.111,3.484A19.866,19.866,0,0,1,150,236.526q.679.309,1.317.658l3.237-1.673,2.236,2.236,3.593,3.593-1.55,3-.123.233a19.929,19.929,0,0,1,1.7,4.142l2.112.672Z" transform="translate(-99.47 -192.268)" fill="#ffc729"/>
        <path id="Trazado_912404" data-name="Trazado 912404" d="M181.715,280A13.715,13.715,0,1,1,168,293.715,13.715,13.715,0,0,1,181.715,280" transform="translate(-139.241 -232.039)" fill="#fcd770"/>
        <path id="Trazado_912405" data-name="Trazado 912405" d="M175.087,272a15.087,15.087,0,1,0,15.087,15.087A15.1,15.1,0,0,0,175.087,272m0,27.431a12.344,12.344,0,1,1,12.344-12.344,12.359,12.359,0,0,1-12.344,12.344" transform="translate(-132.612 -225.411)"/>
        <path id="Trazado_912406" data-name="Trazado 912406" d="M220.115,309.486h2.743a1.374,1.374,0,0,1,1.372,1.372h2.743a4.12,4.12,0,0,0-4.115-4.115V304h-2.743v2.743a4.115,4.115,0,0,0,0,8.229h2.743a1.372,1.372,0,0,1,0,2.743h-2.743a1.374,1.374,0,0,1-1.372-1.372H216a4.12,4.12,0,0,0,4.115,4.115V323.2h2.743v-2.743a4.115,4.115,0,1,0,0-8.229h-2.743a1.372,1.372,0,0,1,0-2.743" transform="translate(-179.012 -251.925)"/>
        <path id="Trazado_912407" data-name="Trazado 912407" d="M81.4,29.335A23.162,23.162,0,0,0,79.3,24.28l1.706-3.441L73.8,13.628l-3.441,1.706A23.135,23.135,0,0,0,65.3,13.239L64.076,9.6h-10.2l-1.226,3.639a23.107,23.107,0,0,0-5.711,2.478l-.036.027c-.176-.354-.324-.72-.517-1.066l1.706-3.441L40.88,4.027,37.439,5.733a23.135,23.135,0,0,0-5.054-2.094L31.159,0h-10.2L19.732,3.639a23.162,23.162,0,0,0-5.054,2.094l-3.44-1.706L4.027,11.238,5.733,14.68a23.135,23.135,0,0,0-2.094,5.054L0,20.96v10.2l3.639,1.226A23.162,23.162,0,0,0,5.733,37.44L4.027,40.881l7.212,7.212,3.441-1.706a23.134,23.134,0,0,0,5.054,2.094l1.226,3.637H24.1l.117.226a20.484,20.484,0,0,0-1.26,3.057L19.2,56.6v10.23l3.75,1.2a20.509,20.509,0,0,0,1.26,3.057l-1.8,3.495,7.234,7.234,3.5-1.8a20.485,20.485,0,0,0,3.057,1.26l1.2,3.753h10.23l1.2-3.75a20.484,20.484,0,0,0,3.057-1.26l3.5,1.8,7.234-7.234-1.8-3.495a20.51,20.51,0,0,0,1.26-3.057l3.751-1.206V57.916a23.068,23.068,0,0,0,4.522-1.93L73.8,57.692l7.212-7.212L79.3,47.04A23.134,23.134,0,0,0,81.4,41.986l3.639-1.226v-10.2ZM21.126,46.011a20.355,20.355,0,0,1-5.684-2.356l-.645-.391-3.012,1.495L7.36,40.333l1.495-3.012-.391-.645a20.437,20.437,0,0,1-2.356-5.684l-.18-.731L2.743,29.189V22.931l3.185-1.073.18-.731a20.355,20.355,0,0,1,2.356-5.684l.391-.645L7.36,11.787l4.426-4.426L14.8,8.856l.645-.391a20.437,20.437,0,0,1,5.684-2.356l.731-.18,1.073-3.186h6.258L30.26,5.928l.731.18a20.355,20.355,0,0,1,5.684,2.356l.645.391L40.332,7.36l4.426,4.426L43.262,14.8l.391.645a20.437,20.437,0,0,1,2.356,5.684l.18.731,3.186,1.073v6.26l-3.185,1.073-.18.731a20.355,20.355,0,0,1-2.356,5.684l-.391.645L43.8,38.4H38.9a17.809,17.809,0,1,0-12.836,5.486c.468,0,.926-.034,1.384-.07L22.667,48.6l-.811-2.4ZM52.119,22.257a15.068,15.068,0,1,1,9.668,28.215l.835-1.624-2.216-2.216h8.172V26.059H52.119ZM46.864,38.4l-.479-.964a23.134,23.134,0,0,0,2.094-5.054l.9-.3V42.35c-.181-.064-.357-.139-.54-.2l-1.2-3.75Zm18.97-6.858H52.119V28.8H65.834ZM52.119,34.289H65.834v9.6H57.662l-2.274-2.274L52.119,43.3ZM37.689,35.66H35.66V27.431h1.372A1.371,1.371,0,0,0,38,25.09L27.029,14.117a1.37,1.37,0,0,0-1.939,0L14.117,25.09a1.371,1.371,0,0,0,.97,2.341h1.372V35.66H14.43a15.087,15.087,0,1,1,23.259,0m-10.258,0H24.688V32.917h2.743Zm-5.486-5.486V35.66H19.2V27.431H32.917V35.66H30.174V30.174ZM18.4,24.688l7.661-7.661,7.661,7.661ZM25.548,38.4h9.158a15,15,0,0,1-17.3,0Zm11.263,1.846-.61,1.9a20.483,20.483,0,0,0-3.057,1.26l-1.115-.573a17.769,17.769,0,0,0,4.783-2.591m26.28,24.585L59.86,65.87l-.2.709a17.657,17.657,0,0,1-1.581,3.833l-.361.643,1.55,3.011-4.4,4.4-3.011-1.548-.642.359a17.712,17.712,0,0,1-3.835,1.581l-.709.2-1.034,3.23H39.4l-1.036-3.231-.709-.2a17.782,17.782,0,0,1-3.835-1.581l-.642-.359-3.011,1.548-4.4-4.4,1.55-3.011-.361-.643a17.685,17.685,0,0,1-1.581-3.833l-.2-.709-3.231-1.034V58.606l3.231-1.036.2-.709a17.781,17.781,0,0,1,1.581-3.835l.359-.642-1.548-3.011,4.4-4.4,3.011,1.548.642-.359a17.713,17.713,0,0,1,3.835-1.581l.709-.2L39.4,41.146h6.228l1.036,3.231.709.2a17.782,17.782,0,0,1,3.835,1.581l.642.359,3.011-1.548,4.4,4.4-1.548,3.011.359.642a17.712,17.712,0,0,1,1.581,3.835l.2.709L63.091,58.6Zm19.2-26.044-3.185,1.073-.18.731a20.4,20.4,0,0,1-2.356,5.684l-.391.645,1.495,3.012L73.25,54.36l-3.012-1.495-.645.391A20.4,20.4,0,0,1,63.98,55.6l-.806.155-1.089-.35a20.524,20.524,0,0,0-.8-2.06A17.83,17.83,0,1,0,50.02,20.252l-1.542-.52c-.133-.47-.317-.922-.479-1.381l.424-.326a20.4,20.4,0,0,1,5.619-2.317l.731-.18,1.073-3.185H62.1l1.073,3.185.731.18a20.355,20.355,0,0,1,5.684,2.356l.645.391,3.012-1.495,4.426,4.426L76.179,24.4l.391.645a20.437,20.437,0,0,1,2.356,5.684l.18.731,3.186,1.073Z" transform="translate(-0.043 -0.043)"/>
      </g>
    </g>
  </g>
</svg>
