<svg xmlns="http://www.w3.org/2000/svg" xmlns:xlink="http://www.w3.org/1999/xlink" width="78.102" height="69.714" viewBox="0 0 78.102 69.714">
  <defs>
    <clipPath id="clip-path">
      <rect id="Rectángulo_403296" data-name="Rectángulo 403296" width="78.102" height="69.714" fill="none"/>
    </clipPath>
  </defs>
  <g id="Grupo_1101516" data-name="Grupo 1101516" transform="translate(-909 -5038.312)">
    <g id="Grupo_1101474" data-name="Grupo 1101474" transform="translate(909 5038.312)">
      <rect id="Rectángulo_403288" data-name="Rectángulo 403288" width="13.227" height="10.381" transform="translate(32.437 53.994)" fill="#647fa0"/>
      <rect id="Rectángulo_403289" data-name="Rectángulo 403289" width="4.783" height="10.381" transform="translate(32.437 53.994)" fill="#5e6f90"/>
      <g id="Grupo_1101473" data-name="Grupo 1101473">
        <g id="Grupo_1101472" data-name="Grupo 1101472" clip-path="url(#clip-path)">
          <path id="Trazado_912487" data-name="Trazado 912487" d="M187.068,426.212H160.525A1.525,1.525,0,0,1,159,424.687v-1.143a1.525,1.525,0,0,1,1.525-1.525h26.542a1.525,1.525,0,0,1,1.525,1.525v1.143a1.525,1.525,0,0,1-1.525,1.525" transform="translate(-134.746 -357.642)" fill="#60b7ff"/>
          <path id="Trazado_912488" data-name="Trazado 912488" d="M166.627,424.687v-1.143a1.525,1.525,0,0,1,1.525-1.525h-7.627A1.525,1.525,0,0,0,159,423.543v1.143a1.525,1.525,0,0,0,1.525,1.525h7.627a1.525,1.525,0,0,1-1.525-1.525" transform="translate(-134.746 -357.642)" fill="#60b7ff"/>
          <path id="Trazado_912489" data-name="Trazado 912489" d="M7.5,308.794a3.051,3.051,0,0,0,3.051,3.051H80.263a3.051,3.051,0,0,0,3.051-3.051v-4.53H7.5Z" transform="translate(-6.356 -257.851)" fill="#60b7ff"/>
          <path id="Trazado_912490" data-name="Trazado 912490" d="M15.2,308.794v-4.53H7.5v4.53a3.051,3.051,0,0,0,3.051,3.051h7.7a3.051,3.051,0,0,1-3.051-3.051" transform="translate(-6.356 -257.851)" fill="#60b7ff"/>
          <path id="Trazado_912491" data-name="Trazado 912491" d="M83.313,52.769H7.5V9.788A2.288,2.288,0,0,1,9.788,7.5H81.025a2.288,2.288,0,0,1,2.288,2.288Z" transform="translate(-6.356 -6.356)" fill="#647fa0"/>
          <path id="Trazado_912492" data-name="Trazado 912492" d="M12.3,48.736a.763.763,0,0,1-.763-.763V12.3a.763.763,0,0,1,.763-.763H15.2V9.788A2.288,2.288,0,0,1,17.492,7.5h-7.7A2.288,2.288,0,0,0,7.5,9.788V52.769h7.7V48.736Z" transform="translate(-6.356 -6.356)" fill="#5e6f90"/>
          <path id="Trazado_912493" data-name="Trazado 912493" d="M33.936,70.377V34.7a.763.763,0,0,1,.763-.763h66.223a.763.763,0,0,1,.763.763V70.377a.763.763,0,0,1-.763.763H34.7a.763.763,0,0,1-.763-.763" transform="translate(-28.759 -28.759)" fill="#fff3de"/>
          <path id="Trazado_912494" data-name="Trazado 912494" d="M40.333,70.377V34.7a.763.763,0,0,1,.763-.763H34.7a.763.763,0,0,0-.763.763V70.377a.763.763,0,0,0,.763.763h6.4a.763.763,0,0,1-.763-.763" transform="translate(-28.759 -28.759)" fill="#ffe5c2"/>
          <path id="Trazado_912495" data-name="Trazado 912495" d="M116.113,77.168V74.5H93.033v2.669H90.366v19.94h2.667v2.58h23.08v-2.58h2.549V77.168Z" transform="translate(-76.581 -63.135)" fill="#fff"/>
          <path id="Trazado_912496" data-name="Trazado 912496" d="M93.033,77.168H90.366v19.94h2.667v2.58h2.083V74.5H93.033Z" transform="translate(-76.581 -63.135)" fill="#60b7ff"/>
          <rect id="Rectángulo_403290" data-name="Rectángulo 403290" width="16.918" height="14.199" transform="translate(19.474 16.86)" fill="#46cc8d"/>
          <rect id="Rectángulo_403291" data-name="Rectángulo 403291" width="4.781" height="14.199" transform="translate(19.474 16.86)" fill="#08b865"/>
          <rect id="Rectángulo_403292" data-name="Rectángulo 403292" width="4.239" height="4.239" transform="translate(39.532 33.973)" fill="#0593fc"/>
          <rect id="Rectángulo_403293" data-name="Rectángulo 403293" width="4.239" height="4.239" transform="translate(12.212 33.973)" fill="#0593fc"/>
          <rect id="Rectángulo_403294" data-name="Rectángulo 403294" width="4.239" height="4.239" transform="translate(39.532 9.794)" fill="#0593fc"/>
          <rect id="Rectángulo_403295" data-name="Rectángulo 403295" width="4.239" height="4.239" transform="translate(12.212 9.794)" fill="#0593fc"/>
          <path id="Trazado_912497" data-name="Trazado 912497" d="M344.74,73.387H330.706a.763.763,0,0,1-.763-.763V69.269a.763.763,0,0,1,.763-.763H344.74a.763.763,0,0,1,.763.763v3.356a.763.763,0,0,1-.763.763" transform="translate(-279.613 -58.056)" fill="#fe646f"/>
          <path id="Trazado_912498" data-name="Trazado 912498" d="M336.053,72.625V69.269a.763.763,0,0,1,.763-.763h-6.11a.763.763,0,0,0-.763.763v3.356a.763.763,0,0,0,.763.763h6.11a.763.763,0,0,1-.763-.763" transform="translate(-279.613 -58.056)" fill="#fd4755"/>
          <path id="Trazado_912499" data-name="Trazado 912499" d="M237.136,323.294a1.144,1.144,0,0,0,0-2.288h-5.492a1.144,1.144,0,0,0,0,2.288Z" transform="translate(-195.339 -272.039)"/>
          <path id="Trazado_912500" data-name="Trazado 912500" d="M74.669,0H3.432A3.436,3.436,0,0,0,0,3.432V50.944a4.2,4.2,0,0,0,4.195,4.195H16.78a1.144,1.144,0,1,0,0-2.288H4.195a1.909,1.909,0,0,1-1.907-1.907V47.557H75.813v3.386a1.909,1.909,0,0,1-1.907,1.907H22.119a1.144,1.144,0,0,0,0,2.288h9.175v8.093H25.78A2.673,2.673,0,0,0,23.11,65.9v1.143a2.673,2.673,0,0,0,2.669,2.669H52.322a2.673,2.673,0,0,0,2.669-2.669V65.9a2.673,2.673,0,0,0-2.669-2.669H46.808V55.138h27.1A4.2,4.2,0,0,0,78.1,50.944V3.432A3.436,3.436,0,0,0,74.669,0M33.581,55.138H44.52v8.093H33.581ZM52.322,65.52a.382.382,0,0,1,.381.381v1.143a.382.382,0,0,1-.381.381H25.78a.382.382,0,0,1-.381-.381V65.9a.382.382,0,0,1,.381-.381ZM75.813,45.269H2.288V3.432A1.145,1.145,0,0,1,3.432,2.288H74.669a1.145,1.145,0,0,1,1.144,1.144Z"/>
          <path id="Trazado_912501" data-name="Trazado 912501" d="M94.566,26.436H86.929a1.144,1.144,0,1,0,0,2.288h7.256V63.64H28.724V28.724H81.59a1.144,1.144,0,1,0,0-2.288H28.343a1.909,1.909,0,0,0-1.907,1.907V64.021a1.909,1.909,0,0,0,1.907,1.907H94.566a1.909,1.909,0,0,0,1.907-1.907V28.343a1.909,1.909,0,0,0-1.907-1.907" transform="translate(-22.403 -22.403)"/>
          <path id="Trazado_912502" data-name="Trazado 912502" d="M323.587,230.006a1.144,1.144,0,1,0,0,2.288h8.487a1.144,1.144,0,0,0,0-2.288Z" transform="translate(-273.257 -194.92)"/>
          <path id="Trazado_912503" data-name="Trazado 912503" d="M340.29,205.4a1.144,1.144,0,0,0-1.144-1.144H323.587a1.144,1.144,0,1,0,0,2.288h15.559a1.144,1.144,0,0,0,1.144-1.144" transform="translate(-273.257 -173.098)"/>
          <path id="Trazado_912504" data-name="Trazado 912504" d="M339.146,178.506H323.587a1.144,1.144,0,1,0,0,2.288h15.559a1.144,1.144,0,1,0,0-2.288" transform="translate(-273.257 -151.276)"/>
          <path id="Trazado_912505" data-name="Trazado 912505" d="M339.146,152.756H323.587a1.144,1.144,0,1,0,0,2.288h15.559a1.144,1.144,0,1,0,0-2.288" transform="translate(-273.257 -129.454)"/>
          <path id="Trazado_912506" data-name="Trazado 912506" d="M339.146,127.006H323.587a1.144,1.144,0,1,0,0,2.288h15.559a1.144,1.144,0,1,0,0-2.288" transform="translate(-273.257 -107.632)"/>
          <path id="Trazado_912507" data-name="Trazado 912507" d="M103.569,70.481a1.144,1.144,0,0,0,1.144-1.144v-6.1h.546a1.144,1.144,0,0,0,1.144-1.144V57.85a1.144,1.144,0,0,0-1.144-1.144h-4.239a1.144,1.144,0,0,0-1.144,1.144v.426H79.084V57.85a1.144,1.144,0,0,0-1.144-1.144H73.7a1.144,1.144,0,0,0-1.144,1.144v4.239A1.144,1.144,0,0,0,73.7,63.233h.428V80.885H73.7a1.144,1.144,0,0,0-1.144,1.144v4.239A1.144,1.144,0,0,0,73.7,87.413H77.94a1.144,1.144,0,0,0,1.144-1.144v-.515H99.877v.515a1.144,1.144,0,0,0,1.144,1.144h4.239a1.144,1.144,0,0,0,1.144-1.144V82.029a1.144,1.144,0,0,0-1.144-1.144h-.546v-6.21a1.144,1.144,0,1,0-2.288,0v6.21h-1.4a1.144,1.144,0,0,0-1.144,1.144v1.436H79.084V82.029a1.144,1.144,0,0,0-1.144-1.144H76.418V63.233H77.94a1.144,1.144,0,0,0,1.144-1.144V60.564H99.877v1.525a1.144,1.144,0,0,0,1.144,1.144h1.4v6.1A1.144,1.144,0,0,0,103.569,70.481Zm-1.4,12.693h1.951v1.951h-1.951ZM76.8,85.125H74.845V83.173H76.8Zm0-24.179H74.845V58.994H76.8Zm25.368-1.951h1.951v1.951h-1.951Z" transform="translate(-61.489 -48.056)"/>
          <path id="Trazado_912508" data-name="Trazado 912508" d="M340.29,62.913a1.909,1.909,0,0,0-1.907-1.907H324.35a1.909,1.909,0,0,0-1.907,1.907v3.356a1.909,1.909,0,0,0,1.907,1.907h14.034a1.909,1.909,0,0,0,1.907-1.907ZM338,65.887H324.731V63.294H338Z" transform="translate(-273.257 -51.7)"/>
          <path id="Trazado_912509" data-name="Trazado 912509" d="M121.305,103.024a1.144,1.144,0,0,0-1.144,1.144v14.2a1.144,1.144,0,0,0,1.144,1.144h16.918a1.144,1.144,0,0,0,1.144-1.144v-14.2a1.144,1.144,0,0,0-1.144-1.144Zm1.144,2.288H135.08l-12.631,10.6Zm14.63,11.911H124.448l12.631-10.6Z" transform="translate(-101.831 -87.309)"/>
        </g>
      </g>
    </g>
  </g>
</svg>
