<svg xmlns="http://www.w3.org/2000/svg" xmlns:xlink="http://www.w3.org/1999/xlink" width="75.898" height="75.73" viewBox="0 0 75.898 75.73">
  <defs>
    <clipPath id="clip-path">
      <rect id="Rectángulo_403274" data-name="Rectángulo 403274" width="75.898" height="75.73" fill="none"/>
    </clipPath>
  </defs>
  <g id="Grupo_1101503" data-name="Grupo 1101503" transform="translate(-673.638 -3679)">
    <g id="Grupo_1101440" data-name="Grupo 1101440" transform="translate(673.638 3679)">
      <g id="Grupo_1101439" data-name="Grupo 1101439" clip-path="url(#clip-path)">
        <path id="Trazado_912408" data-name="Trazado 912408" d="M176.632,36.321a.962.962,0,0,0,1.4-1.014l-1.507-8.786a.962.962,0,0,1,.277-.851l6.383-6.222a.962.962,0,0,0-.533-1.64l-8.822-1.282A.962.962,0,0,1,173.1,16l-3.945-7.994a.962.962,0,0,0-1.725,0L163.487,16a.962.962,0,0,1-.724.526l-8.822,1.282a.962.962,0,0,0-.533,1.64l6.383,6.222a.962.962,0,0,1,.277.851l-1.507,8.786a.962.962,0,0,0,1.4,1.014l8.338-4.2Z" transform="translate(-130.419 -6.362)" fill="#fbe88c"/>
        <path id="Trazado_912409" data-name="Trazado 912409" d="M178.027,35.305l-.291-1.7a.947.947,0,0,1-.555-.105l-8.338-4.2-3.675,1.853a1.207,1.207,0,0,1-1.734-1.282l.28-1.634a3.1,3.1,0,0,0-.891-2.742l-3.759-3.664a1.649,1.649,0,0,1,.914-2.813l5.217-.758a3.056,3.056,0,0,0,2.3-1.671l2.949-5.974L169.157,8a.962.962,0,0,0-1.725,0L163.486,16a.962.962,0,0,1-.724.526l-8.822,1.282a.962.962,0,0,0-.533,1.64l6.383,6.222a.962.962,0,0,1,.277.851l-1.507,8.786a.962.962,0,0,0,1.4,1.014l8.338-4.2,8.338,4.2A.962.962,0,0,0,178.027,35.305Z" transform="translate(-130.419 -6.361)" fill="#fbe372"/>
        <path id="Trazado_912410" data-name="Trazado 912410" d="M19.173,88.555l2.877,5.83a.7.7,0,0,0,.528.384l6.434.935a.7.7,0,0,1,.389,1.2l-4.656,4.538a.7.7,0,0,0-.2.621l1.1,6.408a.7.7,0,0,1-1.018.739l-5.755-3.025a.7.7,0,0,0-.653,0l-5.755,3.025a.7.7,0,0,1-1.018-.739l1.1-6.408a.7.7,0,0,0-.2-.621L7.688,96.9a.7.7,0,0,1,.389-1.2l6.434-.935a.7.7,0,0,0,.528-.384l2.877-5.83A.7.7,0,0,1,19.173,88.555Z" transform="translate(-6.367 -75.095)" fill="#fbe88c"/>
        <path id="Trazado_912411" data-name="Trazado 912411" d="M25.643,108.468,25.4,107.08a.689.689,0,0,1-.468-.066l-5.755-3.025a.7.7,0,0,0-.653,0L15.7,105.478a.667.667,0,0,1-.968-.7l.392-2.288a1.328,1.328,0,0,0-.382-1.176L11.424,98.08a1.012,1.012,0,0,1,.561-1.726L16.5,95.7a1.455,1.455,0,0,0,1.1-.8l2.354-4.77-.777-1.575a.7.7,0,0,0-1.258,0l-2.877,5.83a.7.7,0,0,1-.528.384L8.075,95.7a.7.7,0,0,0-.389,1.2l4.656,4.538a.7.7,0,0,1,.2.621l-1.1,6.408a.7.7,0,0,0,1.018.739l5.755-3.025a.7.7,0,0,1,.653,0l5.755,3.025A.7.7,0,0,0,25.643,108.468Z" transform="translate(-6.366 -75.095)" fill="#fbe372"/>
        <path id="Trazado_912412" data-name="Trazado 912412" d="M365.618,88.555l-2.877,5.83a.7.7,0,0,1-.528.384l-6.434.935a.7.7,0,0,0-.389,1.2l4.656,4.538a.7.7,0,0,1,.2.621l-1.1,6.408a.7.7,0,0,0,1.018.739l5.755-3.025a.7.7,0,0,1,.653,0l5.755,3.025a.7.7,0,0,0,1.018-.739l-1.1-6.408a.7.7,0,0,1,.2-.621L377.1,96.9a.7.7,0,0,0-.389-1.2l-6.434-.935a.7.7,0,0,1-.528-.384l-2.878-5.83a.7.7,0,0,0-1.258,0" transform="translate(-302.526 -75.095)" fill="#fbe88c"/>
        <path id="Trazado_912413" data-name="Trazado 912413" d="M373.347,108.468l-.154-.9-.01,0-6.389-3.147a.82.82,0,0,0-.725,0l-1.84.906a.976.976,0,0,1-1.395-1.035l.264-1.6a.7.7,0,0,0-.189-.6l-4.358-4.417a.69.69,0,0,1,.364-1.164l6.022-.91a.659.659,0,0,0,.494-.373l2.321-4.891-.878-1.779a.7.7,0,0,0-1.258,0l-2.877,5.83a.7.7,0,0,1-.528.384l-6.434.935a.7.7,0,0,0-.389,1.2l4.656,4.538a.7.7,0,0,1,.2.621l-1.1,6.408a.7.7,0,0,0,1.018.739l5.755-3.025a.7.7,0,0,1,.653,0l5.755,3.025A.7.7,0,0,0,373.347,108.468Z" transform="translate(-302.528 -75.095)" fill="#fbe372"/>
        <path id="Trazado_912414" data-name="Trazado 912414" d="M188.056,169.049a2.98,2.98,0,1,1,5.961,0v18.686a13.215,13.215,0,0,1-26.187,2.528l-.667-3.43a1.879,1.879,0,0,0-.238-.614L159.392,173.7a3.261,3.261,0,0,1,5.2-3.885l5.023,5.481a.32.32,0,0,0,.557-.216v-23.79a2.981,2.981,0,0,1,5.962,0v13.993a2.98,2.98,0,0,1,5.961,0v1.667a2.981,2.981,0,0,1,5.962,0Z" transform="translate(-135.366 -126.328)" fill="#ffe6c6"/>
        <path id="Trazado_912415" data-name="Trazado 912415" d="M183.864,315.762a13.215,13.215,0,0,1-12.971-10.687l-.668-3.43a1.874,1.874,0,0,0-.238-.614l-7.533-12.515a3.255,3.255,0,0,1-.467-1.682,3.3,3.3,0,0,1,.052-.574,3.262,3.262,0,0,0-2.648,4.94l7.533,12.515a1.879,1.879,0,0,1,.238.614l.667,3.43a13.216,13.216,0,0,0,22.317,6.817c.276-.276.538-.562.789-.862A13.15,13.15,0,0,1,183.864,315.762Z" transform="translate(-135.366 -243.824)" fill="#f8d3aa"/>
        <path id="Trazado_912416" data-name="Trazado 912416" d="M238.639,149.187a3.015,3.015,0,0,1,.619-.473,2.981,2.981,0,0,0-4.473,2.581v23.338a2.981,2.981,0,0,0,2.981-2.981V151.294A2.972,2.972,0,0,1,238.639,149.187Z" transform="translate(-199.981 -126.328)" fill="#f8d3aa"/>
        <path id="Trazado_912417" data-name="Trazado 912417" d="M19.305,95.719l4.5-4.389a1.809,1.809,0,0,0-1-3.085l-6.223-.9L13.8,81.7a1.8,1.8,0,0,0-1.622-1.008h0A1.8,1.8,0,0,0,10.556,81.7L7.773,87.34l-6.223.9a1.809,1.809,0,0,0-1,3.085l4.5,4.389-1.063,6.2a1.806,1.806,0,0,0,2.624,1.907l5.566-2.926,5.566,2.926a1.809,1.809,0,0,0,2.624-1.907Zm-2.219.164.96,5.6L13.02,98.837a1.809,1.809,0,0,0-1.683,0L6.31,101.48l.96-5.6a1.809,1.809,0,0,0-.52-1.6L2.683,90.318,8.3,89.5a1.81,1.81,0,0,0,1.362-.989l2.513-5.092,2.513,5.092a1.808,1.808,0,0,0,1.362.99l5.62.817-4.066,3.964a1.807,1.807,0,0,0-.52,1.6" transform="translate(0 -68.731)"/>
        <path id="Trazado_912418" data-name="Trazado 912418" d="M371.968,89.475a1.8,1.8,0,0,0-1.46-1.231l-6.223-.9L361.5,81.7a1.809,1.809,0,0,0-3.244,0l-2.783,5.639-6.223.9a1.809,1.809,0,0,0-1,3.085l4.5,4.389-1.063,6.2a1.809,1.809,0,0,0,2.625,1.907l5.566-2.926,5.566,2.926a1.809,1.809,0,0,0,2.624-1.907l-1.063-6.2,4.5-4.389a1.8,1.8,0,0,0,.458-1.854m-6.659,4.806a1.809,1.809,0,0,0-.52,1.6l.96,5.6-5.026-2.643a1.809,1.809,0,0,0-1.683,0l-5.026,2.643.96-5.6a1.808,1.808,0,0,0-.52-1.6l-4.066-3.964,5.62-.816a1.809,1.809,0,0,0,1.362-.99l2.513-5.092,2.513,5.093a1.809,1.809,0,0,0,1.362.989l5.62.817Z" transform="translate(-296.159 -68.731)"/>
        <path id="Trazado_912419" data-name="Trazado 912419" d="M185.936,277.028a1.108,1.108,0,0,0-1.54.285,12.108,12.108,0,0,1-21.867-4.537l-.668-3.428a3,3,0,0,0-.375-.975l-7.534-12.515a2.154,2.154,0,0,1,3.433-2.566l5.024,5.482a1.428,1.428,0,0,0,2.48-.965V246.543a1.107,1.107,0,1,0-2.215,0v9.241l-3.656-3.99a4.369,4.369,0,0,0-6.964,5.2l7.534,12.515a.785.785,0,0,1,.1.256l.668,3.429a14.323,14.323,0,0,0,25.865,5.37,1.108,1.108,0,0,0-.284-1.54" transform="translate(-128.978 -209.053)"/>
        <path id="Trazado_912420" data-name="Trazado 912420" d="M179.725,38.632a4.063,4.063,0,0,0-2.12.594,4.085,4.085,0,0,0-6.1-2,4.083,4.083,0,0,0-5.573-1.9v-6.4l3.825,2.011a2.069,2.069,0,0,0,3-2.181l-1.494-8.71.968-.943a1.107,1.107,0,1,0-1.546-1.586l-1.023,1a2.068,2.068,0,0,0-.595,1.831l1.457,8.495-4.594-2.415v-1.46a4.088,4.088,0,1,0-8.176,0V26.52l-4.413,2.32,1.457-8.495a2.069,2.069,0,0,0-.595-1.831L148.029,12.5l8.529-1.239a2.069,2.069,0,0,0,1.558-1.132L161.931,2.4l3.815,7.729a2.069,2.069,0,0,0,1.558,1.131l8.529,1.239-1.7,1.654a1.107,1.107,0,0,0,1.546,1.586l1.909-1.861a2.069,2.069,0,0,0-1.146-3.529L167.7,9.078l-3.911-7.925a2.069,2.069,0,0,0-3.711,0l-3.911,7.925-8.746,1.271a2.069,2.069,0,0,0-1.147,3.529l6.328,6.169-1.494,8.711a2.066,2.066,0,0,0,3,2.181l3.644-1.916v3.731a1.107,1.107,0,1,0,2.215,0V24.965a1.873,1.873,0,1,1,3.747,0V43.5a1.107,1.107,0,0,0,2.215,0V38.958a1.873,1.873,0,0,1,3.747,0v6.21a1.107,1.107,0,1,0,2.215,0V40.625a1.873,1.873,0,0,1,3.747,0v6.638a1.107,1.107,0,1,0,2.215,0V42.72a1.873,1.873,0,0,1,3.747,0V61.406a12.151,12.151,0,0,1-.353,2.909,1.107,1.107,0,1,0,2.15.53,14.386,14.386,0,0,0,.417-3.439V42.72A4.093,4.093,0,0,0,179.725,38.632Z" transform="translate(-124.055 0.001)"/>
      </g>
    </g>
  </g>
</svg>
