<svg xmlns="http://www.w3.org/2000/svg" xmlns:xlink="http://www.w3.org/1999/xlink" width="76.526" height="70.125" viewBox="0 0 76.526 70.125">
  <defs>
    <clipPath id="clip-path">
      <rect id="Rectángulo_403302" data-name="Rectángulo 403302" width="76.526" height="70.126" fill="none"/>
    </clipPath>
  </defs>
  <g id="Grupo_1101517" data-name="Grupo 1101517" transform="translate(-1172.288 -5037.9)">
    <g id="Grupo_1101476" data-name="Grupo 1101476" transform="translate(1172.288 5037.9)">
      <g id="Grupo_1101475" data-name="Grupo 1101475" clip-path="url(#clip-path)">
        <path id="Trazado_912510" data-name="Trazado 912510" d="M10.591,368.468a6.633,6.633,0,0,0,6.633,6.633h0a6.633,6.633,0,0,0-6.633,6.633v0A6.633,6.633,0,0,0,3.958,375.1h0a6.633,6.633,0,0,0,6.633-6.633v0Z" transform="translate(-2.371 -312.77)" fill="#fde31d"/>
        <path id="Trazado_912511" data-name="Trazado 912511" d="M100.284,27.712V63.643a23.378,23.378,0,0,0,46.756,0V27.712a176.653,176.653,0,0,1-23.378,1.554,176.646,176.646,0,0,1-23.378-1.554" transform="translate(-85.399 -23.599)" fill="#f05475"/>
        <path id="Trazado_912512" data-name="Trazado 912512" d="M127,86h0a23.378,23.378,0,0,1-23.378-23.378v-34.5q-1.648-.188-3.335-.412V63.642A23.39,23.39,0,0,0,132.152,85.43,23.454,23.454,0,0,1,127,86" transform="translate(-85.399 -23.598)" fill="#e21743"/>
        <path id="Trazado_912513" data-name="Trazado 912513" d="M310.986,254.947A15.585,15.585,0,1,1,295.4,270.532a15.585,15.585,0,0,1,15.585-15.585" transform="translate(-251.554 -217.105)" fill="#8ad8f6"/>
        <path id="Trazado_912514" data-name="Trazado 912514" d="M313.383,303.41a15.585,15.585,0,0,1-12.153-25.341,15.585,15.585,0,1,0,21.909,21.909,15.518,15.518,0,0,1-9.756,3.432" transform="translate(-251.554 -236.795)" fill="#54c9f3"/>
        <rect id="Rectángulo_403297" data-name="Rectángulo 403297" width="2.226" height="2.226" transform="translate(18.258 9.987)" fill="#fff"/>
        <rect id="Rectángulo_403298" data-name="Rectángulo 403298" width="2.226" height="2.226" transform="translate(22.749 9.987)" fill="#fff"/>
        <path id="Trazado_912515" data-name="Trazado 912515" d="M373.351,328.182a4.715,4.715,0,1,1-4.715,4.715,4.715,4.715,0,0,1,4.715-4.715" transform="translate(-313.919 -279.47)" fill="#fec7d2"/>
        <path id="Trazado_912516" data-name="Trazado 912516" d="M372.3,336.47a4.717,4.717,0,0,1-.941-5.325,4.715,4.715,0,1,0,6.266,6.266,4.717,4.717,0,0,1-5.325-.941" transform="translate(-313.919 -281.993)" fill="#f88fa4"/>
        <path id="Trazado_912517" data-name="Trazado 912517" d="M339.686,292.564a4.715,4.715,0,0,1-6.668,6.668Z" transform="translate(-283.588 -249.139)" fill="#f88fa4"/>
        <path id="Trazado_912518" data-name="Trazado 912518" d="M414.939,381.153a4.715,4.715,0,0,1,6.668-6.668Z" transform="translate(-352.174 -317.724)" fill="#f88fa4"/>
        <path id="Trazado_912519" data-name="Trazado 912519" d="M161.735,233.617a6.633,6.633,0,0,0,6.633,6.633h0a6.633,6.633,0,0,0-6.633,6.633v0a6.633,6.633,0,0,0-6.633-6.633h0a6.633,6.633,0,0,0,6.633-6.633v0Z" transform="translate(-131.08 -197.935)" fill="#fde31d"/>
        <path id="Trazado_912520" data-name="Trazado 912520" d="M370.592,128.468a6.633,6.633,0,0,0,6.633,6.633h0a6.633,6.633,0,0,0-6.633,6.633v0a6.633,6.633,0,0,0-6.633-6.633h0a6.633,6.633,0,0,0,6.633-6.633v0Z" transform="translate(-308.937 -108.393)" fill="#fde31d"/>
        <path id="Trazado_912521" data-name="Trazado 912521" d="M193.472,6.779c-3.725,0-7.5-.132-11.21-.391l.155-2.221c3.661.256,7.381.386,11.055.386A158.776,158.776,0,0,0,231.205,0l.53,2.163a161.026,161.026,0,0,1-38.263,4.617" transform="translate(-155.209 0.001)"/>
        <path id="Trazado_912522" data-name="Trazado 912522" d="M24.811,6.217A161.349,161.349,0,0,1,0,2.163L.53,0A159.134,159.134,0,0,0,25,4Z"/>
        <rect id="Rectángulo_403299" data-name="Rectángulo 403299" width="2.226" height="17.006" transform="translate(60.528 4.113)"/>
        <rect id="Rectángulo_403300" data-name="Rectángulo 403300" width="2.226" height="5.145" transform="translate(60.528 32.852)"/>
        <path id="Trazado_912523" data-name="Trazado 912523" d="M117.275,88.134A24.519,24.519,0,0,1,92.784,63.643V27.712H95.01V63.643A22.28,22.28,0,0,0,125.02,84.524l.775,2.087a24.407,24.407,0,0,1-8.519,1.523" transform="translate(-79.012 -23.599)"/>
        <rect id="Rectángulo_403301" data-name="Rectángulo 403301" width="2.226" height="41.046" transform="translate(37.15 5.667)"/>
        <path id="Trazado_912524" data-name="Trazado 912524" d="M304.6,280.844a16.7,16.7,0,1,1,11.058-29.21l-1.475,1.667a14.465,14.465,0,1,0,1.584,1.639l1.717-1.417A16.7,16.7,0,0,1,304.6,280.844" transform="translate(-245.168 -210.718)"/>
        <path id="Trazado_912525" data-name="Trazado 912525" d="M366.963,332.338a5.828,5.828,0,1,1,5.828-5.828,5.835,5.835,0,0,1-5.828,5.828m0-9.43a3.6,3.6,0,1,0,3.6,3.6,3.606,3.606,0,0,0-3.6-3.6" transform="translate(-307.532 -273.083)"/>
        <path id="Trazado_912526" data-name="Trazado 912526" d="M327.319,292.691a5.81,5.81,0,0,1-4.121-1.7l-.787-.787,8.242-8.242.787.787a5.825,5.825,0,0,1-4.121,9.946m-1.635-2.616a3.6,3.6,0,0,0,4.845-4.844Z" transform="translate(-274.555 -240.107)"/>
        <path id="Trazado_912527" data-name="Trazado 912527" d="M408.568,376.34l-.787-.787a5.828,5.828,0,0,1,8.242-8.242l.787.787Zm3.334-8.51a3.6,3.6,0,0,0-3.209,5.237l4.846-4.845a3.586,3.586,0,0,0-1.636-.391" transform="translate(-345.803 -311.337)"/>
        <path id="Trazado_912528" data-name="Trazado 912528" d="M11.7,382.893H9.478v-1.16a5.526,5.526,0,0,0-5.52-5.52H2.784v-2.226H3.958a5.526,5.526,0,0,0,5.52-5.52v-1.182H11.7v1.182a5.526,5.526,0,0,0,5.52,5.52h1.146v2.226H17.224a5.526,5.526,0,0,0-5.52,5.52ZM7.955,375.1a7.806,7.806,0,0,1,2.635,2.635,7.807,7.807,0,0,1,2.635-2.635,7.806,7.806,0,0,1-2.635-2.635A7.806,7.806,0,0,1,7.955,375.1" transform="translate(-2.371 -312.77)"/>
        <path id="Trazado_912529" data-name="Trazado 912529" d="M162.848,248.042h-2.226v-1.16a5.526,5.526,0,0,0-5.52-5.52h-1.174v-2.226H155.1a5.519,5.519,0,0,0,5.52-5.519v-1.182h2.226v1.182a5.526,5.526,0,0,0,5.519,5.519h1.146v2.226h-1.146a5.526,5.526,0,0,0-5.519,5.52Zm-3.744-7.79a7.808,7.808,0,0,1,2.631,2.632,7.806,7.806,0,0,1,2.635-2.635,7.807,7.807,0,0,1-2.633-2.63,7.853,7.853,0,0,1-2.633,2.633" transform="translate(-131.08 -197.935)"/>
        <path id="Trazado_912530" data-name="Trazado 912530" d="M371.7,142.893h-2.226v-1.16a5.526,5.526,0,0,0-5.52-5.52h-1.174v-2.226h1.174a5.526,5.526,0,0,0,5.52-5.52v-1.182H371.7v1.182a5.526,5.526,0,0,0,5.52,5.52h1.146v2.226h-1.146a5.526,5.526,0,0,0-5.52,5.52Zm-3.749-7.793a7.807,7.807,0,0,1,2.635,2.635,7.807,7.807,0,0,1,2.635-2.635,7.806,7.806,0,0,1-2.635-2.635,7.806,7.806,0,0,1-2.635,2.635" transform="translate(-308.937 -108.393)"/>
      </g>
    </g>
  </g>
</svg>
