<svg xmlns="http://www.w3.org/2000/svg" xmlns:xlink="http://www.w3.org/1999/xlink" width="76" height="76" viewBox="0 0 76 76">
  <defs>
    <clipPath id="clip-path">
      <rect id="Rectángulo_403275" data-name="Rectángulo 403275" width="76" height="76" transform="translate(0.051 0.051)" fill="none"/>
    </clipPath>
  </defs>
  <g id="Grupo_1101504" data-name="Grupo 1101504" transform="translate(-915.051 -3679)">
    <g id="Grupo_1101442" data-name="Grupo 1101442" transform="translate(914.949 3678.898)">
      <g id="Grupo_1101441" data-name="Grupo 1101441" transform="translate(0.051 0.051)" clip-path="url(#clip-path)">
        <path id="Trazado_912421" data-name="Trazado 912421" d="M264.757,35.227a2.609,2.609,0,1,1-2.609-2.609,2.609,2.609,0,0,1,2.609,2.609" transform="translate(-219.742 -27.653)" fill="#ffe177" fill-rule="evenodd"/>
        <path id="Trazado_912422" data-name="Trazado 912422" d="M159.291,128.936a2.609,2.609,0,1,1-2.609,2.609,2.609,2.609,0,0,1,2.609-2.609" transform="translate(-132.674 -109.187)" fill="#ffe177" fill-rule="evenodd"/>
        <path id="Trazado_912423" data-name="Trazado 912423" d="M146.3,225.33l-4.969.758v4.758c-1.784.193-3.068.844-4.942.467-3.563-.718-6.078-4.149-8.375-6.476a1.89,1.89,0,0,0-2.561-.22c-2.279,1.328,1.57,5.591,2.871,6.8,2.7,2.519,6.925,5.024,9.476,5.023l.048,27.2a1.073,1.073,0,0,0,1.071,1.069h9.792a1.073,1.073,0,0,0,1.071-1.069l.048-27.2c2.551,0,6.773-2.5,9.476-5.023,1.3-1.211,5.151-5.474,2.871-6.8a1.89,1.89,0,0,0-2.561.22c-2.3,2.327-4.813,5.758-8.375,6.476-1.874.378-3.158-.273-4.942-.467V225.33Z" transform="translate(-105.641 -189.852)" fill="#60b7ff" fill-rule="evenodd"/>
        <path id="Trazado_912424" data-name="Trazado 912424" d="M221.908,361.771H209.915l.029,18.306a1.073,1.073,0,0,0,1.071,1.069h9.792a1.073,1.073,0,0,0,1.071-1.069Z" transform="translate(-177.736 -306.284)" fill="#837683" fill-rule="evenodd"/>
        <path id="Trazado_912425" data-name="Trazado 912425" d="M229.391,241.693a4.206,4.206,0,0,1-2.485-.839v4.066c-.375.041-.727.1-1.068.169a4.185,4.185,0,0,0,7.11,0c-.342-.068-.7-.129-1.074-.17v-4.066A4.205,4.205,0,0,1,229.391,241.693Z" transform="translate(-191.216 -203.926)" fill="#f1cbbc" fill-rule="evenodd"/>
        <path id="Trazado_912426" data-name="Trazado 912426" d="M214.454,183.794a4.1,4.1,0,0,0,4.969,0,7.111,7.111,0,0,0,2.636-5.217l.706-6.034c-2.477-1.747-4.126-.849-5.62-1.044s-5.186,1.492-6.017,1.074l.69,6A7.11,7.11,0,0,0,214.454,183.794Z" transform="translate(-178.763 -145.165)" fill="#f6dccd" fill-rule="evenodd"/>
        <path id="Trazado_912427" data-name="Trazado 912427" d="M219.788,149.76c.092,1.461-1.345,1.947-2.176,1.947h-4.518a1.122,1.122,0,0,0-1.079,1.283h-.357c-1.968,0-3.322,1.369-2.843,3.319l.963,3.917,1.5-3.786a10.125,10.125,0,0,0,3.171.91,8.608,8.608,0,0,0,4.335-.38l1.238,3.256c2.638-3.263.92-9.648-.231-10.466" transform="translate(-176.723 -126.814)" fill="#837683" fill-rule="evenodd"/>
        <path id="Trazado_912428" data-name="Trazado 912428" d="M324.562,10.292a11.787,11.787,0,0,1,3.452,1.431l2.243-1,2.644,2.644-1,2.243a11.788,11.788,0,0,1,1.431,3.453l2.289.881v3.739l-2.289.881A11.79,11.79,0,0,1,331.9,28.02l1,2.243-2.644,2.644-2.243-1a11.789,11.789,0,0,1-3.453,1.431l-.881,2.289h-3.739l-.881-2.289a11.793,11.793,0,0,1-3.452-1.431l-2.243,1-2.644-2.644,1-2.243a11.792,11.792,0,0,1-1.431-3.453L308,23.687V19.948l2.289-.881a11.784,11.784,0,0,1,1.431-3.452l-1-2.243,2.644-2.644,2.243,1a11.793,11.793,0,0,1,3.452-1.431L319.942,8h3.739Z" transform="translate(-260.763 -6.816)" fill="#a79ba7" fill-rule="evenodd"/>
        <path id="Trazado_912429" data-name="Trazado 912429" d="M352.2,10.289a11.791,11.791,0,0,1,3.452,1.431l-.656.291a15.67,15.67,0,0,0-3.953-1.723L350.166,8h1.157Zm4.894.791.8-.356,2.644,2.644-1,2.243a11.79,11.79,0,0,1,1.431,3.453l2.289.881v3.739l-2.289.881a11.794,11.794,0,0,1-1.431,3.452l1,2.243L357.9,32.9l-.8-.356,2.288-2.288-1-2.243a11.79,11.79,0,0,0,1.431-3.452l2.289-.881V19.945l-2.289-.881a11.8,11.8,0,0,0-1.431-3.453l1-2.243Zm-1.441,20.828A11.789,11.789,0,0,1,352.2,33.34l-.881,2.289h-1.157l.881-2.289A15.67,15.67,0,0,0,355,31.617Zm-12.406,0-2.243,1-.356-.356,2.1-.932q.247.152.5.291m-2.6-20.828.356-.356,2.243,1q-.254.14-.5.291Z" transform="translate(-288.406 -6.813)" fill="#837683" fill-rule="evenodd"/>
        <path id="Trazado_912430" data-name="Trazado 912430" d="M358.664,51.968a7.095,7.095,0,1,1-6.694,7.474,7.095,7.095,0,0,1,6.694-7.474" transform="translate(-297.977 -44.023)" fill="#eceff1" fill-rule="evenodd"/>
        <path id="Trazado_912431" data-name="Trazado 912431" d="M358.892,51.8a7.091,7.091,0,0,0,0,14.182c.194,0,.386-.008.576-.023a7.091,7.091,0,0,1,0-14.135C359.278,51.812,359.086,51.8,358.892,51.8Z" transform="translate(-297.844 -43.894)" fill="#d1d1d6" fill-rule="evenodd"/>
        <path id="Trazado_912432" data-name="Trazado 912432" d="M55.55,230.741h5.3v2.7a1.613,1.613,0,0,1-1.608,1.608H57.158a1.613,1.613,0,0,1-1.608-1.608Z" transform="translate(-47.065 -195.366)" fill="#b1b1b5" fill-rule="evenodd"/>
        <path id="Trazado_912433" data-name="Trazado 912433" d="M44.8,205.436h8.6V208.8a1.613,1.613,0,0,1-1.608,1.608H46.411A1.613,1.613,0,0,1,44.8,208.8v-3.365Z" transform="translate(-37.967 -173.945)" fill="#d1d1d6" fill-rule="evenodd"/>
        <path id="Trazado_912434" data-name="Trazado 912434" d="M79.776,216.874v1.608a1.6,1.6,0,0,1-.087.519,1.614,1.614,0,0,1-1.522,1.089h1.873a1.613,1.613,0,0,0,1.608-1.608v-1.609H79.776Z" transform="translate(-66.211 -183.626)" fill="#b1b1b5" fill-rule="evenodd"/>
        <path id="Trazado_912435" data-name="Trazado 912435" d="M33.976,185.456H45.8v3.215a1.613,1.613,0,0,1-1.608,1.608h-8.6a1.613,1.613,0,0,1-1.608-1.608Z" transform="translate(-28.802 -157.031)" fill="#eceff1" fill-rule="evenodd"/>
        <path id="Trazado_912436" data-name="Trazado 912436" d="M89.9,195.921v1.608a1.613,1.613,0,0,1-1.608,1.608h1.927a1.613,1.613,0,0,0,1.555-1.607v-1.608Z" transform="translate(-74.784 -165.89)" fill="#d1d1d6" fill-rule="evenodd"/>
        <path id="Trazado_912437" data-name="Trazado 912437" d="M17.894,44.985a9.9,9.9,0,0,1,9.9,9.9c0,5.5-3.511,5.168-3.988,13.27H11.985C11.508,60.05,8,60.379,8,54.882A9.9,9.9,0,0,1,17.894,44.985Z" transform="translate(-6.811 -38.121)" fill="#ffe177" fill-rule="evenodd"/>
        <path id="Trazado_912438" data-name="Trazado 912438" d="M66.374,45.028a9.9,9.9,0,0,1,8.961,9.853c0,5.106-3.03,5.185-3.842,11.664-.062.5-.112,1.03-.145,1.606H73.22c.476-8.1,3.988-7.774,3.988-13.27a9.9,9.9,0,0,0-9.9-9.9q-.474,0-.937.044" transform="translate(-56.227 -38.121)" fill="#ffd064" fill-rule="evenodd"/>
        <path id="Trazado_912439" data-name="Trazado 912439" d="M52.871,40.71C50.093,43.3,46.219,45.4,44.234,45.4h0A1.228,1.228,0,0,0,43,46.629l-.014,7.762H39.445V44.259a5.7,5.7,0,0,0,2.8-1.7,8.391,8.391,0,0,0,3.636.147c3.3-.665,5.656-3.22,7.739-5.473.441-.478.858-.93,1.266-1.343.217-.22.4-.41,1.07-.022.085.049.087.063.093.12.1.912-1.6,3.244-3.183,4.723M33.43,46.629A1.228,1.228,0,0,0,32.2,45.4h0c-1.985,0-5.858-2.106-8.636-4.694-1.587-1.478-3.285-3.811-3.184-4.723.006-.057.008-.071.094-.12.666-.388.853-.2,1.07.022.408.413.825.864,1.266,1.343,2.083,2.253,4.444,4.809,7.739,5.473a8.432,8.432,0,0,0,3.643-.149,5.692,5.692,0,0,0,2.8,1.7V54.391H33.444Zm4.788-5.892a5.26,5.26,0,0,1-1.257-.153v.452a1.239,1.239,0,0,1-.123.536,2.712,2.712,0,0,0,2.763.008,1.224,1.224,0,0,1-.127-.544v-.452A5.27,5.27,0,0,1,38.218,40.736ZM33.5,28.02a1.839,1.839,0,0,1,1.472-.576h.358a1.227,1.227,0,0,0,1.227-1.227c0-.019,0-.037,0-.056h4.368a3.924,3.924,0,0,0,2.112-.631,11.768,11.768,0,0,1,.352,4.619l-.149-.388a1.23,1.23,0,0,0-1.65-.683,7.37,7.37,0,0,1-3.673.282,8.944,8.944,0,0,1-2.779-.789,1.23,1.23,0,0,0-1.694.645l-.08.206-.044-.178A1.381,1.381,0,0,1,33.5,28.02Zm.845,5.608c.306,2.631,1.967,4.653,3.87,4.653s3.565-2.026,3.87-4.66l-.726-1.911a11.441,11.441,0,0,1-3.756.085,12.517,12.517,0,0,1-2.327-.523Zm22.849.117a3.1,3.1,0,0,0-4.052.419c-.438.442-.869.908-1.324,1.4-1.83,1.982-3.9,4.226-6.419,4.732a6.423,6.423,0,0,1-2.812-.178c-.215-.046-.435-.092-.66-.135v-.73a8.42,8.42,0,0,0,2.6-5.339c1.646-2.313,1.527-5.389,1.3-7.062-.241-1.758-.912-4.088-2-4.866a1.228,1.228,0,0,0-1.937,1.077.384.384,0,0,1-.1.336,1.318,1.318,0,0,1-.855.306H36.412a2.189,2.189,0,0,0-2.067,1.321A4.1,4.1,0,0,0,31.572,26.5a3.8,3.8,0,0,0-.631,3.325l.943,3.834a8.494,8.494,0,0,0,2.621,5.59v.73q-.338.065-.66.135a6.417,6.417,0,0,1-2.81.178c-2.518-.507-4.591-2.752-6.421-4.732-.456-.493-.887-.959-1.325-1.4a3.1,3.1,0,0,0-4.052-.419,2.569,2.569,0,0,0-1.3,1.969c-.306,2.742,3.515,6.386,3.951,6.792,2.486,2.319,6.192,4.66,9.086,5.225l.048,27.174a1.228,1.228,0,0,0,1.228,1.226h0a1.226,1.226,0,0,0,1.225-1.23l-.03-18.055h9.538L42.954,74.9a1.227,1.227,0,0,0,1.225,1.23h0a1.228,1.228,0,0,0,1.227-1.226l.048-27.174c2.895-.565,6.6-2.907,9.087-5.223.437-.407,4.256-4.051,3.95-6.792A2.567,2.567,0,0,0,57.2,33.745ZM39.445,61.792V74.9a1.228,1.228,0,1,1-2.456,0V61.792a1.228,1.228,0,1,1,2.456,0M26.66,21.019A1.381,1.381,0,1,1,25.278,22.4a1.382,1.382,0,0,1,1.381-1.381m0,5.218a3.842,3.842,0,0,0,3.633-2.609h3.645a1.227,1.227,0,0,0,1.081-.646l1.238-2.3H44.81a1.228,1.228,0,0,0,0-2.456H35.524a1.226,1.226,0,0,0-1.08.645l-1.239,2.3H30.293a3.836,3.836,0,1,0-3.633,5.064Zm15.787-20a1.381,1.381,0,1,1-1.381,1.381,1.384,1.384,0,0,1,1.381-1.381M24.294,11.786H33.58a1.23,1.23,0,0,0,1.082-.646l1.238-2.3h2.912a3.837,3.837,0,1,0,0-2.456H35.168a1.229,1.229,0,0,0-1.082.644l-1.237,2.3H24.294a1.228,1.228,0,1,0,0,2.456m36.8,9.119a5.864,5.864,0,1,1,5.863-5.864,5.87,5.87,0,0,1-5.863,5.864m0-14.183a8.319,8.319,0,1,1-8.32,8.319,8.329,8.329,0,0,1,8.32-8.319m12.586,9.346-1.5.579a1.221,1.221,0,0,0-.753.86A10.512,10.512,0,0,1,70.138,20.6a1.227,1.227,0,0,0-.077,1.142l.654,1.474-1.452,1.45-1.472-.654a1.23,1.23,0,0,0-1.142.077,10.561,10.561,0,0,1-3.093,1.283,1.229,1.229,0,0,0-.863.754l-.577,1.5H60.062l-.577-1.5a1.232,1.232,0,0,0-.862-.753,10.556,10.556,0,0,1-3.094-1.282,1.229,1.229,0,0,0-1.142-.077l-1.472.654-1.451-1.45.654-1.472a1.232,1.232,0,0,0-.077-1.144,10.569,10.569,0,0,1-1.283-3.093,1.219,1.219,0,0,0-.752-.86l-1.5-.579V14.015l1.5-.577a1.231,1.231,0,0,0,.754-.863,10.515,10.515,0,0,1,1.281-3.093,1.227,1.227,0,0,0,.077-1.142l-.654-1.472,1.451-1.452,1.472.654a1.223,1.223,0,0,0,1.142-.077,10.523,10.523,0,0,1,3.094-1.282,1.227,1.227,0,0,0,.862-.753l.577-1.5h2.054l.579,1.5a1.223,1.223,0,0,0,.861.753,10.521,10.521,0,0,1,3.093,1.282,1.223,1.223,0,0,0,1.142.077l1.472-.654,1.452,1.452-.654,1.472a1.225,1.225,0,0,0,.077,1.142,10.561,10.561,0,0,1,1.283,3.093,1.227,1.227,0,0,0,.753.863l1.5.577Zm1.668-4.041a1.224,1.224,0,0,1,.788,1.144v3.74a1.229,1.229,0,0,1-.788,1.147l-1.7.655a12.931,12.931,0,0,1-1.081,2.606l.741,1.67a1.227,1.227,0,0,1-.253,1.368L70.4,27a1.227,1.227,0,0,1-1.366.255l-1.67-.743a13.041,13.041,0,0,1-2.606,1.082L64.1,29.3a1.23,1.23,0,0,1-1.147.786H59.22a1.231,1.231,0,0,1-1.147-.786l-.655-1.7a12.979,12.979,0,0,1-2.607-1.081l-1.67.743A1.227,1.227,0,0,1,51.775,27l-2.645-2.643a1.227,1.227,0,0,1-.253-1.368l.741-1.67a12.914,12.914,0,0,1-1.081-2.606l-1.7-.655a1.229,1.229,0,0,1-.787-1.147v-3.74a1.224,1.224,0,0,1,.787-1.144l1.7-.657a13,13,0,0,1,1.081-2.606l-.741-1.67a1.224,1.224,0,0,1,.253-1.365l2.645-2.645a1.227,1.227,0,0,1,1.366-.254l1.67.741a12.977,12.977,0,0,1,2.607-1.08l.655-1.7A1.229,1.229,0,0,1,59.22,0h3.739a1.228,1.228,0,0,1,1.147.787l.656,1.7a12.986,12.986,0,0,1,2.606,1.08l1.67-.741a1.226,1.226,0,0,1,1.366.254l2.645,2.645A1.224,1.224,0,0,1,73.3,7.094l-.741,1.67A12.954,12.954,0,0,1,73.64,11.37ZM17.526,4.945l1.166-2.019a1.228,1.228,0,1,1,2.126,1.228L19.653,6.173a1.228,1.228,0,0,1-2.127-1.228M1.432,4.155A1.227,1.227,0,1,1,3.557,2.927L4.724,4.945A1.228,1.228,0,0,1,2.6,6.174ZM9.9,3.56V1.227a1.228,1.228,0,0,1,2.456,0V3.56a1.228,1.228,0,0,1-2.456,0m2.326,34.934H10.135a.386.386,0,0,1-.381-.381v-.381H12.6v.381a.386.386,0,0,1-.38.381m1.838-20.548V16.875a1.072,1.072,0,1,1,1.074,1.071ZM2.456,16.8a8.669,8.669,0,0,1,17.338,0,7.939,7.939,0,0,1-1.451,4.7A16.067,16.067,0,0,0,15.9,28.844H14.061V20.4h1.074a3.527,3.527,0,1,0-3.529-3.527v1.071h-.961V16.875A3.528,3.528,0,1,0,7.116,20.4H8.189v8.442H6.348A16.067,16.067,0,0,0,3.907,21.5a7.939,7.939,0,0,1-1.451-4.7m9.149,3.6h-.961v8.442h.961ZM8.188,17.946V16.875a1.072,1.072,0,1,0-1.073,1.071ZM15.806,31.68a.386.386,0,0,1-.381.381h-8.6a.386.386,0,0,1-.381-.381V31.3h9.363ZM14.252,34.9a.384.384,0,0,1-.379.379H8.486a.384.384,0,0,1-.381-.379v-.381h6.146Zm4.01-3.217V30.113a14.079,14.079,0,0,1,2.2-7.371A10.412,10.412,0,0,0,22.25,16.8,11.125,11.125,0,0,0,0,16.8a10.408,10.408,0,0,0,1.787,5.941,14.078,14.078,0,0,1,2.2,7.369V31.68A2.839,2.839,0,0,0,5.65,34.26V34.9A2.835,2.835,0,0,0,7.3,37.469v.645a2.84,2.84,0,0,0,2.836,2.837h2.088a2.841,2.841,0,0,0,2.836-2.837V37.47A2.839,2.839,0,0,0,16.707,34.9v-.691A2.835,2.835,0,0,0,18.262,31.68Z" transform="translate(-0.041 -0.041)" fill-rule="evenodd"/>
      </g>
    </g>
  </g>
</svg>
