<svg xmlns="http://www.w3.org/2000/svg" xmlns:xlink="http://www.w3.org/1999/xlink" width="76" height="76" viewBox="0 0 76 76">
  <defs>
    <clipPath id="clip-path">
      <rect id="Rectángulo_403276" data-name="Rectángulo 403276" width="76" height="76" transform="translate(0.051)" fill="none"/>
    </clipPath>
  </defs>
  <g id="Grupo_1101505" data-name="Grupo 1101505" transform="translate(-1164.051 -3674)">
    <g id="Grupo_1101444" data-name="Grupo 1101444" transform="translate(1163.949 3673.949)">
      <g id="Grupo_1101443" data-name="Grupo 1101443" transform="translate(0.051 0.051)" clip-path="url(#clip-path)">
        <path id="Trazado_912440" data-name="Trazado 912440" d="M354.58,340.187a1.476,1.476,0,0,1-1.047-2.523,1.444,1.444,0,0,0,.037-2.042l-.037-.037-2.4-2.4a1.444,1.444,0,0,0-2.042-.037l-.037.037a1.428,1.428,0,0,1-1.031.428,1.476,1.476,0,0,1-1.492-1.46c0-.005,0-.011,0-.016a1.476,1.476,0,0,0-1.476-1.476h-3.4a1.476,1.476,0,0,0-1.476,1.476,1.476,1.476,0,0,1-1.476,1.476H338.7a1.428,1.428,0,0,1-1.031-.428,1.287,1.287,0,0,0-.809-.413.508.508,0,0,0-.222,0,1.428,1.428,0,0,0-1.047.444l-2.4,2.364a1.444,1.444,0,0,0-.037,2.042l.037.037a1.429,1.429,0,0,1,.428,1.032,1.476,1.476,0,0,1-1.46,1.492h-.016a1.476,1.476,0,0,0-1.476,1.476v3.4a1.476,1.476,0,0,0,1.476,1.476,1.476,1.476,0,0,1,1.476,1.476v.016a1.428,1.428,0,0,1-.428,1.031,1.444,1.444,0,0,0-.037,2.042l.037.037,2.4,2.4a1.444,1.444,0,0,0,2.042.037l.037-.037a1.428,1.428,0,0,1,1.031-.428,1.476,1.476,0,0,1,1.492,1.46c0,.005,0,.011,0,.016a1.476,1.476,0,0,0,1.476,1.476h3.4a1.476,1.476,0,0,0,1.476-1.476,1.476,1.476,0,0,1,1.476-1.476h.016a1.428,1.428,0,0,1,1.031.428,1.444,1.444,0,0,0,2.042.037l.037-.037,2.4-2.4a1.444,1.444,0,0,0,.413-1.269,1.285,1.285,0,0,0-.413-.809,1.428,1.428,0,0,1-.428-1.031,1.476,1.476,0,0,1,1.46-1.492h.016a1.476,1.476,0,0,0,1.476-1.476v-3.4A1.476,1.476,0,0,0,354.58,340.187Zm-13.694-.889a4.758,4.758,0,1,1-2.285,4.062,4.76,4.76,0,0,1,2.285-4.062" transform="translate(-281.534 -281.533)" fill="#374f68"/>
        <path id="Trazado_912441" data-name="Trazado 912441" d="M381.82,340.188a1.476,1.476,0,0,1-1.047-2.523,1.444,1.444,0,0,0,.037-2.042l-.037-.037-2.4-2.4a1.444,1.444,0,0,0-2.042-.037l-.037.037a1.429,1.429,0,0,1-1.032.428,1.476,1.476,0,0,1-1.492-1.46v-.016a1.476,1.476,0,0,0-1.476-1.476h-3.4a1.476,1.476,0,0,0-1.476,1.476,1.476,1.476,0,0,1-1.476,1.476h-.016a1.428,1.428,0,0,1-1.031-.428,1.285,1.285,0,0,0-.809-.413,12.44,12.44,0,0,0-1.428,5.824A12.7,12.7,0,0,0,375.361,351.3a12.439,12.439,0,0,0,5.824-1.428,1.286,1.286,0,0,0-.413-.809,1.428,1.428,0,0,1-.428-1.031,1.476,1.476,0,0,1,1.46-1.492h.016a1.476,1.476,0,0,0,1.476-1.476v-3.4a1.476,1.476,0,0,0-1.476-1.476m-7.157,5.649a4.756,4.756,0,1,1,.7-2.475,4.761,4.761,0,0,1-.7,2.475" transform="translate(-308.773 -281.534)" fill="#425b72"/>
        <path id="Trazado_912442" data-name="Trazado 912442" d="M333.841,10.667h19.042a3.174,3.174,0,0,1,3.174,3.174V26.535a3.174,3.174,0,0,1-3.174,3.174H333.841a3.174,3.174,0,0,1-3.174-3.174V13.841a3.174,3.174,0,0,1,3.174-3.174" transform="translate(-281.534 -9.139)" fill="#db5669"/>
        <path id="Trazado_912443" data-name="Trazado 912443" d="M383.295,13.841V26.535H365.84a3.174,3.174,0,0,1-3.174-3.174V10.667h17.455a3.174,3.174,0,0,1,3.174,3.174" transform="translate(-308.772 -9.139)" fill="#f26674"/>
        <path id="Trazado_912444" data-name="Trazado 912444" d="M36.055,18.471V31.166a3.174,3.174,0,0,1-3.174,3.174H13.84a3.174,3.174,0,0,1-3.174-3.174V18.471a3.174,3.174,0,0,1,1.079-2.364l3.681,2.761,7.934,5.951,11.616-8.712a3.174,3.174,0,0,1,1.079,2.364" transform="translate(-9.138 -13.769)" fill="#fc6"/>
        <path id="Trazado_912445" data-name="Trazado 912445" d="M63.295,18.471V31.166H45.84a3.174,3.174,0,0,1-3.174-3.174V18.868L50.6,24.819l11.616-8.712a3.174,3.174,0,0,1,1.079,2.364" transform="translate(-36.377 -13.769)" fill="#ffde76"/>
        <path id="Trazado_912446" data-name="Trazado 912446" d="M401.346,54.469l-.333.175-4.046,2.031a1.587,1.587,0,0,1-2.3-1.428v-4.38a1.587,1.587,0,0,1,1.587-1.587,1.732,1.732,0,0,1,.666.174l4.38,2.206a1.587,1.587,0,0,1,.048,2.809Z" transform="translate(-336.012 -42.007)" fill="#dad7e5"/>
        <path id="Trazado_912447" data-name="Trazado 912447" d="M41.151,11.476,29.536,20.188,21.6,14.237,17.92,11.476a3.079,3.079,0,0,1,2.095-.809H39.057a3.079,3.079,0,0,1,2.095.809" transform="translate(-15.313 -9.138)" fill="#ffba55"/>
        <path id="Trazado_912448" data-name="Trazado 912448" d="M51.4,340.393l-6.649,6.728a4.761,4.761,0,0,1-6.728,0l-4.57-4.491a4.76,4.76,0,0,1-.746-5.744,4.349,4.349,0,0,1,.746-.984l6.728-6.728Z" transform="translate(-27.353 -280.263)" fill="#db5669"/>
        <path id="Trazado_912449" data-name="Trazado 912449" d="M52.687,338.013l-4.269,4.348a4.761,4.761,0,0,1-6.728,0l-4.57-4.491a4.35,4.35,0,0,1-.746-.984,4.349,4.349,0,0,1,.746-.984l6.728-6.728Z" transform="translate(-31.021 -280.263)" fill="#f26674"/>
        <path id="Trazado_912450" data-name="Trazado 912450" d="M128.441,430.846a3.174,3.174,0,0,1-4.488,0l0,0-6.617-6.728,1.587-1.587,2.9-2.9,6.617,6.744a2.7,2.7,0,0,1,.492.651A3.174,3.174,0,0,1,128.441,430.846Z" transform="translate(-99.936 -357.26)" fill="#374f68"/>
        <path id="Trazado_912451" data-name="Trazado 912451" d="M138.045,427.021a2.693,2.693,0,0,1-.492.651,3.174,3.174,0,0,1-4.488,0l0,0L128,422.53l2.9-2.9,6.617,6.744A2.7,2.7,0,0,1,138.045,427.021Z" transform="translate(-109.017 -357.259)" fill="#425b72"/>
        <path id="Trazado_912452" data-name="Trazado 912452" d="M119.16,208.251,97.833,218.359,86.614,207.14l1.539-3.237,8.569-18.09Z" transform="translate(-73.787 -158.229)" fill="#dad7e5"/>
        <path id="Trazado_912453" data-name="Trazado 912453" d="M124.73,205.014l-15.059,7.109a4.76,4.76,0,0,1-5.4-.936L96.96,203.9l8.569-18.09Z" transform="translate(-82.594 -158.229)" fill="#edebf2"/>
        <path id="Trazado_912454" data-name="Trazado 912454" d="M210.625,224.994a6.347,6.347,0,0,1-1.872,4.475l-8.965-8.966a5.951,5.951,0,0,1,1.872-1.3,6.361,6.361,0,0,1,8.934,5.2C210.609,224.613,210.625,224.8,210.625,224.994Z" transform="translate(-170.124 -186.175)" fill="#374f68"/>
        <path id="Trazado_912455" data-name="Trazado 912455" d="M221.58,224.407a3.174,3.174,0,0,1-4.031-.349l-4.856-4.856a6.291,6.291,0,0,1,8.886,5.2Z" transform="translate(-181.111 -186.175)" fill="#425b72"/>
        <path id="Trazado_912456" data-name="Trazado 912456" d="M410.359,54.378l-.333.175a4.761,4.761,0,0,1-4.76-4.76,4.059,4.059,0,0,1,0-.619,1.73,1.73,0,0,1,.666.175l4.38,2.206a1.587,1.587,0,0,1,.048,2.825Z" transform="translate(-345.024 -41.916)" fill="#edebf2"/>
        <path id="Trazado_912457" data-name="Trazado 912457" d="M62.217,11.476,50.6,20.188l-7.934-5.951v-3.57H60.122a3.079,3.079,0,0,1,2.095.809" transform="translate(-36.378 -9.138)" fill="#fc6"/>
        <path id="Trazado_912458" data-name="Trazado 912458" d="M343.8,0H324.76A4.761,4.761,0,0,0,320,4.76V17.455a4.761,4.761,0,0,0,4.76,4.76H343.8a4.76,4.76,0,0,0,4.76-4.76V4.76A4.76,4.76,0,0,0,343.8,0m1.587,17.455a1.587,1.587,0,0,1-1.587,1.587H324.76a1.587,1.587,0,0,1-1.587-1.587V4.76a1.587,1.587,0,0,1,1.587-1.587H343.8a1.587,1.587,0,0,1,1.587,1.587Z" transform="translate(-272.454 -0.059)"/>
        <path id="Trazado_912459" data-name="Trazado 912459" d="M23.8,22.216a4.761,4.761,0,0,0,4.76-4.76V4.76A4.761,4.761,0,0,0,23.8,0H4.76A4.761,4.761,0,0,0,0,4.76V17.455a4.761,4.761,0,0,0,4.76,4.76ZM22.216,3.174,14.281,9.124,6.347,3.174ZM3.174,17.455V4.76l10.156,7.617a1.587,1.587,0,0,0,1.9,0L25.389,4.76V17.455A1.587,1.587,0,0,1,23.8,19.042H4.76a1.587,1.587,0,0,1-1.587-1.587" transform="translate(-0.059 -0.059)"/>
        <path id="Trazado_912460" data-name="Trazado 912460" d="M392.981,41.142l-4.4-2.19A3.173,3.173,0,0,0,384,41.792v4.38a3.171,3.171,0,0,0,4.586,2.841l4.4-2.19a3.174,3.174,0,0,0,0-5.681m-5.808,5.046v-4.4l4.38,2.19Z" transform="translate(-326.933 -32.933)"/>
        <path id="Trazado_912461" data-name="Trazado 912461" d="M345.754,329.521a3.173,3.173,0,0,0,.73-1.983,3.031,3.031,0,0,0-.9-2.174l-2.4-2.4a3.174,3.174,0,0,0-4.142-.159A3.063,3.063,0,0,0,335.979,320h-3.4a3.063,3.063,0,0,0-3.063,2.809,3.174,3.174,0,0,0-4.157.175l-2.4,2.4a3.078,3.078,0,0,0-.159,4.142A3.063,3.063,0,0,0,320,332.584v3.4a3.063,3.063,0,0,0,2.809,3.062,3.078,3.078,0,0,0,.175,4.158l2.4,2.4a3.174,3.174,0,0,0,4.158.175,3.062,3.062,0,0,0,3.047,2.793h3.4a3.062,3.062,0,0,0,3.062-2.809,3.174,3.174,0,0,0,4.158-.174l2.4-2.4a3.031,3.031,0,0,0,.9-2.174,3.174,3.174,0,0,0-.746-1.968,3.062,3.062,0,0,0,2.809-3.062v-3.4A3.063,3.063,0,0,0,345.754,329.521Zm-.365,6.347a3.063,3.063,0,0,0-2.714,1.888,3.031,3.031,0,0,0,.587,3.253l-2.253,2.253a3.031,3.031,0,0,0-3.253-.587,3.063,3.063,0,0,0-1.888,2.714h-3.174a3.063,3.063,0,0,0-1.888-2.714,3.031,3.031,0,0,0-3.253.587L325.3,341.01a3.031,3.031,0,0,0,.587-3.253,3.063,3.063,0,0,0-2.714-1.888v-3.174a3.063,3.063,0,0,0,2.714-1.888,3.031,3.031,0,0,0-.587-3.253l2.253-2.253a3.031,3.031,0,0,0,3.253.587,3.063,3.063,0,0,0,1.888-2.714h3.174a3.063,3.063,0,0,0,1.888,2.714,3.031,3.031,0,0,0,3.253-.587l2.253,2.253a3.031,3.031,0,0,0-.587,3.253,3.063,3.063,0,0,0,2.714,1.888Z" transform="translate(-272.454 -272.454)"/>
        <path id="Trazado_912462" data-name="Trazado 912462" d="M379.68,373.333a6.347,6.347,0,1,0,6.347,6.347,6.347,6.347,0,0,0-6.347-6.347m0,9.521a3.174,3.174,0,1,1,3.174-3.174,3.174,3.174,0,0,1-3.174,3.174" transform="translate(-317.853 -317.853)"/>
        <path id="Trazado_912463" data-name="Trazado 912463" d="M58.961,192.376a7.934,7.934,0,0,0-11-11l-5.729-5.713a1.587,1.587,0,0,0-2.555.428L29.7,197.168l-6.538,6.538a6.347,6.347,0,0,0-.005,8.977l.005,0,4.491,4.491a6.347,6.347,0,0,0,4.491,1.857,6.443,6.443,0,0,0,3.174-.889l5.776,5.76a4.758,4.758,0,1,0,6.728-6.728L42.2,211.56l.936-.92,21.073-9.981a1.587,1.587,0,0,0,.428-2.555Zm-3.253-7.744a4.761,4.761,0,0,1,.92,5.427l-6.347-6.347a4.76,4.76,0,0,1,5.427.92M29.89,214.924l-4.475-4.475a3.174,3.174,0,0,1,0-4.488l0,0,5.6-5.617,4.57,4.491,4.491,4.491-5.617,5.6a3.174,3.174,0,0,1-4.487.083q-.042-.041-.083-.083M40,213.814l5.6,5.6a1.587,1.587,0,0,1,.009,2.244l-.009.009a1.587,1.587,0,0,1-2.237,0l-5.617-5.617Zm2.571-6.347-9.632-9.7,8.648-18.28,5.109,5.141,9.013,8.934,5.141,5.141Z" transform="translate(-18.19 -149.193)"/>
        <path id="Trazado_912464" data-name="Trazado 912464" d="M281.244,175.157a1.587,1.587,0,0,0,1.127-.476l3.3-3.364a1.587,1.587,0,0,0-2.174-2.253l-3.364,3.364a1.611,1.611,0,0,0,1.111,2.729" transform="translate(-238.125 -143.733)"/>
        <path id="Trazado_912465" data-name="Trazado 912465" d="M236.253,146.6a1.587,1.587,0,0,0,1.587-1.587v-4.76a1.587,1.587,0,0,0-3.174,0v4.76a1.587,1.587,0,0,0,1.587,1.587" transform="translate(-199.814 -118.097)"/>
        <path id="Trazado_912466" data-name="Trazado 912466" d="M298.667,236.253a1.587,1.587,0,0,0,1.587,1.587h4.76a1.587,1.587,0,0,0,0-3.174h-4.76a1.587,1.587,0,0,0-1.587,1.587" transform="translate(-254.294 -199.814)"/>
      </g>
    </g>
  </g>
</svg>
