<svg xmlns="http://www.w3.org/2000/svg" xmlns:xlink="http://www.w3.org/1999/xlink" width="78.752" height="78.75" viewBox="0 0 78.752 78.75">
  <defs>
    <clipPath id="clip-path">
      <rect id="Rectángulo_403303" data-name="Rectángulo 403303" width="78.752" height="78.75" fill="none"/>
    </clipPath>
  </defs>
  <g id="Grupo_1101518" data-name="Grupo 1101518" transform="translate(-384.051 -5298.276)">
    <g id="Grupo_1101478" data-name="Grupo 1101478" transform="translate(384.051 5298.276)">
      <g id="Grupo_1101477" data-name="Grupo 1101477" clip-path="url(#clip-path)">
        <path id="Trazado_912531" data-name="Trazado 912531" d="M471.986,271.629l-8.538-8.537a1.8,1.8,0,0,0-2.547,0l-8.537,8.537a1.8,1.8,0,0,0,0,2.547l1.91,1.91a1.8,1.8,0,0,0,2.547,0l2.222-2.222a24.888,24.888,0,0,1-12.2,19.233.85.85,0,0,0-.178,1.336l.008.008a7.154,7.154,0,0,1,1.955,3.6.849.849,0,0,0,1.257.571,31.183,31.183,0,0,0,15.481-24.692l2.165,2.165a1.8,1.8,0,0,0,2.547,0l1.91-1.91a1.8,1.8,0,0,0,0-2.547" transform="translate(-394.916 -232.275)" fill="#a3e440"/>
        <path id="Trazado_912532" data-name="Trazado 912532" d="M477.067,349.476a31.182,31.182,0,0,1-15.48,24.692.849.849,0,0,1-1.258-.572,7.066,7.066,0,0,0-.685-1.886,31.19,31.19,0,0,0,14.859-23.2.614.614,0,0,1,1.017-.389c.677.6,1.492,1.314,1.547,1.351" transform="translate(-406.619 -307.828)" fill="#99d53b"/>
        <path id="Trazado_912533" data-name="Trazado 912533" d="M298.616,32.617a31.185,31.185,0,0,0-24.692-15.479l2.165-2.165a1.8,1.8,0,0,0,0-2.547l-1.91-1.91a1.8,1.8,0,0,0-2.547,0l-8.538,8.537a1.8,1.8,0,0,0,0,2.547l8.537,8.538a1.8,1.8,0,0,0,2.547,0l1.91-1.91a1.8,1.8,0,0,0,0-2.547l-2.222-2.222a24.882,24.882,0,0,1,19.231,12.2.85.85,0,0,0,1.336.178l.01-.01a7.159,7.159,0,0,1,3.6-1.956.849.849,0,0,0,.571-1.258" transform="translate(-232.277 -8.836)" fill="#1c96f9"/>
        <path id="Trazado_912534" data-name="Trazado 912534" d="M370.289,88.7a7.1,7.1,0,0,0-2.109.809A31.311,31.311,0,0,0,344.833,74.9a.677.677,0,0,1-.409-1.145c.78-.8,1.74-1.789,1.744-1.792A31.184,31.184,0,0,1,370.86,87.445a.849.849,0,0,1-.571,1.258" transform="translate(-304.521 -63.665)" fill="#1785f8"/>
        <path id="Trazado_912535" data-name="Trazado 912535" d="M35.84,110.881l-.01-.01a7.159,7.159,0,0,1-1.955-3.6.848.848,0,0,0-1.257-.571A31.192,31.192,0,0,0,17.138,131.39l-2.165-2.165a1.8,1.8,0,0,0-2.547,0l-1.91,1.91a1.8,1.8,0,0,0,0,2.547l8.538,8.538a1.8,1.8,0,0,0,2.547,0l8.537-8.538a1.8,1.8,0,0,0,0-2.547l-1.91-1.91a1.8,1.8,0,0,0-2.547,0l-2.222,2.222a24.879,24.879,0,0,1,12.2-19.231.85.85,0,0,0,.178-1.336" transform="translate(-8.836 -94.285)" fill="#975bbb"/>
        <path id="Trazado_912536" data-name="Trazado 912536" d="M87.668,309.111l-8.537,8.538a1.8,1.8,0,0,1-2.547,0l-1.563-1.563a1.877,1.877,0,0,0,1.55-.537l8.915-8.915a1.882,1.882,0,0,0,.5-1.749l1.678,1.678a1.8,1.8,0,0,1,0,2.547" transform="translate(-66.366 -269.714)" fill="#814c9e"/>
        <path id="Trazado_912537" data-name="Trazado 912537" d="M142.221,460.908l-8.538-8.538a1.8,1.8,0,0,0-2.547,0l-1.91,1.91a1.8,1.8,0,0,0,0,2.547l2.222,2.222a24.889,24.889,0,0,1-19.233-12.2.85.85,0,0,0-1.335-.178l-.008.008a7.158,7.158,0,0,1-3.6,1.955.848.848,0,0,0-.571,1.257,31.188,31.188,0,0,0,24.694,15.481l-2.164,2.165a1.8,1.8,0,0,0,0,2.547l1.91,1.91a1.8,1.8,0,0,0,2.547,0l8.538-8.537a1.8,1.8,0,0,0,0-2.547" transform="translate(-94.286 -394.922)" fill="#fb4a59"/>
        <path id="Trazado_912538" data-name="Trazado 912538" d="M318.71,505.024l-1.9,1.9a1.908,1.908,0,0,0-.5-1.837l-9.05-9.05a1.9,1.9,0,0,0-1.181-.552l1.541-1.541a1.8,1.8,0,0,1,2.547,0l8.537,8.537a1.8,1.8,0,0,1,0,2.547" transform="translate(-270.775 -436.491)" fill="#f82f41"/>
        <path id="Trazado_912539" data-name="Trazado 912539" d="M11.49,135.066A2.946,2.946,0,0,1,9.4,134.2L.864,125.665a2.958,2.958,0,0,1,0-4.178l1.91-1.91a2.954,2.954,0,0,1,4.179,0l.467.467A32.323,32.323,0,0,1,23.2,96.864,2,2,0,0,1,26.169,98.2a6.014,6.014,0,0,0,1.642,3.025l.009.009h0a2,2,0,0,1-.41,3.146,23.8,23.8,0,0,0-11.082,14.936,2.956,2.956,0,0,1,3.879.262l1.91,1.91a2.954,2.954,0,0,1,0,4.178L13.579,134.2a2.946,2.946,0,0,1-2.089.864M4.863,121.018a.643.643,0,0,0-.458.19l-1.911,1.91a.648.648,0,0,0,0,.916l8.538,8.538a.648.648,0,0,0,.916,0l8.537-8.538a.647.647,0,0,0,0-.916l-1.91-1.91a.647.647,0,0,0-.916,0l-2.222,2.222a1.154,1.154,0,0,1-1.965-.918,26.068,26.068,0,0,1,12.446-19.931A8.313,8.313,0,0,1,24,99.07,30,30,0,0,0,9.452,122.64a1.154,1.154,0,0,1-1.966.732l-2.165-2.165a.642.642,0,0,0-.458-.19m21.325-18.154h0Z" transform="translate(0 -85.451)"/>
        <path id="Trazado_912540" data-name="Trazado 912540" d="M440.609,291.036a1.988,1.988,0,0,1-.81-.172,2.022,2.022,0,0,1-1.15-1.431,6.016,6.016,0,0,0-1.642-3.022,2,2,0,0,1,.4-3.154,23.808,23.808,0,0,0,11.082-14.939,2.959,2.959,0,0,1-3.879-.261l-1.911-1.91a2.958,2.958,0,0,1,0-4.178l8.538-8.538a2.955,2.955,0,0,1,4.178,0l8.537,8.537a2.954,2.954,0,0,1,0,4.178l-1.91,1.91a2.958,2.958,0,0,1-4.178,0l-.467-.467a32.016,32.016,0,0,1-2.5,8.474,1.154,1.154,0,0,1-2.1-.95,29.719,29.719,0,0,0,2.566-10.121,1.154,1.154,0,0,1,1.966-.733l2.165,2.165a.648.648,0,0,0,.915,0l1.91-1.91a.647.647,0,0,0,0-.915l-8.538-8.537a.647.647,0,0,0-.915,0l-8.537,8.537a.648.648,0,0,0,0,.915l1.91,1.91a.648.648,0,0,0,.916,0l2.222-2.222a1.154,1.154,0,0,1,1.965.918A26.076,26.076,0,0,1,438.9,285.053a8.31,8.31,0,0,1,1.913,3.507,30.367,30.367,0,0,0,9.587-9.125,1.154,1.154,0,0,1,1.918,1.283,32.674,32.674,0,0,1-10.7,10.049,2,2,0,0,1-1,.27" transform="translate(-386.067 -223.429)"/>
        <path id="Trazado_912541" data-name="Trazado 912541" d="M123.575,464.825a2.946,2.946,0,0,1-2.089-.864l-1.91-1.91a2.958,2.958,0,0,1,0-4.178l.467-.467a32.322,32.322,0,0,1-23.179-15.784,2,2,0,0,1-.1-1.815,2.022,2.022,0,0,1,1.431-1.15,6.016,6.016,0,0,0,3.025-1.642l.013-.013a1.98,1.98,0,0,1,1.66-.563,2,2,0,0,1,1.48.979A23.806,23.806,0,0,0,119.314,448.5a2.959,2.959,0,0,1,.261-3.88l1.91-1.91a2.959,2.959,0,0,1,4.179,0l8.538,8.538a2.958,2.958,0,0,1,0,4.179l-8.538,8.538a2.945,2.945,0,0,1-2.089.864m-24.506-24a30,30,0,0,0,23.57,14.553,1.154,1.154,0,0,1,.733,1.966l-2.164,2.165a.648.648,0,0,0,0,.916l1.91,1.91a.648.648,0,0,0,.916,0l8.538-8.538a.647.647,0,0,0,0-.915l-8.538-8.538a.648.648,0,0,0-.916,0l-1.91,1.91a.648.648,0,0,0,0,.916l2.222,2.222a1.154,1.154,0,0,1-.918,1.965,26.077,26.077,0,0,1-19.933-12.444,8.309,8.309,0,0,1-3.51,1.912m3.791-2.182h0" transform="translate(-85.45 -386.074)"/>
        <path id="Trazado_912542" data-name="Trazado 912542" d="M285.006,28.407a2.015,2.015,0,0,1-1.738-1,23.8,23.8,0,0,0-14.936-11.083,2.956,2.956,0,0,1-.262,3.879l-1.91,1.91a2.958,2.958,0,0,1-4.179,0l-2.908-2.908a1.154,1.154,0,1,1,1.632-1.631l2.908,2.908a.648.648,0,0,0,.916,0l1.91-1.91a.647.647,0,0,0,0-.915l-2.222-2.222a1.154,1.154,0,0,1,.918-1.965,26.072,26.072,0,0,1,19.931,12.446A8.32,8.32,0,0,1,288.573,24,29.993,29.993,0,0,0,265.005,9.453a1.154,1.154,0,0,1-.733-1.966l2.165-2.165a.647.647,0,0,0,0-.916l-1.91-1.91a.648.648,0,0,0-.915,0l-8.538,8.537a.648.648,0,0,0,0,.916l2,2a1.154,1.154,0,1,1-1.632,1.631l-2-2a2.958,2.958,0,0,1,0-4.178L261.98.864a2.958,2.958,0,0,1,4.178,0l1.91,1.91a2.955,2.955,0,0,1,0,4.179l-.467.467A32.32,32.32,0,0,1,290.778,23.2a2,2,0,0,1,.1,1.815,2.023,2.023,0,0,1-1.431,1.151,6.025,6.025,0,0,0-3.023,1.643l-.009.009a1.982,1.982,0,0,1-1.408.586" transform="translate(-223.441 0)"/>
        <path id="Trazado_912543" data-name="Trazado 912543" d="M260.484,248.365a12.123,12.123,0,1,1-12.123-12.123,12.123,12.123,0,0,1,12.123,12.123" transform="translate(-208.985 -208.989)" fill="#fc9744"/>
        <path id="Trazado_912544" data-name="Trazado 912544" d="M323.207,248.36a12.131,12.131,0,0,1-16.061,11.468h.043a11.468,11.468,0,0,0,0-22.936h-.049a12.131,12.131,0,0,1,16.067,11.468" transform="translate(-271.708 -208.983)" fill="#fb8627"/>
        <path id="Trazado_912545" data-name="Trazado 912545" d="M239.515,252.8a13.277,13.277,0,1,1,13.277-13.277A13.292,13.292,0,0,1,239.515,252.8m0-24.246a10.969,10.969,0,1,0,10.969,10.969,10.982,10.982,0,0,0-10.969-10.969" transform="translate(-200.139 -200.142)"/>
        <path id="Trazado_912546" data-name="Trazado 912546" d="M290.274,282.615a7.656,7.656,0,1,1-7.656-7.656,7.656,7.656,0,0,1,7.656,7.656" transform="translate(-243.242 -243.239)" fill="#fcdd45"/>
        <path id="Trazado_912547" data-name="Trazado 912547" d="M325.726,282.613a7.656,7.656,0,0,1-10.688,7.031,7.213,7.213,0,0,0,0-14.063,7.658,7.658,0,0,1,10.686,7.033" transform="translate(-278.695 -243.238)" fill="#f8c52d"/>
        <path id="Trazado_912548" data-name="Trazado 912548" d="M276.265,282.161a1.154,1.154,0,0,1-.376-2.245,6.5,6.5,0,1,0-4.354-.039,1.154,1.154,0,1,1-.793,2.167,8.813,8.813,0,1,1,5.9.054,1.151,1.151,0,0,1-.376.063" transform="translate(-234.395 -234.394)"/>
        <path id="Trazado_912549" data-name="Trazado 912549" d="M312.928,322.087a1.15,1.15,0,0,1-.816-.338l-1.362-1.362a1.154,1.154,0,0,1,1.631-1.632l.546.546,2.648-2.648a1.154,1.154,0,1,1,1.632,1.632l-3.464,3.463a1.15,1.15,0,0,1-.816.338" transform="translate(-274.603 -279.825)"/>
      </g>
    </g>
  </g>
</svg>
