<svg xmlns="http://www.w3.org/2000/svg" xmlns:xlink="http://www.w3.org/1999/xlink" width="102.38" height="102.38" viewBox="0 0 102.38 102.38">
  <defs>
    <clipPath id="clip-path">
      <rect id="Rectángulo_403260" data-name="Rectángulo 403260" width="62.902" height="62.007" fill="none"/>
    </clipPath>
  </defs>
  <g id="Grupo_1101504" data-name="Grupo 1101504" transform="translate(-748.811 -516.152)">
    <circle id="Elipse_5204" data-name="Elipse 5204" cx="49.69" cy="49.69" r="49.69" transform="translate(750.311 517.652)" fill="#efedee" stroke="#007dfe" stroke-miterlimit="10" stroke-width="3"/>
    <g id="Grupo_1101414" data-name="Grupo 1101414" transform="translate(768.549 535)">
      <g id="Grupo_1101413" data-name="Grupo 1101413" clip-path="url(#clip-path)">
        <path id="Trazado_912220" data-name="Trazado 912220" d="M322.164,154.409,311.672,143.93a.711.711,0,0,1-.111-.813.747.747,0,0,1,.692-.442h4.886V119.723a1.527,1.527,0,0,1,1.524-1.524h8.162a1.527,1.527,0,0,1,1.524,1.524v22.952h4.887a.762.762,0,0,1,.581,1.255l-10.492,10.479a.762.762,0,0,1-1.161,0" transform="translate(-272.609 -103.448)" fill="#b9ea6a" fill-rule="evenodd"/>
        <path id="Trazado_912221" data-name="Trazado 912221" d="M388,154.41l-1.292-1.29,10.45-10.436.006-.007h1.909a.762.762,0,0,1,.581,1.255L389.163,154.41a.762.762,0,0,1-1.161,0Zm3.665-36.21a1.525,1.525,0,0,1,.025.276v24.2h2.5V119.724a1.527,1.527,0,0,0-1.524-1.524Z" transform="translate(-338.448 -103.448)" fill="#a1e42c" fill-rule="evenodd"/>
        <path id="Trazado_912222" data-name="Trazado 912222" d="M61.751,156.874,48.318,143.458a.91.91,0,0,1-.142-1.041.957.957,0,0,1,.885-.566h6.256V112.465a1.955,1.955,0,0,1,1.951-1.951h10.45a1.955,1.955,0,0,1,1.951,1.951v29.385h6.256a.976.976,0,0,1,.744,1.607L63.238,156.874a.976.976,0,0,1-1.487,0" transform="translate(-42.076 -96.722)" fill="#b9ea6a" fill-rule="evenodd"/>
        <path id="Trazado_912223" data-name="Trazado 912223" d="M149.683,156.873l-1.135-1.134a1.558,1.558,0,0,0,.127-.114l13.433-13.416a.988.988,0,0,0,.2-.359h1.556a.976.976,0,0,1,.744,1.607l-13.433,13.416a.976.976,0,0,1-1.487,0Zm5.292-46.36a1.938,1.938,0,0,1,.132.7V141.85h2.5V112.465a1.955,1.955,0,0,0-1.951-1.951h-.676Z" transform="translate(-130.009 -96.721)" fill="#a1e42c" fill-rule="evenodd"/>
        <path id="Trazado_912224" data-name="Trazado 912224" d="M31.013,12.1A18.907,18.907,0,1,1,12.106,31.009,18.907,18.907,0,0,1,31.013,12.1" transform="translate(-10.595 -10.592)" fill="#fcdd2e" fill-rule="evenodd"/>
        <path id="Trazado_912225" data-name="Trazado 912225" d="M155.142,12.1a18.907,18.907,0,0,1,0,37.815c-.406,0-.808-.014-1.207-.039a18.907,18.907,0,0,0,0-37.736C154.334,12.116,154.736,12.1,155.142,12.1Z" transform="translate(-134.724 -10.592)" fill="#fbd307" fill-rule="evenodd"/>
        <path id="Trazado_912226" data-name="Trazado 912226" d="M59.287,44.407A14.876,14.876,0,1,1,44.411,59.283,14.876,14.876,0,0,1,59.287,44.407" transform="translate(-38.868 -38.865)" fill="#fbd307" fill-rule="evenodd"/>
        <path id="Trazado_912227" data-name="Trazado 912227" d="M59.287,44.407q.61,0,1.207.049a14.876,14.876,0,0,0,0,29.654q-.6.048-1.207.049a14.876,14.876,0,1,1,0-29.751" transform="translate(-38.868 -38.865)" fill="#f9c301" fill-rule="evenodd"/>
        <path id="Trazado_912228" data-name="Trazado 912228" d="M50.146,49.437l-8.71-8.7h3.1a1.5,1.5,0,0,0,1.5-1.5V16.288a.03.03,0,0,1,.026-.026h8.162a.031.031,0,0,1,.028.026V39.239a1.5,1.5,0,0,0,1.495,1.5h3.105ZM62.689,39.053a2.24,2.24,0,0,0-2.052-1.312H57.249V16.288a3.023,3.023,0,0,0-3.022-3.021H46.065a3.025,3.025,0,0,0-3.022,3.021V37.742H39.655a2.238,2.238,0,0,0-2.051,1.31,2.2,2.2,0,0,0,.41,2.5L48.507,52.033a2.252,2.252,0,0,0,3.278,0L62.277,41.554a.824.824,0,0,0,.082-.09A2.233,2.233,0,0,0,62.689,39.053ZM7.887,20.43A12.543,12.543,0,1,1,20.429,32.973,12.557,12.557,0,0,1,7.887,20.43m28.08,0A15.538,15.538,0,1,0,20.429,35.968,15.555,15.555,0,0,0,35.967,20.43M20.429,30.147a1.5,1.5,0,0,0,1.5-1.5v-.579a4.828,4.828,0,0,0,3.909-4.478c0-2.57-2.425-4.66-5.406-4.66-1.307,0-2.41-.763-2.41-1.665s1.1-1.665,2.41-1.665a2.411,2.411,0,0,1,2.359,1.33,1.5,1.5,0,1,0,2.856-.9,5.075,5.075,0,0,0-3.718-3.242v-.579a1.5,1.5,0,0,0-3,0v.579a4.827,4.827,0,0,0-3.907,4.478c0,2.57,2.425,4.66,5.405,4.66,1.307,0,2.411.762,2.411,1.665s-1.1,1.665-2.411,1.665a2.524,2.524,0,0,1-2.3-1.189A1.5,1.5,0,1,0,15.4,25.318a5.153,5.153,0,0,0,3.528,2.757v.575a1.5,1.5,0,0,0,1.5,1.5m0,28.643L8.262,46.638h4.991a1.5,1.5,0,0,0,1.5-1.5V40.055a20.469,20.469,0,0,0,11.358,0v5.086a1.5,1.5,0,0,0,1.5,1.5H32.6ZM3,20.43A17.434,17.434,0,1,1,20.429,37.864,17.455,17.455,0,0,1,3,20.43ZM33.863,43.643a2.475,2.475,0,0,1,1.886,4.075c-.027.031-.055.061-.083.09L22.231,61.224a2.466,2.466,0,0,1-3.6,0L5.195,47.808a2.391,2.391,0,0,1-.442-2.729A2.448,2.448,0,0,1,7,43.643h4.758v-4.72a20.429,20.429,0,1,1,17.349,0v4.72Z" fill-rule="evenodd"/>
      </g>
    </g>
  </g>
</svg>
