<svg xmlns="http://www.w3.org/2000/svg" xmlns:xlink="http://www.w3.org/1999/xlink" width="105" height="98.12" viewBox="0 0 105 98.12">
  <defs>
    <clipPath id="clip-path">
      <rect id="Rect치ngulo_403315" data-name="Rect치ngulo 403315" width="82.205" height="84.001" fill="none"/>
    </clipPath>
  </defs>
  <g id="Grupo_1101509" data-name="Grupo 1101509" transform="translate(-1210 -771.55)">
    <g id="Grupo_1101487" data-name="Grupo 1101487" transform="translate(189.949 -1624.45)">
      <g id="Grupo_1100929" data-name="Grupo 1100929" transform="translate(1020.051 2396)">
        <rect id="Rect치ngulo_402862" data-name="Rect치ngulo 402862" width="64.105" height="98.119" rx="25" transform="translate(0 0)" fill="#fa6d61"/>
        <circle id="Elipse_11523" data-name="Elipse 11523" cx="13.737" cy="13.737" r="13.737" transform="translate(0 0)" fill="#ffbe01"/>
      </g>
      <g id="Grupo_1101495" data-name="Grupo 1101495" transform="translate(1042.845 2410.118)">
        <g id="Grupo_1101497" data-name="Grupo 1101497" clip-path="url(#clip-path)">
          <path id="Trazado_912638" data-name="Trazado 912638" d="M80.827,76.7,66.475,63.69l-.121-.109h-.006a3.23,3.23,0,0,0-3.121-.544l-.022-.022A34.948,34.948,0,0,0,75.253,44.454a9.414,9.414,0,0,0-.012-18.175A34.957,34.957,0,0,0,62.73,7.364a35.361,35.361,0,0,0-55.772,18.9,9.422,9.422,0,0,0-.027,18.18,31.16,31.16,0,0,0,.935,3.032l.018.07.012.016A35.465,35.465,0,0,0,60.913,64.688l.328.328c-.767,1.974.408,3.2,3.947,6.889,2.135,2.226,5.362,5.59,9.714,10.718A4.225,4.225,0,0,0,77.915,84h.1a4.2,4.2,0,0,0,2.807-7.3M79.4,79.77a1.384,1.384,0,0,1-.407,1.02,1.319,1.319,0,0,1-1,.415,1.448,1.448,0,0,1-1.019-.466L63.971,66.388a.437.437,0,0,1,.018-.606.432.432,0,0,1,.308-.128.442.442,0,0,1,.3.114L78.943,78.774a1.379,1.379,0,0,1,.457,1M16.745,16.98c-1.681,2.673-3.417,5.434-2.274,8.952h-4.5a32.371,32.371,0,0,1,9.183-14.585c-.112,1.975-1.233,3.758-2.412,5.633m5.014-7.789A32.205,32.205,0,0,1,41.1,2.8c.746,0,1.524.031,2.36.095-1.454,1.77-3.485,4.731-1.43,7.435,1.218,1.6,3.144,1.735,4.843,1.857,2.385.171,4.269.307,4.194,3.964a16.374,16.374,0,0,1-.658,3.674,13.618,13.618,0,0,0-.6,6.1H17.537c-.945-1.4-.536-3.667.319-5.348.38-.742.843-1.478,1.334-2.256,1.582-2.51,3.37-5.347,2.568-9.137M59.852,25.932c.975-2.234,1.9-2,3.361-1.637a6.112,6.112,0,0,0,3.925,0,5.448,5.448,0,0,0,3.054-3.559,32.975,32.975,0,0,1,2.034,5.2Zm8.082-7.215c-.473,1.4-.881,2.609-1.794,2.957a4.571,4.571,0,0,1-2.354-.114c-2.187-.449-4.909-1.008-6.765,3.9-.06.159-.125.312-.195.475H52.7c-.538-1.583-.063-3.49.438-5.5a19.135,19.135,0,0,0,.727-4.225c.043-2.149-.776-4.879-3.208-6.093A9.645,9.645,0,0,0,47.654,9.5c-1.536-.161-3.277-.344-3.617-1.2-.221-.557-.005-1.779,2.282-4.444.183-.213.337-.4.471-.559A32.444,32.444,0,0,1,68.356,17.516c-.154.408-.29.81-.422,1.2m-3.364,30.2a3.88,3.88,0,0,0,.559-.371A6.52,6.52,0,0,0,67.143,44.8h1.573l-.039.058c-1.024,1.516-3.389,5.017-.272,8.292a32.168,32.168,0,0,1-6.453,7.264,15.111,15.111,0,0,0,2.619-11.495m-.345-4.12a4.291,4.291,0,0,1-.509,1.2q-.246-.611-.543-1.2ZM41.183,42.952a12.19,12.19,0,0,1,19.9,4,11.985,11.985,0,0,1-2.623,13.269,12.245,12.245,0,0,1-17.3,0,12.229,12.229,0,0,1,.024-17.274m21.983-.964H61.343A15.016,15.016,0,0,0,39.2,40.969c-.317.317-.629.66-.928,1.019H9.417a6.626,6.626,0,0,1,0-13.252H63.166Zm-41.6,3.718a2.685,2.685,0,0,1,3.021,1.8,2.611,2.611,0,0,1-1.1,3.283,2.765,2.765,0,0,1-3.545-.48,6.014,6.014,0,0,1-.469-.675c-.978-1.523-2.852-4.445-7.172-4.445a11.289,11.289,0,0,0-2.168.222c-.069-.211-.133-.417-.195-.62,1.257,0,4.26,0,6.764,0h3.134a1.948,1.948,0,0,0,1.73.913M16.86,50.8c1.046,1.5,2.231,3.191,5.2,3.191a5.347,5.347,0,0,0,5.183-3.622A5.605,5.605,0,0,0,26.2,44.792H36.441a14.938,14.938,0,0,0,6.376,20.083,11.286,11.286,0,0,1-1.688,3.048H41.1A32.641,32.641,0,0,1,11.141,48.079c3.464-.506,4.514,1,5.72,2.72M50.32,66.6a32.219,32.219,0,0,1-5.733,1.14,13.439,13.439,0,0,0,.827-1.806,15.025,15.025,0,0,0,4.906.666M70.934,46.543a9.024,9.024,0,0,0,.676-1.109,5.528,5.528,0,0,0,.257-.639h.37a32.757,32.757,0,0,1-2.315,5.733c-.636-1.135-.154-2.251,1.013-3.985m-4.945-17.8h6.789a6.622,6.622,0,0,1,0,13.245H65.989Z"/>
          <path id="Trazado_912639" data-name="Trazado 912639" d="M51.4,203.685a1.4,1.4,0,0,0,1.4,1.4H85.89a1.4,1.4,0,1,0,0-2.8H52.8a1.4,1.4,0,0,0-1.4,1.4" transform="translate(-42.77 -168.322)"/>
        </g>
      </g>
    </g>
  </g>
</svg>
