<svg xmlns="http://www.w3.org/2000/svg" xmlns:xlink="http://www.w3.org/1999/xlink" width="105.051" height="98.577" viewBox="0 0 105.051 98.577">
  <defs>
    <clipPath id="clip-path">
      <rect id="Rect치ngulo_403311" data-name="Rect치ngulo 403311" width="85" height="85" transform="translate(0.051 0.051)" fill="none"/>
    </clipPath>
  </defs>
  <g id="Grupo_1101510" data-name="Grupo 1101510" transform="translate(-1210 -984.424)">
    <g id="Grupo_1101490" data-name="Grupo 1101490" transform="translate(189.949 -1411.576)">
      <g id="Grupo_1100929" data-name="Grupo 1100929" transform="translate(1020.051 2396)">
        <rect id="Rect치ngulo_402862" data-name="Rect치ngulo 402862" width="64.105" height="98.119" rx="25" transform="translate(0 0)" fill="#fa6d61"/>
        <circle id="Elipse_11523" data-name="Elipse 11523" cx="13.737" cy="13.737" r="13.737" transform="translate(0 0)" fill="#ffbe01"/>
      </g>
      <g id="Grupo_1101491" data-name="Grupo 1101491" transform="translate(1039.746 2409.195)">
        <g id="Grupo_1101491-2" data-name="Grupo 1101491" transform="translate(0.305 0.33)" clip-path="url(#clip-path)">
          <path id="Trazado_912621" data-name="Trazado 912621" d="M19.216,188.535a1.478,1.478,0,0,0,1.478-1.478,10.347,10.347,0,0,0-5.972-9.363,5.913,5.913,0,1,0-8.751,0A10.347,10.347,0,0,0,0,187.057a1.478,1.478,0,0,0,1.478,1.478ZM7.391,173.753a2.956,2.956,0,1,1,2.956,2.956,2.956,2.956,0,0,1-2.956-2.956m2.956,5.913a7.4,7.4,0,0,1,7.243,5.913H3.1a7.4,7.4,0,0,1,7.243-5.913" transform="translate(-0.341 -137.141)"/>
          <path id="Trazado_912622" data-name="Trazado 912622" d="M205.913,320a5.913,5.913,0,1,0,5.913,5.913A5.913,5.913,0,0,0,205.913,320m0,8.869a2.956,2.956,0,1,1,2.956-2.956,2.956,2.956,0,0,1-2.956,2.956" transform="translate(-163.387 -261.215)"/>
          <path id="Trazado_912623" data-name="Trazado 912623" d="M366.723,177.694a5.913,5.913,0,1,0-8.751,0A10.347,10.347,0,0,0,352,187.057a1.478,1.478,0,0,0,1.478,1.478h17.738a1.478,1.478,0,0,0,1.478-1.478,10.347,10.347,0,0,0-5.972-9.363m-7.332-3.941a2.956,2.956,0,1,1,2.956,2.956,2.956,2.956,0,0,1-2.956-2.956M355.1,185.579a7.391,7.391,0,0,1,14.486,0Z" transform="translate(-287.302 -137.141)"/>
          <path id="Trazado_912624" data-name="Trazado 912624" d="M16.869,300.434a4.435,4.435,0,1,0-4.435,4.435,4.434,4.434,0,0,0,4.435-4.435m-4.435,1.478a1.478,1.478,0,1,1,1.478-1.478,1.478,1.478,0,0,1-1.478,1.478" transform="translate(-6.863 -241.65)"/>
          <path id="Trazado_912625" data-name="Trazado 912625" d="M44.434,64.869A4.435,4.435,0,1,0,40,60.435a4.434,4.434,0,0,0,4.435,4.435m0-5.913a1.478,1.478,0,1,1-1.478,1.478,1.478,1.478,0,0,1,1.478-1.478" transform="translate(-32.95 -45.995)"/>
          <path id="Trazado_912626" data-name="Trazado 912626" d="M380.434,64.869A4.435,4.435,0,1,0,376,60.435a4.434,4.434,0,0,0,4.434,4.435m0-5.913a1.478,1.478,0,1,1-1.478,1.478,1.478,1.478,0,0,1,1.478-1.478" transform="translate(-306.867 -45.995)"/>
          <path id="Trazado_912627" data-name="Trazado 912627" d="M412.435,296a4.435,4.435,0,1,0,4.434,4.434A4.434,4.434,0,0,0,412.435,296m0,5.913a1.478,1.478,0,1,1,1.478-1.478,1.478,1.478,0,0,1-1.478,1.478" transform="translate(-332.954 -241.65)"/>
          <path id="Trazado_912628" data-name="Trazado 912628" d="M128.869,41.389a2.956,2.956,0,0,0,2.956,2.956V47.3a2.956,2.956,0,0,0,1.734,2.684l.986,3.944a2.956,2.956,0,0,0,2.869,2.241h6.56a2.956,2.956,0,0,0,2.869-2.241l.986-3.944a2.956,2.956,0,0,0,1.734-2.684V44.345a2.956,2.956,0,0,0,2.956-2.956c0-2.736,1.468-4.526,3.326-6.8,2.469-3.011,5.543-6.763,5.543-13.895a20.694,20.694,0,1,0-41.389,0c0,7.134,3.075,10.885,5.545,13.895,1.858,2.273,3.324,4.062,3.324,6.8m5.913-14.782H133.3a1.478,1.478,0,1,1,1.478-1.478Zm2.956,2.956h5.913V41.389h-5.913Zm6.236,23.651h-6.56l-.739-2.956h8.038Zm2.633-5.913H134.782V44.345h11.825ZM140.694,2.956a17.757,17.757,0,0,1,17.738,17.738c0,6.075-2.477,9.1-4.878,12.026-1.96,2.4-3.991,4.878-3.991,8.668h-2.956V29.563h1.478a4.435,4.435,0,1,0-4.435-4.435v1.478h-5.913V25.129a4.435,4.435,0,1,0-4.435,4.435h1.478V41.389h-2.956c0-3.787-2.031-6.266-3.991-8.661-2.4-2.933-4.878-5.957-4.878-12.034A17.757,17.757,0,0,1,140.694,2.956m5.913,23.651V25.129a1.478,1.478,0,1,1,1.478,1.478Z" transform="translate(-98.168 -0.342)"/>
          <path id="Trazado_912629" data-name="Trazado 912629" d="M60.251,311.778a8.869,8.869,0,1,0-10.927,0A14.8,14.8,0,0,0,40,325.5a1.478,1.478,0,0,0,1.478,1.478H68.085a1.478,1.478,0,0,0,1.478-1.478,14.8,14.8,0,0,0-9.312-13.722m-11.382-6.973a5.913,5.913,0,1,1,5.913,5.913,5.913,5.913,0,0,1-5.913-5.913m.207,19.216a5.865,5.865,0,0,1,1.525-2.7,1.478,1.478,0,0,0-2.054-2.126l-.036.036a8.8,8.8,0,0,0-2.47,4.791H43.048a11.825,11.825,0,0,1,23.467,0Z" transform="translate(-32.95 -241.586)"/>
          <path id="Trazado_912630" data-name="Trazado 912630" d="M284.251,311.778a8.869,8.869,0,1,0-10.927,0A14.8,14.8,0,0,0,264,325.5a1.478,1.478,0,0,0,1.478,1.478h26.607a1.478,1.478,0,0,0,1.478-1.478,14.8,14.8,0,0,0-9.312-13.722m-11.382-6.973a5.913,5.913,0,1,1,5.913,5.913,5.913,5.913,0,0,1-5.913-5.913m14.652,19.216a8.79,8.79,0,0,0-2.471-4.791,1.478,1.478,0,1,0-2.155,2.024c.021.023.043.045.066.066a5.851,5.851,0,0,1,1.525,2.7H267.044a11.825,11.825,0,0,1,23.467,0Z" transform="translate(-215.561 -241.586)"/>
        </g>
      </g>
    </g>
  </g>
</svg>
