<svg xmlns="http://www.w3.org/2000/svg" xmlns:xlink="http://www.w3.org/1999/xlink" width="102.38" height="102.38" viewBox="0 0 102.38 102.38">
  <defs>
    <clipPath id="clip-path">
      <rect id="Rectángulo_403259" data-name="Rectángulo 403259" width="59.905" height="59.906" fill="none"/>
    </clipPath>
  </defs>
  <g id="Grupo_1101505" data-name="Grupo 1101505" transform="translate(-1063.81 -516.152)">
    <circle id="Elipse_5205" data-name="Elipse 5205" cx="49.69" cy="49.69" r="49.69" transform="translate(1065.31 517.652)" fill="#efedee" stroke="#007dfe" stroke-miterlimit="10" stroke-width="3"/>
    <g id="Grupo_1101412" data-name="Grupo 1101412" transform="translate(1085.614 536)">
      <g id="Grupo_1101411" data-name="Grupo 1101411" clip-path="url(#clip-path)">
        <path id="Trazado_912183" data-name="Trazado 912183" d="M127.975,112.011A15.975,15.975,0,1,1,112,127.986a15.975,15.975,0,0,1,15.975-15.975" transform="translate(-98.022 -98.032)" fill="#ffea00"/>
        <path id="Trazado_912184" data-name="Trazado 912184" d="M155.981,144.011A11.981,11.981,0,1,1,144,155.992a11.981,11.981,0,0,1,11.981-11.981" transform="translate(-126.029 -126.038)" fill="#ffd000"/>
        <path id="Trazado_912185" data-name="Trazado 912185" d="M142.216,147.417a15.975,15.975,0,1,1-21.486-21.486,15.975,15.975,0,0,0,21.486,21.486" transform="translate(-98.026 -110.215)" fill="#ffd000"/>
        <path id="Trazado_912186" data-name="Trazado 912186" d="M155.981,144.011a11.981,11.981,0,1,0,11.981,11.981,11.981,11.981,0,0,0-11.981-11.981m7.738,20.947c-.25.01-.5.02-.749.02A15.975,15.975,0,0,1,147,149c0-.25.01-.5.02-.749a11.969,11.969,0,0,1,16.7,16.7" transform="translate(-126.029 -126.038)" fill="#ffb700"/>
        <rect id="Rectángulo_403247" data-name="Rectángulo 403247" width="11.981" height="19.968" transform="translate(0.998 38.939)" fill="#e9f1f2"/>
        <path id="Trazado_912187" data-name="Trazado 912187" d="M11.994,323.992v2a3.994,3.994,0,0,0,3.994,3.994h3.994v2H8V312.011H19.981v11.981Z" transform="translate(-7.002 -273.072)" fill="#d0d8da"/>
        <rect id="Rectángulo_403248" data-name="Rectángulo 403248" width="7.987" height="7.987" transform="translate(12.979 50.92)" fill="#ade8f4"/>
        <path id="Trazado_912188" data-name="Trazado 912188" d="M111.987,444H104v-3.994h3Z" transform="translate(-91.021 -385.097)" fill="#48cae4"/>
        <path id="Trazado_912189" data-name="Trazado 912189" d="M111.987,412H104v-3.994h3Z" transform="translate(-91.021 -357.091)" fill="#48cae4"/>
        <rect id="Rectángulo_403249" data-name="Rectángulo 403249" width="3.994" height="3.994" transform="translate(4.992 54.914)" fill="#ade8f4"/>
        <rect id="Rectángulo_403250" data-name="Rectángulo 403250" width="11.981" height="3.994" transform="translate(0.998 42.933)" fill="#ade8f4"/>
        <rect id="Rectángulo_403251" data-name="Rectángulo 403251" width="11.981" height="3.994" transform="translate(0.998 38.939)" fill="#ade8f4"/>
        <rect id="Rectángulo_403252" data-name="Rectángulo 403252" width="11.981" height="3.994" transform="translate(0.998 46.927)" fill="#ade8f4"/>
        <rect id="Rectángulo_403253" data-name="Rectángulo 403253" width="3.994" height="3.994" transform="translate(0.998 34.946)" fill="#e9f1f2"/>
        <path id="Trazado_912190" data-name="Trazado 912190" d="M19.981,316H8v-3.994h5.99Z" transform="translate(-7.002 -273.072)" fill="#48cae4"/>
        <path id="Trazado_912191" data-name="Trazado 912191" d="M19.981,348H8v-3.994h5.99Z" transform="translate(-7.002 -301.078)" fill="#48cae4"/>
        <path id="Trazado_912192" data-name="Trazado 912192" d="M19.981,380H8v-3.994h5.99Z" transform="translate(-7.002 -329.084)" fill="#48cae4"/>
        <path id="Trazado_912193" data-name="Trazado 912193" d="M11.994,283.006v1H8v-3.994H9v1a2,2,0,0,0,2,2Z" transform="translate(-7.002 -245.065)" fill="#d0d8da"/>
        <rect id="Rectángulo_403254" data-name="Rectángulo 403254" width="3.994" height="3.994" transform="translate(0.998 38.939)" fill="#00b4d8"/>
        <rect id="Rectángulo_403255" data-name="Rectángulo 403255" width="3.994" height="3.994" transform="translate(0.998 42.933)" fill="#00b4d8"/>
        <rect id="Rectángulo_403256" data-name="Rectángulo 403256" width="3.994" height="3.994" transform="translate(0.998 46.927)" fill="#00b4d8"/>
        <path id="Trazado_912194" data-name="Trazado 912194" d="M43.994,442.008v2H40v-3.994h.539a3.974,3.974,0,0,0,3.455,2" transform="translate(-35.008 -385.097)" fill="#48cae4"/>
        <path id="Trazado_912195" data-name="Trazado 912195" d="M351.987,8.011A7.987,7.987,0,1,1,344,16a7.987,7.987,0,0,1,7.987-7.987" transform="translate(-301.068 -7.011)" fill="#ff7373"/>
        <path id="Trazado_912196" data-name="Trazado 912196" d="M359.548,28.637a7.987,7.987,0,1,1-12.141-9.106,7.987,7.987,0,0,0,12.141,9.106" transform="translate(-301.061 -17.094)" fill="#ef5350"/>
        <path id="Trazado_912197" data-name="Trazado 912197" d="M387,40.011a3,3,0,1,1-3,3,3,3,0,0,1,3-3" transform="translate(-336.076 -35.018)" fill="#ffea00"/>
        <path id="Trazado_912198" data-name="Trazado 912198" d="M377.984,92v.24a7.969,7.969,0,0,1-9.984,0V92a3.994,3.994,0,0,1,3.994-3.994h2A3.994,3.994,0,0,1,377.984,92" transform="translate(-322.073 -77.027)" fill="#ffea00"/>
        <path id="Trazado_912199" data-name="Trazado 912199" d="M377.984,93.125v.24a7.969,7.969,0,0,1-9.984,0v-.24a3.972,3.972,0,0,1,2.9-3.834,8,8,0,0,0,6.48,1.717,3.943,3.943,0,0,1,.609,2.117" transform="translate(-322.073 -78.147)" fill="#ffd000"/>
        <path id="Trazado_912200" data-name="Trazado 912200" d="M389.844,44.785a3,3,0,1,1-3.734-3.734,3.094,3.094,0,0,0-.13.869,3,3,0,0,0,3,3A3.094,3.094,0,0,0,389.844,44.785Z" transform="translate(-336.06 -35.928)" fill="#ffd000"/>
        <path id="Trazado_912201" data-name="Trazado 912201" d="M377.984,96.766v.24a7.969,7.969,0,0,1-9.984,0v-.24a3.947,3.947,0,0,1,1.777-3.315,5.007,5.007,0,0,0,4.213,2.316h3.864a3.655,3.655,0,0,1,.13,1" transform="translate(-322.073 -81.788)" fill="#ffb700"/>
        <path id="Trazado_912202" data-name="Trazado 912202" d="M35.363,86a1.9,1.9,0,0,1-1.8-1.3L32,80.011h3.994l1.166,3.494a1.9,1.9,0,0,1-1.8,2.5" transform="translate(-28.006 -70.025)" fill="#93999a"/>
        <path id="Trazado_912203" data-name="Trazado 912203" d="M35.365,86a1.888,1.888,0,0,1-1.8-1.3L32,80.011h3.994l.479,1.448L35,81.009H34l.569,1.7a1.888,1.888,0,0,0,1.8,1.3,1.849,1.849,0,0,0,.879-.22A1.909,1.909,0,0,1,35.365,86" transform="translate(-28.006 -70.025)"/>
        <path id="Trazado_912204" data-name="Trazado 912204" d="M11,32.011h3V38H11a3,3,0,0,1,0-5.99" transform="translate(-7.002 -28.016)" fill="#ef5350"/>
        <path id="Trazado_912205" data-name="Trazado 912205" d="M65.984,19.992,56,17v-5.99l9.984-3Z" transform="translate(-49.011 -7.011)" fill="#e9f1f2"/>
        <path id="Trazado_912206" data-name="Trazado 912206" d="M65.984,31.66v2.9L56,31.56V25.57l3.075-.919a7.954,7.954,0,0,0,5.611,6.619Z" transform="translate(-49.011 -21.575)" fill="#d0d8da"/>
        <path id="Trazado_912207" data-name="Trazado 912207" d="M13.011,32.011V36h-1a3,3,0,0,1-3-3,.972.972,0,0,1,.02-.24.8.8,0,0,0-.14.12A3,3,0,0,0,11.014,38h3v-5.99Z" transform="translate(-7.02 -28.016)" fill="#e53935"/>
        <rect id="Rectángulo_403257" data-name="Rectángulo 403257" width="13.978" height="13.978" transform="translate(44.929 44.93)" fill="#ffd000"/>
        <rect id="Rectángulo_403258" data-name="Rectángulo 403258" width="3.994" height="3.994" transform="translate(49.921 44.93)" fill="#ffea00"/>
        <path id="Trazado_912208" data-name="Trazado 912208" d="M373.978,370.994v3H360V360.011h3v3a7.987,7.987,0,0,0,7.987,7.987Z" transform="translate(-315.071 -315.081)" fill="#ffb700"/>
        <path id="Trazado_912209" data-name="Trazado 912209" d="M134.37,110.586a1,1,0,0,0-1.6,1.2l.022.028a14.825,14.825,0,0,1,3.156,9.172,14.976,14.976,0,1,1-14.976-14.976,14.825,14.825,0,0,1,9.172,3.156,1,1,0,0,0,1.225-1.576,17.01,17.01,0,1,0,3,3" transform="translate(-91.021 -91.03)"/>
        <path id="Trazado_912210" data-name="Trazado 912210" d="M211.994,181.989a2,2,0,0,1-2-2,1,1,0,1,0-2,0,3.994,3.994,0,0,0,3,3.852v1.14a1,1,0,0,0,2,0v-1.14a3.986,3.986,0,0,0-1-7.846,2,2,0,1,1,2-2,1,1,0,0,0,2,0,3.994,3.994,0,0,0-3-3.852v-1.14a1,1,0,1,0-2,0v1.14a3.986,3.986,0,0,0,1,7.846,2,2,0,0,1,0,3.994" transform="translate(-182.041 -147.043)"/>
        <path id="Trazado_912211" data-name="Trazado 912211" d="M141.232,157.8a1,1,0,0,0,.235,1.392,13.005,13.005,0,1,0-3.058-3.058A1,1,0,0,0,140.051,155l-.016-.022a11.009,11.009,0,1,1,2.59,2.59,1,1,0,0,0-1.392.234Z" transform="translate(-119.028 -118.665)"/>
        <path id="Trazado_912212" data-name="Trazado 912212" d="M20.967,273.982H13.978V263a1,1,0,0,0-1-1H5.99v-4.992a1,1,0,0,0-2,0v1H1a1,1,0,0,0-1,1v23.962a1,1,0,0,0,2,0v-6.989h9.984v5.99h-2v-3a1,1,0,0,0-1-1H4.992a1,1,0,0,0-1,1v3.994a1,1,0,0,0,1,1H20.967a1,1,0,0,0,1-1v-7.987a1,1,0,0,0-1-1M2,260h2v2H2Zm0,11.981H8.986a1,1,0,0,0,0-2H2V264h9.984v2H4.992a1,1,0,0,0,0,2h6.989v5.99H2Zm3.994,7.987h2v2h-2Zm7.987,2v-5.99h5.99v2h-2a1,1,0,0,0,0,2h2v2Z" transform="translate(0 -224.06)"/>
        <path id="Trazado_912213" data-name="Trazado 912213" d="M344.884,17.972A8.976,8.976,0,0,0,352.62,4.428a1,1,0,0,0-1.72,1.015,6.935,6.935,0,0,1-.392,7.676,5,5,0,0,0-2.518-2.651,3.994,3.994,0,1,0-6.21,0,5,5,0,0,0-2.518,2.651,6.977,6.977,0,0,1,9.166-10.148,1,1,0,1,0,1.015-1.72,8.986,8.986,0,1,0-4.559,16.721m0-11.981a2,2,0,1,1-2,2,2,2,0,0,1,2-2m-1,5.99h2a2.989,2.989,0,0,1,2.97,2.751,6.957,6.957,0,0,1-7.937,0A2.989,2.989,0,0,1,343.885,11.982Z" transform="translate(-293.965 0)"/>
        <path id="Trazado_912214" data-name="Trazado 912214" d="M3.421,10.918l1.363,4.088A2.9,2.9,0,1,0,10.33,13.34q-.025-.083-.055-.164l-.446-1.339,7.033,2.11a1,1,0,0,0,1.282-.956v-3a1,1,0,0,0-2,0v1.653l-7.987-2.4v-4.5l7.987-2.4V6a1,1,0,0,0,2,0V1.009A1,1,0,0,0,16.858.052L7.014,3.005H4.166a3.994,3.994,0,0,0-.745,7.912Zm4.957,2.889a.887.887,0,0,1-.123.807.93.93,0,0,1-1.577-.241L5.551,10.993H7.014l.472.142ZM4.166,5h2V9h-2A2,2,0,1,1,4.166,5" transform="translate(-0.172 -0.009)"/>
        <path id="Trazado_912215" data-name="Trazado 912215" d="M366.976,352.011H353a1,1,0,0,0-1,1v13.978a1,1,0,0,0,1,1h13.978a1,1,0,0,0,1-1V360a1,1,0,0,0-2,0v5.99H354V354.008h3v3a1,1,0,0,0,1,1h3.994a1,1,0,0,0,1-1v-3h3v2a1,1,0,0,0,2,0v-3a1,1,0,0,0-1-1M360.986,356h-2v-2h2Z" transform="translate(-308.07 -308.079)"/>
        <path id="Trazado_912216" data-name="Trazado 912216" d="M429.8,176.664a1,1,0,0,0,1.319-.5,27.944,27.944,0,0,0,.529-21.5,1,1,0,0,0-1.861.723,25.949,25.949,0,0,1-.5,19.961,1,1,0,0,0,.508,1.317l0,0" transform="translate(-375.635 -134.816)"/>
        <path id="Trazado_912217" data-name="Trazado 912217" d="M208.564,429.352a25.812,25.812,0,0,1-15.384,1.8,1,1,0,0,0-.367,1.963,28.178,28.178,0,0,0,5.176.489,27.754,27.754,0,0,0,11.39-2.426,1,1,0,1,0-.815-1.823Z" transform="translate(-168.036 -375.692)"/>
        <path id="Trazado_912218" data-name="Trazado 912218" d="M18.18,148.758A27.789,27.789,0,0,0,16,159.6a1,1,0,1,0,2,0,25.8,25.8,0,0,1,2.024-10.065,1,1,0,0,0-1.827-.806Z" transform="translate(-14.003 -129.644)"/>
        <path id="Trazado_912219" data-name="Trazado 912219" d="M161.141,19.561a26.08,26.08,0,0,1,18.038.275,1,1,0,0,0,.724-1.857,28.08,28.08,0,0,0-19.427-.3,1,1,0,1,0,.612,1.9l.053-.019" transform="translate(-139.842 -14.083)"/>
      </g>
    </g>
  </g>
</svg>
