<svg xmlns="http://www.w3.org/2000/svg" xmlns:xlink="http://www.w3.org/1999/xlink" width="102.38" height="102.38" viewBox="0 0 102.38 102.38">
  <defs>
    <clipPath id="clip-path">
      <rect id="Rectángulo_403267" data-name="Rectángulo 403267" width="63" height="63" transform="translate(0 0.14)" fill="none"/>
    </clipPath>
  </defs>
  <g id="Grupo_1101506" data-name="Grupo 1101506" transform="translate(-433.81 -934.34)">
    <circle id="Elipse_11569" data-name="Elipse 11569" cx="49.69" cy="49.69" r="49.69" transform="translate(435.31 935.84)" fill="#efedee" stroke="#007dfe" stroke-miterlimit="10" stroke-width="3"/>
    <g id="Grupo_1101426" data-name="Grupo 1101426" transform="translate(453.051 952.86)">
      <path id="Trazado_912300" data-name="Trazado 912300" d="M118.037,201.68l-9.4,4.562-12.741.5-13.148-.215-8.992-4.846,22.14-5.062Z" transform="translate(-64.266 -172.363)" fill="#f4aa73"/>
      <g id="Grupo_1101425" data-name="Grupo 1101425" transform="translate(0 0)">
        <g id="Grupo_1101424" data-name="Grupo 1101424" clip-path="url(#clip-path)">
          <path id="Trazado_912301" data-name="Trazado 912301" d="M143.124,80.151l4.272,8.657a1.577,1.577,0,0,0,1.187.863l9.553,1.388a1.576,1.576,0,0,1,.874,2.689l-5.79,5.644-1.412,1.1a1.576,1.576,0,0,0-.453,1.4l1.922,9.508a1.577,1.577,0,0,1-2.288,1.662l-8.545-4.492a1.577,1.577,0,0,0-1.467,0l-8.545,4.492a1.576,1.576,0,0,1-2.287-1.662l2.617-9.456a1.577,1.577,0,0,0-.453-1.4l-5.824-6.492a1.576,1.576,0,0,1,.874-2.689l6.972-1.62.508-.074a1.576,1.576,0,0,0,1.187-.863l4.272-8.657a1.577,1.577,0,0,1,2.827,0" transform="translate(-110.08 -69.471)" fill="#ffdc00"/>
          <path id="Trazado_912302" data-name="Trazado 912302" d="M136.226,187.6,127.68,183.1a1.582,1.582,0,0,0-1.467,0l-8.546,4.493a1.577,1.577,0,0,1-2.287-1.663l1.632-9.514a1.576,1.576,0,0,0-.452-1.4l-6.914-6.738a1.577,1.577,0,0,1,.874-2.689l9.046-1.315a14.314,14.314,0,0,0,18.89,9.647l-1.123,1.094a1.576,1.576,0,0,0-.452,1.4l1.632,9.514a1.577,1.577,0,0,1-2.287,1.663" transform="translate(-95.317 -144.011)" fill="#fec108"/>
          <path id="Trazado_912303" data-name="Trazado 912303" d="M258.335,237.709v26.825a1.266,1.266,0,0,1-.982,1.234L236.195,270.6l-2.431-13.388,2.431-14.447,4.459.441,5.453-2.706Z" transform="translate(-204.564 -208.392)" fill="#f4aa73"/>
          <path id="Trazado_912304" data-name="Trazado 912304" d="M95.9,242.769V270.6l-18.443-4.215L75.6,265.166a1.266,1.266,0,0,1-.982-1.234l-.866-26.223,12.4,5.843Z" transform="translate(-64.266 -208.392)" fill="#e29a6c"/>
          <path id="Trazado_912305" data-name="Trazado 912305" d="M77.453,238.555V266.39l-2.715-.621a1.266,1.266,0,0,1-.982-1.234V237.71Z" transform="translate(-64.266 -208.393)" fill="#d48c64"/>
          <path id="Trazado_912306" data-name="Trazado 912306" d="M44.842,248.612l-8,8a.246.246,0,0,1-.228.066l-18.068-4.066-2.823-1a.246.246,0,0,1-.12-.415l7.114-6.823,3.848.062Z" transform="translate(-13.211 -214.235)" fill="#fbbd80"/>
          <path id="Trazado_912307" data-name="Trazado 912307" d="M21.264,238.592l-8.019,8.179-3.568-.8a.247.247,0,0,1-.12-.415l7.844-7.843,3.146.063Z" transform="translate(-7.911 -208.392)" fill="#f4aa73"/>
          <path id="Trazado_912308" data-name="Trazado 912308" d="M253.5,242.769l8,8a.246.246,0,0,0,.228.066l21.635-4.869a.247.247,0,0,0,.12-.415l-7.844-7.843Z" transform="translate(-221.866 -208.392)" fill="#fbbd80"/>
          <path id="Trazado_912309" data-name="Trazado 912309" d="M369.268,218.933a.931.931,0,0,1-.207-.023L361,217.066a.924.924,0,0,1,.412-1.8l8.063,1.843a.924.924,0,0,1-.205,1.826" transform="translate(-315.496 -188.692)"/>
          <path id="Trazado_912310" data-name="Trazado 912310" d="M67.171,218.957a.924.924,0,0,1-.205-1.826l8.047-1.839a.924.924,0,0,1,.412,1.8l-8.047,1.839a.933.933,0,0,1-.207.023" transform="translate(-57.682 -188.716)"/>
          <path id="Trazado_912311" data-name="Trazado 912311" d="M191.733,95.906H191.7a.924.924,0,0,1-.891-.956,2.491,2.491,0,0,1,.754-1.7l6.913-6.738a.652.652,0,0,0-.361-1.112l-9.553-1.388a2.5,2.5,0,0,1-1.883-1.368l-4.272-8.657a.652.652,0,0,0-1.17,0l-4.272,8.657a2.5,2.5,0,0,1-1.883,1.368l-2.272.33a.924.924,0,0,1-.266-1.829l2.272-.33a.652.652,0,0,0,.491-.357l4.272-8.657a2.5,2.5,0,0,1,4.485,0l4.272,8.657a.652.652,0,0,0,.491.357l9.553,1.388a2.5,2.5,0,0,1,1.386,4.266l-6.913,6.738a.65.65,0,0,0-.2.444.924.924,0,0,1-.923.892" transform="translate(-150.19 -62.893)"/>
          <path id="Trazado_912312" data-name="Trazado 912312" d="M110.455,176.631a.924.924,0,0,1-.923-.9.649.649,0,0,0-.2-.449l-6.913-6.738a2.5,2.5,0,0,1,1.386-4.266l3.076-.447a.924.924,0,1,1,.266,1.829l-3.076.447a.652.652,0,0,0-.361,1.112l6.913,6.739a2.488,2.488,0,0,1,.754,1.722.924.924,0,0,1-.9.949h-.026" transform="translate(-88.737 -143.607)"/>
          <path id="Trazado_912313" data-name="Trazado 912313" d="M73.617,332.574a.933.933,0,0,1-.207-.023L67.95,331.3a2.179,2.179,0,0,1-1.7-2.134V312.347a.924.924,0,0,1,1.849,0v16.821a.339.339,0,0,0,.265.332l5.46,1.248a.924.924,0,0,1-.205,1.826" transform="translate(-57.683 -273.026)"/>
          <path id="Trazado_912314" data-name="Trazado 912314" d="M165.053,336.408a2.162,2.162,0,0,1-.48-.054l-11.226-2.566a.924.924,0,1,1,.412-1.8l11.226,2.566a.308.308,0,0,0,.138,0L186,329.779a.339.339,0,0,0,.265-.332V312.665a.924.924,0,0,1,1.849,0v16.782a2.179,2.179,0,0,1-1.7,2.134l-20.883,4.773a2.167,2.167,0,0,1-.481.054" transform="translate(-133.422 -273.305)"/>
          <path id="Trazado_912315" data-name="Trazado 912315" d="M246.917,424.3a.924.924,0,0,1-.924-.924v-10.3a.924.924,0,0,1,1.849,0v10.3a.924.924,0,0,1-.924.924" transform="translate(-215.287 -361.349)"/>
          <path id="Trazado_912316" data-name="Trazado 912316" d="M246.917,286.173a.924.924,0,0,1-.924-.924V272.21a.924.924,0,0,1,1.849,0v13.039a.924.924,0,0,1-.924.924" transform="translate(-215.287 -237.833)"/>
          <path id="Trazado_912317" data-name="Trazado 912317" d="M23.128,245.206a.924.924,0,0,1-.2-.023l-22.2-5a.924.924,0,0,1-.451-1.555l8.161-8.161a.924.924,0,0,1,.86-.247l21.935,5.014,21.935-5.014a.924.924,0,0,1,.86.247l8.16,8.161a.924.924,0,0,1-.451,1.555l-13.4,3.016a.924.924,0,0,1-.406-1.8l11.761-2.647-6.612-6.613-21.383,4.888-7.909,7.909a.924.924,0,0,1-.654.271M2.764,238.751l20.07,4.517,6.555-6.555L9.377,232.139Z" transform="translate(0.405 -201.808)"/>
          <path id="Trazado_912318" data-name="Trazado 912318" d="M255.014,281.23a.924.924,0,0,1-.654-.271l-8.1-8.1a.924.924,0,0,1,1.307-1.307l7.737,7.737,4.123-.928a.924.924,0,0,1,.406,1.8l-4.62,1.04a.923.923,0,0,1-.2.023" transform="translate(-215.286 -237.831)"/>
          <path id="Trazado_912319" data-name="Trazado 912319" d="M246.917,5.644a.924.924,0,0,1-.924-.924V.924a.924.924,0,0,1,1.849,0v3.8a.924.924,0,0,1-.924.924" transform="translate(-215.287 0.036)"/>
          <path id="Trazado_912320" data-name="Trazado 912320" d="M246.917,5.644a.924.924,0,0,1-.924-.924V.924a.924.924,0,0,1,1.849,0v3.8a.924.924,0,0,1-.924.924" transform="translate(-215.287 0.036)"/>
          <path id="Trazado_912321" data-name="Trazado 912321" d="M310.2,69.988a.924.924,0,0,1-.708-1.518l2.44-2.908a.924.924,0,0,1,1.416,1.188l-2.44,2.908a.922.922,0,0,1-.709.33" transform="translate(-270.771 -57.16)"/>
          <path id="Trazado_912322" data-name="Trazado 912322" d="M310.2,69.988a.924.924,0,0,1-.708-1.518l2.44-2.908a.924.924,0,0,1,1.416,1.188l-2.44,2.908a.922.922,0,0,1-.709.33" transform="translate(-270.771 -57.16)"/>
          <path id="Trazado_912323" data-name="Trazado 912323" d="M397.45,103.514a.924.924,0,0,1-.595-1.632l2.908-2.44a.924.924,0,1,1,1.188,1.416l-2.908,2.44a.92.92,0,0,1-.594.216" transform="translate(-347.276 -86.967)"/>
          <path id="Trazado_912324" data-name="Trazado 912324" d="M397.45,103.514a.924.924,0,0,1-.595-1.632l2.908-2.44a.924.924,0,1,1,1.188,1.416l-2.908,2.44a.92.92,0,0,1-.594.216" transform="translate(-347.276 -86.967)"/>
          <path id="Trazado_912325" data-name="Trazado 912325" d="M166.273,69.987a.922.922,0,0,1-.709-.33l-2.44-2.908a.924.924,0,0,1,1.416-1.188l2.44,2.908a.924.924,0,0,1-.708,1.518" transform="translate(-142.436 -57.16)"/>
          <path id="Trazado_912326" data-name="Trazado 912326" d="M166.273,69.987a.922.922,0,0,1-.709-.33l-2.44-2.908a.924.924,0,0,1,1.416-1.188l2.44,2.908a.924.924,0,0,1-.708,1.518" transform="translate(-142.436 -57.16)"/>
          <path id="Trazado_912327" data-name="Trazado 912327" d="M75.688,103.515a.92.92,0,0,1-.594-.216l-2.908-2.44a.924.924,0,0,1,1.188-1.416l2.908,2.44a.924.924,0,0,1-.595,1.632" transform="translate(-62.6 -86.968)"/>
          <path id="Trazado_912328" data-name="Trazado 912328" d="M75.688,103.515a.92.92,0,0,1-.594-.216l-2.908-2.44a.924.924,0,0,1,1.188-1.416l2.908,2.44a.924.924,0,0,1-.595,1.632" transform="translate(-62.6 -86.968)"/>
        </g>
      </g>
    </g>
  </g>
</svg>
