<svg xmlns="http://www.w3.org/2000/svg" xmlns:xlink="http://www.w3.org/1999/xlink" width="105.051" height="98.119" viewBox="0 0 105.051 98.119">
  <defs>
    <clipPath id="clip-path">
      <rect id="Rectángulo_403313" data-name="Rectángulo 403313" width="85" height="77" transform="translate(0 0.497)" fill="none"/>
    </clipPath>
  </defs>
  <g id="Grupo_1101511" data-name="Grupo 1101511" transform="translate(-1210 -1173.946)">
    <g id="Grupo_1101492" data-name="Grupo 1101492" transform="translate(189.949 -1222.054)">
      <g id="Grupo_1100929" data-name="Grupo 1100929" transform="translate(1020.051 2396)">
        <rect id="Rectángulo_402862" data-name="Rectángulo 402862" width="64.105" height="98.119" rx="25" transform="translate(0 0)" fill="#fa6d61"/>
        <circle id="Elipse_11523" data-name="Elipse 11523" cx="13.737" cy="13.737" r="13.737" transform="translate(0 0)" fill="#ffbe01"/>
      </g>
      <g id="Grupo_1101494" data-name="Grupo 1101494" transform="translate(1040.101 2416.893)">
        <g id="Grupo_1101493" data-name="Grupo 1101493" transform="translate(0 -0.337)" clip-path="url(#clip-path)">
          <path id="Trazado_912631" data-name="Trazado 912631" d="M74.344,337.227H71.689V314.658H50.448v5.31A1.328,1.328,0,0,1,49.12,321.3H26.551v5.31a1.328,1.328,0,0,1-1.328,1.328H2.655v9.293H0V326.606a1.328,1.328,0,0,1,1.328-1.328H23.9v-5.31a1.328,1.328,0,0,1,1.328-1.328H47.792v-5.31A1.328,1.328,0,0,1,49.12,312h23.9a1.328,1.328,0,0,1,1.328,1.328Z" transform="translate(0 -259.725)"/>
          <path id="Trazado_912632" data-name="Trazado 912632" d="M41.967,142.988H35.33A1.328,1.328,0,0,1,34,141.66V130.774l-16.23-3.744a1.328,1.328,0,0,1-1.016-1.483l2.331-16.312-4,1.593-3.043,7.1a4.115,4.115,0,0,1-7.8-2.513l1.9-8.558a1.327,1.327,0,0,1,.7-.9L20.94,98.919a6.628,6.628,0,0,1,4.793-.445l6.424,1.836a6.6,6.6,0,0,1,2.036.981l8.2,5.852H52.467a4.1,4.1,0,0,1,.37,8.19l-12.081,1.1a1.347,1.347,0,0,1-.858-.218l-6.149-4.1-.969,8.713,10.93,3.643a1.327,1.327,0,0,1,.912,1.37L43.295,141.77a1.328,1.328,0,0,1-1.328,1.217m-5.31-2.655h4.089l1.139-13.674-10.958-3.652a1.328,1.328,0,0,1-.9-1.406l1.328-11.948a1.328,1.328,0,0,1,2.056-.958l7.575,5.045L52.6,112.677a1.448,1.448,0,0,0-.133-2.89h-10.5a1.328,1.328,0,0,1-.771-.247l-8.548-6.107a4.007,4.007,0,0,0-1.22-.589L25,101.009a3.983,3.983,0,0,0-2.876.266L8.61,108.049l-1.764,7.94a1.452,1.452,0,0,0,.285,1.229,1.512,1.512,0,0,0,2.479-.339l3.259-7.6a1.327,1.327,0,0,1,.728-.71l6.638-2.655a1.328,1.328,0,0,1,1.807,1.422L19.558,124.71l16.07,3.708a1.328,1.328,0,0,1,1.029,1.294Z" transform="translate(-3.468 -81.417)"/>
          <path id="Trazado_912633" data-name="Trazado 912633" d="M71.966,287.119H65.328A1.328,1.328,0,0,1,64,285.791a1.307,1.307,0,0,1,.009-.155l2.655-22.569,2.637.311-2.48,21.086h4.057l3.769-18.851,2.6.52-3.983,19.914a1.327,1.327,0,0,1-1.3,1.073" transform="translate(-53.38 -218.91)"/>
          <path id="Trazado_912634" data-name="Trazado 912634" d="M127.965,15.934a7.965,7.965,0,1,1,7.965-7.965,7.965,7.965,0,0,1-7.965,7.965m0-13.276a5.31,5.31,0,1,0,5.31,5.31,5.31,5.31,0,0,0-5.31-5.31" transform="translate(-100.086 0.5)"/>
          <rect id="Rectángulo_403312" data-name="Rectángulo 403312" width="3" height="33" transform="translate(58 20.497)"/>
          <path id="Trazado_912635" data-name="Trazado 912635" d="M370.5,22.569a11.1,11.1,0,0,1-5.933-1.529c-4.13-2.582-10.67.073-10.735.1A1.328,1.328,0,0,1,352,19.914V2.656a1.328,1.328,0,0,1,.816-1.225c.32-.133,7.864-3.214,13.163.1,4.13,2.582,10.67-.073,10.735-.1a1.328,1.328,0,0,1,1.837,1.225V19.914a1.327,1.327,0,0,1-.816,1.225,20.855,20.855,0,0,1-7.23,1.43m-10.459-5.31a11.1,11.1,0,0,1,5.933,1.529c3.261,2.039,8.024.814,9.917.192V4.5c-2.627.753-7.549,1.64-11.324-.722-3.261-2.038-8.024-.812-9.917-.2V18.066a20.057,20.057,0,0,1,5.391-.807" transform="translate(-293.587 0.502)"/>
        </g>
      </g>
    </g>
  </g>
</svg>
