<svg xmlns="http://www.w3.org/2000/svg" xmlns:xlink="http://www.w3.org/1999/xlink" width="102.38" height="102.38" viewBox="0 0 102.38 102.38">
  <defs>
    <clipPath id="clip-path">
      <rect id="Rectángulo_403266" data-name="Rectángulo 403266" width="61.812" height="63.068" fill="none"/>
    </clipPath>
  </defs>
  <g id="Grupo_1101507" data-name="Grupo 1101507" transform="translate(-748.811 -934.34)">
    <circle id="Elipse_11570" data-name="Elipse 11570" cx="49.69" cy="49.69" r="49.69" transform="translate(750.311 935.84)" fill="#efedee" stroke="#007dfe" stroke-miterlimit="10" stroke-width="3"/>
    <g id="Grupo_1101423" data-name="Grupo 1101423" transform="translate(769.094 952.86)">
      <g id="Grupo_1101422" data-name="Grupo 1101422" transform="translate(0)" clip-path="url(#clip-path)">
        <path id="Trazado_912284" data-name="Trazado 912284" d="M112.991,300.541h5.576v2.836a1.7,1.7,0,0,1-1.691,1.691h-2.194a1.7,1.7,0,0,1-1.691-1.691v-2.836Z" transform="translate(-99.073 -263.52)" fill="#ffc431" fill-rule="evenodd"/>
        <path id="Trazado_912285" data-name="Trazado 912285" d="M98.913,267.394h9.043v3.537a1.7,1.7,0,0,1-1.691,1.691H100.6a1.7,1.7,0,0,1-1.691-1.691v-3.537Z" transform="translate(-86.729 -234.456)" fill="#d1d1d6" fill-rule="evenodd"/>
        <path id="Trazado_912286" data-name="Trazado 912286" d="M144.309,282.376v1.691a1.678,1.678,0,0,1-.091.546,1.7,1.7,0,0,1-1.6,1.145h1.969a1.7,1.7,0,0,0,1.691-1.691v-1.692h-1.969Z" transform="translate(-125.05 -247.592)" fill="#ffc431" fill-rule="evenodd"/>
        <path id="Trazado_912287" data-name="Trazado 912287" d="M84.728,241.222H97.153v3.38a1.7,1.7,0,0,1-1.691,1.691H86.419a1.7,1.7,0,0,1-1.691-1.691v-3.38Z" transform="translate(-74.291 -211.508)" fill="#eceff1" fill-rule="evenodd"/>
        <path id="Trazado_912288" data-name="Trazado 912288" d="M157.576,254.93v1.691a1.7,1.7,0,0,1-1.691,1.691h2.026a1.7,1.7,0,0,0,1.634-1.69V254.93Z" transform="translate(-136.683 -223.528)" fill="#d1d1d6" fill-rule="evenodd"/>
        <path id="Trazado_912289" data-name="Trazado 912289" d="M61.1,57.212a10.4,10.4,0,0,1,10.4,10.4c0,5.778-3.691,5.433-4.192,13.95H54.89c-.5-8.517-4.192-8.172-4.192-13.95a10.4,10.4,0,0,1,10.4-10.4" transform="translate(-44.453 -50.165)" fill="#ffe177" fill-rule="evenodd"/>
        <path id="Trazado_912290" data-name="Trazado 912290" d="M127.169,57.259a10.405,10.405,0,0,1,9.42,10.358c0,5.367-3.185,5.451-4.039,12.262-.065.522-.117,1.083-.153,1.689h1.97c.5-8.517,4.192-8.172,4.192-13.95a10.4,10.4,0,0,0-10.4-10.4q-.5,0-.985.046" transform="translate(-111.504 -50.166)" fill="#ffd064" fill-rule="evenodd"/>
        <path id="Trazado_912291" data-name="Trazado 912291" d="M277.288,275.884a10.435,10.435,0,0,1,2.739,1.136l3.429-2.483,2.744,2.744-2.483,3.429a10.448,10.448,0,0,1,1.136,2.74l4.179.669V288l-4.179.669a10.435,10.435,0,0,1-1.136,2.74l2.483,3.429-2.744,2.744-3.429-2.483a10.441,10.441,0,0,1-2.739,1.136l-.669,4.179h-3.881l-.669-4.179a10.438,10.438,0,0,1-2.74-1.136l-3.429,2.483-2.744-2.744,2.483-3.429a10.432,10.432,0,0,1-1.136-2.74L260.325,288v-3.881l4.179-.669a10.433,10.433,0,0,1,1.136-2.74l-2.483-3.429,2.744-2.744,3.429,2.483a10.436,10.436,0,0,1,2.74-1.136l.669-4.179h3.881Z" transform="translate(-228.258 -238.236)" fill="#ffc431" fill-rule="evenodd"/>
        <path id="Trazado_912292" data-name="Trazado 912292" d="M441.175,308.829a10.436,10.436,0,0,1-1.136,2.74L442.522,315l-2.216,2.216.729.528L443.778,315l-2.483-3.429a10.437,10.437,0,0,0,1.136-2.74l4.179-.669V304.28l-4.179-.669a10.45,10.45,0,0,0-1.136-2.74l2.483-3.429-2.744-2.744-.729.528,2.216,2.216-2.483,3.429a10.445,10.445,0,0,1,1.136,2.74l4.179.669v3.881Z" transform="translate(-385.835 -258.397)" fill="#ffc431" fill-rule="evenodd"/>
        <path id="Trazado_912293" data-name="Trazado 912293" d="M330.592,345.869a5.733,5.733,0,1,1,3.824,7.15,5.733,5.733,0,0,1-3.824-7.15" transform="translate(-289.653 -299.694)" fill="#eceff1" fill-rule="evenodd"/>
        <path id="Trazado_912294" data-name="Trazado 912294" d="M331.565,347.423a5.735,5.735,0,0,0,5.106,5.7,5.818,5.818,0,0,1-.628.034,5.734,5.734,0,1,1,.628-11.433,5.728,5.728,0,0,0-5.106,5.7" transform="translate(-289.622 -299.6)" fill="#d1d1d6" fill-rule="evenodd"/>
        <path id="Trazado_912295" data-name="Trazado 912295" d="M75.21,364.364v-3.272l8.62,6.325-8.62,7.215v-3.146c-12.032,0-15.978-8.846-12.482-15.136,1.934,7.53,8.247,8.015,12.482,8.015" transform="translate(-53.928 -312.454)" fill="#6cf5c2" fill-rule="evenodd"/>
        <path id="Trazado_912296" data-name="Trazado 912296" d="M82.879,383.028l-6.554,5.485v-1.927c-10.1,0-14.826-5.878-14.519-11.637-1.544,5.945,2.776,12.845,13.4,12.845v3.146l8.62-7.215Z" transform="translate(-53.927 -328.764)" fill="#00e499" fill-rule="evenodd"/>
        <path id="Trazado_912297" data-name="Trazado 912297" d="M264.241,100.308v3.507L255,97.037l9.239-7.733v3.372c12.9,0,17.125,9.481,13.379,16.223-2.073-8.07-8.84-8.59-13.379-8.59" transform="translate(-223.591 -78.304)" fill="#fa6d61" fill-rule="evenodd"/>
        <path id="Trazado_912298" data-name="Trazado 912298" d="M263.132,148.944v2.677l-7.277-5.339L255,147l9.239,6.779v-3.507c4.059,0,9.9.416,12.571,6.273C274.05,149.6,267.688,148.944,263.132,148.944Z" transform="translate(-223.59 -128.263)" fill="#fd4755" fill-rule="evenodd"/>
        <path id="Trazado_912299" data-name="Trazado 912299" d="M39.716,13.016v1.262a.986.986,0,0,0,.985.985c5.79,0,10.332,2.076,12.461,5.694a8.962,8.962,0,0,1,.974,6.749,10.7,10.7,0,0,0-5.415-5.425,19.34,19.34,0,0,0-8.02-1.356.985.985,0,0,0-.985.985v1.562l-6.657-4.884Zm-9.239,5.655a.985.985,0,0,0,.4.763l9.24,6.779a.984.984,0,0,0,1.568-.794v-2.51c5.047.126,9.776,1.36,11.44,7.838a.985.985,0,0,0,.828.733,1.032,1.032,0,0,0,.127.008.988.988,0,0,0,.861-.507,11,11,0,0,0-.081-11.021,12.539,12.539,0,0,0-5.274-4.789,19.152,19.152,0,0,0-7.9-1.859v-2.4a.985.985,0,0,0-1.617-.756l-9.24,7.733A.987.987,0,0,0,30.477,18.671Zm-8.159,41.3V58.937a.986.986,0,0,0-.985-.986c-5.378,0-9.595-1.924-11.569-5.28a8.288,8.288,0,0,1-.945-6.065,10.021,10.021,0,0,0,5,4.923A18.1,18.1,0,0,0,21.333,52.8a.986.986,0,0,0,.985-.985V50.488l6.038,4.431Zm8.218-5.9-8.62-6.325a.985.985,0,0,0-1.568.795v2.274c-4.657-.127-9.009-1.289-10.543-7.262a.985.985,0,0,0-1.816-.234A10.328,10.328,0,0,0,8.066,53.67a11.763,11.763,0,0,0,4.948,4.494A17.89,17.89,0,0,0,20.348,59.9v2.18a.985.985,0,0,0,1.618.756l8.62-7.215a.985.985,0,0,0-.05-1.55Zm-1.1-42.3A.985.985,0,0,1,29.8,10.43l2.123-1.225a.985.985,0,1,1,.986,1.707l-2.123,1.226a.984.984,0,0,1-1.346-.361Zm-5.744-6.73L24.92,2.924a.985.985,0,1,1,1.707.985L25.4,6.032a.985.985,0,0,1-1.707-.985M3.962,11.776a.986.986,0,0,1-1.346.361L.494,10.912a.985.985,0,1,1,.986-1.707L3.6,10.43a.985.985,0,0,1,.361,1.346M6.774,3.909a.986.986,0,0,1,1.707-.985L9.706,5.047A.985.985,0,1,1,8,6.032Zm8.941-.473V.985a.985.985,0,0,1,1.971,0V3.436a.985.985,0,0,1-1.971,0m3.767,15.43V17.434a1.432,1.432,0,1,1,1.433,1.432ZM16.7,7.939a9.43,9.43,0,0,0-9.419,9.419,8.7,8.7,0,0,0,1.566,5.1A16.73,16.73,0,0,1,11.4,30.323h2.517V20.838H12.486a3.4,3.4,0,1,1,3.4-3.4v1.432h1.622V17.434a3.4,3.4,0,1,1,3.4,3.4H19.482v9.485H22a16.731,16.731,0,0,1,2.554-7.869,8.7,8.7,0,0,0,1.566-5.1A9.43,9.43,0,0,0,16.7,7.939Zm1.154,32.529H15.66a.707.707,0,0,1-.705-.705v-.705h3.6v.705a.706.706,0,0,1-.7.705m1.734-3.382H13.926a.707.707,0,0,1-.706-.705v-.705h7.073v.705A.706.706,0,0,1,19.588,37.086Zm2.339-4.792V33a.706.706,0,0,1-.7.705H12.179A.706.706,0,0,1,11.473,33v-.705Zm-4.416-1.971H15.889V20.838h1.622ZM13.918,18.867H12.486a1.432,1.432,0,1,1,1.432-1.432ZM9.5,31.341V33a2.681,2.681,0,0,0,1.747,2.51v.872a2.68,2.68,0,0,0,1.734,2.5v.877a2.679,2.679,0,0,0,2.676,2.676h2.195a2.679,2.679,0,0,0,2.676-2.676v-.877a2.68,2.68,0,0,0,1.734-2.5v-.916A2.681,2.681,0,0,0,23.9,33V31.34a15.06,15.06,0,0,1,2.356-7.891,10.555,10.555,0,0,0,1.836-6.091,11.39,11.39,0,1,0-22.78,0,10.555,10.555,0,0,0,1.836,6.091A15.059,15.059,0,0,1,9.5,31.341ZM46.472,52.477a4.748,4.748,0,1,1,4.747-4.748,4.753,4.753,0,0,1-4.747,4.748m0-11.468a6.719,6.719,0,1,0,6.718,6.719,6.727,6.727,0,0,0-6.718-6.719m13.369,7.819v-2.2l-3.35-.536a.986.986,0,0,1-.8-.729,9.5,9.5,0,0,0-1.028-2.481.985.985,0,0,1,.049-1.081L56.7,39.054,55.147,37.5,52.4,39.488a.985.985,0,0,1-1.08.049,9.483,9.483,0,0,0-2.481-1.028.985.985,0,0,1-.729-.8l-.536-3.349h-2.2l-.536,3.349a.986.986,0,0,1-.729.8,9.452,9.452,0,0,0-2.481,1.028.987.987,0,0,1-1.081-.049L37.8,37.5l-1.556,1.556L38.232,41.8a.985.985,0,0,1,.049,1.081,9.5,9.5,0,0,0-1.028,2.481.986.986,0,0,1-.8.729l-3.349.536v2.2l3.349.536a.985.985,0,0,1,.8.729,9.5,9.5,0,0,0,1.028,2.481.985.985,0,0,1-.049,1.081L36.241,56.4,37.8,57.959l2.749-1.99a.985.985,0,0,1,1.08-.049,9.45,9.45,0,0,0,2.481,1.029.987.987,0,0,1,.729.8l.536,3.349h2.2l.536-3.349a.984.984,0,0,1,.729-.8,9.467,9.467,0,0,0,2.481-1.029.985.985,0,0,1,1.08.049l2.748,1.99L56.7,56.4l-1.989-2.748a.985.985,0,0,1-.049-1.081,9.507,9.507,0,0,0,1.028-2.481.986.986,0,0,1,.8-.729Zm1.141-4.013-3.561-.569a11.287,11.287,0,0,0-.744-1.8l2.115-2.921a.985.985,0,0,0-.1-1.275L55.947,35.51a.985.985,0,0,0-1.275-.1L51.75,37.524a11.462,11.462,0,0,0-1.795-.745l-.57-3.56a.986.986,0,0,0-.973-.83h-3.88a.986.986,0,0,0-.973.83l-.57,3.56a11.414,11.414,0,0,0-1.795.745l-2.921-2.116a.986.986,0,0,0-1.275.1l-2.744,2.744a.986.986,0,0,0-.1,1.275l2.116,2.921a11.383,11.383,0,0,0-.745,1.795l-3.561.57a.986.986,0,0,0-.83.973v3.88a.986.986,0,0,0,.83.973l3.561.57a11.407,11.407,0,0,0,.745,1.795l-2.116,2.922a.986.986,0,0,0,.1,1.275L37,59.947a.987.987,0,0,0,1.275.1l2.921-2.116a11.355,11.355,0,0,0,1.795.745l.57,3.56a.986.986,0,0,0,.973.83h3.88a.986.986,0,0,0,.973-.83l.57-3.561a11.39,11.39,0,0,0,1.795-.744l2.922,2.116a.986.986,0,0,0,1.275-.1L58.691,57.2a.985.985,0,0,0,.1-1.275l-2.115-2.922a11.463,11.463,0,0,0,.745-1.795l3.56-.57a.987.987,0,0,0,.83-.973v-3.88A.987.987,0,0,0,60.982,44.815Z" transform="translate(0)" fill-rule="evenodd"/>
      </g>
    </g>
  </g>
</svg>
