<svg xmlns="http://www.w3.org/2000/svg" xmlns:xlink="http://www.w3.org/1999/xlink" width="102.38" height="102.38" viewBox="0 0 102.38 102.38">
  <defs>
    <clipPath id="clip-path">
      <rect id="Rectángulo_403265" data-name="Rectángulo 403265" width="63.068" height="61.143" fill="none"/>
    </clipPath>
  </defs>
  <g id="Grupo_1101508" data-name="Grupo 1101508" transform="translate(-1063.81 -934.34)">
    <circle id="Elipse_11571" data-name="Elipse 11571" cx="49.69" cy="49.69" r="49.69" transform="translate(1065.31 935.84)" fill="#efedee" stroke="#007dfe" stroke-miterlimit="10" stroke-width="3"/>
    <g id="Grupo_1101421" data-name="Grupo 1101421" transform="translate(1084.032 959.714)">
      <g id="Grupo_1101420" data-name="Grupo 1101420" transform="translate(0 0)" clip-path="url(#clip-path)">
        <path id="Trazado_912254" data-name="Trazado 912254" d="M66.375,182.654H9.846A2.346,2.346,0,0,1,7.5,180.309v-2.135a2.346,2.346,0,0,1,2.346-2.346H66.374a2.346,2.346,0,0,1,2.346,2.346v2.135a2.346,2.346,0,0,1-2.346,2.346" transform="translate(-6.576 -154.17)" fill="#8ab2ee"/>
        <path id="Trazado_912255" data-name="Trazado 912255" d="M35.38,7.5a7.966,7.966,0,1,1-7.966,7.966A7.966,7.966,0,0,1,35.38,7.5" transform="translate(-24.037 -6.576)" fill="#007dfe"/>
        <path id="Trazado_912256" data-name="Trazado 912256" d="M199.3,7.5a7.966,7.966,0,1,1-7.966,7.966A7.966,7.966,0,0,1,199.3,7.5" transform="translate(-167.764 -6.576)" fill="#ff9aca"/>
        <path id="Trazado_912257" data-name="Trazado 912257" d="M363.216,7.5a7.966,7.966,0,1,1-7.966,7.966A7.966,7.966,0,0,1,363.216,7.5" transform="translate(-311.49 -6.576)" fill="#ffe540"/>
        <path id="Trazado_912258" data-name="Trazado 912258" d="M48.46,17.556A7.964,7.964,0,0,1,37.469,28.547,7.965,7.965,0,1,0,48.46,17.556" transform="translate(-32.854 -15.393)" fill="#3588cb"/>
        <path id="Trazado_912259" data-name="Trazado 912259" d="M212.378,17.555a7.964,7.964,0,0,1-10.991,10.991,7.965,7.965,0,1,0,10.991-10.991" transform="translate(-176.58 -15.393)" fill="#ff7ab9"/>
        <path id="Trazado_912260" data-name="Trazado 912260" d="M376.3,17.555a7.964,7.964,0,0,1-10.991,10.991A7.965,7.965,0,1,0,376.3,17.555" transform="translate(-320.307 -15.393)" fill="gold"/>
        <path id="Trazado_912261" data-name="Trazado 912261" d="M80.885,203.536a4.162,4.162,0,1,1-4.162,4.162,4.162,4.162,0,0,1,4.162-4.162" transform="translate(-67.272 -178.464)" fill="#af6f80"/>
        <path id="Trazado_912262" data-name="Trazado 912262" d="M62.047,331.471l-2.7,3.042a5.087,5.087,0,0,0-1.282,3.376v3.069a5.087,5.087,0,0,0,2.531,4.4l1.45.842V331.471Z" transform="translate(-50.913 -290.641)" fill="#ffd89e"/>
        <path id="Trazado_912263" data-name="Trazado 912263" d="M105.918,257.935h0a2.219,2.219,0,0,0-2.219,2.219v-2.177a2.219,2.219,0,1,0-4.439,0v-2.1a2.219,2.219,0,0,0-4.439,0v-6.736a2.219,2.219,0,1,0-4.439,0v22.923a4.661,4.661,0,0,0,4.661,4.661h8.433a4.661,4.661,0,0,0,4.661-4.661V260.154a2.22,2.22,0,0,0-2.22-2.219" transform="translate(-79.249 -216.507)" fill="#ffd89e"/>
        <path id="Trazado_912264" data-name="Trazado 912264" d="M106.623,336.322h0a2.218,2.218,0,0,0-2.092,1.484v8.951a4.661,4.661,0,0,1-4.661,4.661H91.438c-.084,0-.168,0-.251-.007a4.662,4.662,0,0,0,4.562,3.7h8.433a4.661,4.661,0,0,0,4.661-4.661V338.541a2.219,2.219,0,0,0-2.219-2.219" transform="translate(-79.955 -294.894)" fill="#ffc479"/>
        <path id="Trazado_912265" data-name="Trazado 912265" d="M28.8,17.779a8.89,8.89,0,1,1,8.89-8.89,8.9,8.9,0,0,1-8.89,8.89m0-15.932A7.042,7.042,0,1,0,35.846,8.89,7.05,7.05,0,0,0,28.8,1.848" transform="translate(-17.461)"/>
        <path id="Trazado_912266" data-name="Trazado 912266" d="M63.965,76.82a4.84,4.84,0,0,1-3.738-1.758.924.924,0,1,1,1.423-1.179,3,3,0,0,0,4.63,0A.924.924,0,0,1,67.7,75.062a4.84,4.84,0,0,1-3.738,1.758" transform="translate(-52.622 -64.489)"/>
        <path id="Trazado_912267" data-name="Trazado 912267" d="M60.938,49.452a.891.891,0,0,1-.18-.018.913.913,0,0,1-.473-.253.8.8,0,0,1-.114-.141.852.852,0,0,1-.085-.159.87.87,0,0,1-.053-.172.9.9,0,0,1,0-.362.87.87,0,0,1,.053-.172.942.942,0,0,1,.2-.3.982.982,0,0,1,.141-.116.954.954,0,0,1,.333-.137.935.935,0,0,1,.834.253.982.982,0,0,1,.114.141.931.931,0,0,1,.085.159,1.07,1.07,0,0,1,.053.172,1,1,0,0,1,.017.181.923.923,0,0,1-.924.924" transform="translate(-52.621 -41.741)"/>
        <path id="Trazado_912268" data-name="Trazado 912268" d="M110.068,49.445a.9.9,0,0,1-.181-.018.937.937,0,0,1-.172-.052,1,1,0,0,1-.16-.085.974.974,0,0,1-.14-.116.851.851,0,0,1-.115-.141.93.93,0,0,1-.085-.159.959.959,0,0,1-.053-.172.906.906,0,0,1-.018-.181.885.885,0,0,1,.018-.18.974.974,0,0,1,.053-.174.93.93,0,0,1,.085-.159.906.906,0,0,1,.115-.141.891.891,0,0,1,.14-.114.833.833,0,0,1,.16-.085.854.854,0,0,1,.172-.053.89.89,0,0,1,.361,0,.854.854,0,0,1,.172.053.8.8,0,0,1,.16.085.891.891,0,0,1,.14.114.922.922,0,0,1,0,1.306.974.974,0,0,1-.14.116.948.948,0,0,1-.16.085.937.937,0,0,1-.172.052.891.891,0,0,1-.18.018" transform="translate(-95.699 -41.734)"/>
        <path id="Trazado_912269" data-name="Trazado 912269" d="M192.722,17.779a8.89,8.89,0,1,1,8.89-8.89,8.9,8.9,0,0,1-8.89,8.89m0-15.932a7.042,7.042,0,1,0,7.042,7.042,7.05,7.05,0,0,0-7.042-7.042" transform="translate(-161.188)"/>
        <path id="Trazado_912270" data-name="Trazado 912270" d="M230.909,73.171a.922.922,0,0,1-.712-.334,3,3,0,0,0-4.63,0,.924.924,0,0,1-1.423-1.179,4.852,4.852,0,0,1,7.475,0,.924.924,0,0,1-.711,1.513" transform="translate(-196.348 -61.29)"/>
        <path id="Trazado_912271" data-name="Trazado 912271" d="M224.858,49.445a.915.915,0,0,1-.181-.018.88.88,0,0,1-.172-.053.852.852,0,0,1-.159-.084.946.946,0,0,1-.256-.256.94.94,0,0,1-.085-.159.961.961,0,0,1-.052-.174.894.894,0,0,1-.018-.18.916.916,0,0,1,.018-.181.978.978,0,0,1,.052-.172.94.94,0,0,1,.085-.159.946.946,0,0,1,.256-.256.852.852,0,0,1,.159-.084.88.88,0,0,1,.172-.053.921.921,0,0,1,.535.053.856.856,0,0,1,.159.084.917.917,0,0,1,.14.116.928.928,0,0,1,.271.653.885.885,0,0,1-.018.18.946.946,0,0,1-.052.174.85.85,0,0,1-.086.159.84.84,0,0,1-.114.141.917.917,0,0,1-.14.116.856.856,0,0,1-.159.084.937.937,0,0,1-.354.071" transform="translate(-196.35 -41.734)"/>
        <path id="Trazado_912272" data-name="Trazado 912272" d="M273.988,49.445a.9.9,0,0,1-.181-.018.918.918,0,0,1-.333-.137.974.974,0,0,1-.14-.116.858.858,0,0,1-.115-.141.931.931,0,0,1-.085-.159.957.957,0,0,1-.053-.172.9.9,0,0,1-.018-.181.884.884,0,0,1,.018-.18.93.93,0,0,1,.138-.332.914.914,0,0,1,.115-.141.891.891,0,0,1,.14-.114.8.8,0,0,1,.16-.085.855.855,0,0,1,.172-.053.89.89,0,0,1,.361,0,.854.854,0,0,1,.172.053.83.83,0,0,1,.16.085.89.89,0,0,1,.14.114.922.922,0,0,1,0,1.306.972.972,0,0,1-.14.116.993.993,0,0,1-.16.085.937.937,0,0,1-.172.052.9.9,0,0,1-.18.018" transform="translate(-239.427 -41.734)"/>
        <path id="Trazado_912273" data-name="Trazado 912273" d="M356.64,18.931a8.891,8.891,0,0,1-3.378-17.115.924.924,0,1,1,.7,1.709,7.043,7.043,0,1,0,4.1-.383.924.924,0,0,1,.371-1.81,8.89,8.89,0,0,1-1.791,17.6" transform="translate(-304.914 -1.152)"/>
        <path id="Trazado_912274" data-name="Trazado 912274" d="M437.907,53.095a.891.891,0,0,1-.18-.018.9.9,0,0,1-.333-.137.914.914,0,0,1-.14-.116.84.84,0,0,1-.115-.14.856.856,0,0,1-.085-.159.87.87,0,0,1-.053-.172.9.9,0,0,1,0-.362.872.872,0,0,1,.053-.172.856.856,0,0,1,.085-.159.84.84,0,0,1,.115-.14.921.921,0,0,1,.14-.116.985.985,0,0,1,.159-.085.968.968,0,0,1,.174-.052.89.89,0,0,1,.361,0,.927.927,0,0,1,.172.052.937.937,0,0,1,.159.085.864.864,0,0,1,.14.116.915.915,0,0,1,.116.14.938.938,0,0,1,.085.159.962.962,0,0,1,.053.172.959.959,0,0,1,0,.362.959.959,0,0,1-.053.172.938.938,0,0,1-.085.159.914.914,0,0,1-.116.14.858.858,0,0,1-.14.116.907.907,0,0,1-.331.137.913.913,0,0,1-.181.018" transform="translate(-383.156 -44.934)"/>
        <path id="Trazado_912275" data-name="Trazado 912275" d="M388.777,53.095a.912.912,0,0,1-.181-.018.967.967,0,0,1-.172-.052.939.939,0,0,1-.3-.2.985.985,0,0,1-.114-.14.933.933,0,0,1-.085-.159.967.967,0,0,1-.052-.172.9.9,0,0,1,0-.362.97.97,0,0,1,.052-.172.933.933,0,0,1,.085-.159.985.985,0,0,1,.114-.14.939.939,0,0,1,.3-.2.956.956,0,0,1,.172-.052.89.89,0,0,1,.361,0,.9.9,0,0,1,.333.137.924.924,0,0,1,.14.116.839.839,0,0,1,.114.14.852.852,0,0,1,.085.159.88.88,0,0,1,.053.172.9.9,0,0,1,0,.362.878.878,0,0,1-.053.172.852.852,0,0,1-.085.159.839.839,0,0,1-.114.14.927.927,0,0,1-.653.271" transform="translate(-340.077 -44.934)"/>
        <path id="Trazado_912276" data-name="Trazado 912276" d="M394.827,79.048h-6.052a.924.924,0,1,1,0-1.848h6.052a.924.924,0,1,1,0,1.848" transform="translate(-340.076 -67.691)"/>
        <path id="Trazado_912277" data-name="Trazado 912277" d="M59.8,177H22.63a.924.924,0,1,1,0-1.848H59.8a1.423,1.423,0,0,0,1.422-1.422V171.6a1.423,1.423,0,0,0-1.422-1.422H3.27A1.423,1.423,0,0,0,1.848,171.6v2.135a1.423,1.423,0,0,0,1.422,1.422H9.3A.924.924,0,1,1,9.3,177H3.27A3.273,3.273,0,0,1,0,173.732V171.6a3.273,3.273,0,0,1,3.27-3.27H59.8a3.273,3.273,0,0,1,3.27,3.27v2.135A3.273,3.273,0,0,1,59.8,177" transform="translate(0 -147.593)"/>
        <path id="Trazado_912278" data-name="Trazado 912278" d="M76.7,205.454a.924.924,0,0,1-.531-1.68,3.238,3.238,0,1,0-3.963-.194.924.924,0,0,1-1.2,1.4,5.085,5.085,0,1,1,6.226.3.92.92,0,0,1-.53.168" transform="translate(-60.696 -171.887)"/>
        <path id="Trazado_912279" data-name="Trazado 912279" d="M96.9,271.073H88.466a5.591,5.591,0,0,1-5.585-5.585v-7.472c0-.009,0-.017,0-.026V242.565a3.143,3.143,0,1,1,6.286,0v3.872a3.144,3.144,0,0,1,4.355,2.139,3.143,3.143,0,0,1,4.454,2.169,3.143,3.143,0,0,1,4.507,2.832v11.911a5.591,5.591,0,0,1-5.585,5.585m-12.17-13.031v7.446a3.741,3.741,0,0,0,3.737,3.737H96.9a3.742,3.742,0,0,0,3.738-3.737V253.577a1.3,1.3,0,1,0-2.591,0,.924.924,0,1,1-1.848,0V251.4a1.3,1.3,0,1,0-2.591,0,.924.924,0,1,1-1.848,0v-2.1a1.3,1.3,0,0,0-2.591,0,.924.924,0,1,1-1.848,0v-6.736a1.3,1.3,0,1,0-2.591,0v15.451c0,.009,0,.017,0,.026" transform="translate(-72.672 -209.93)"/>
        <path id="Trazado_912280" data-name="Trazado 912280" d="M119.84,320.411a.924.924,0,0,1-.924-.924v-6.442a.924.924,0,1,1,1.848,0v6.442a.924.924,0,0,1-.924.924" transform="translate(-104.268 -273.675)"/>
        <path id="Trazado_912281" data-name="Trazado 912281" d="M155.875,337.2a.924.924,0,0,1-.924-.924V330.09a.924.924,0,0,1,1.848,0v6.183a.924.924,0,0,1-.924.924" transform="translate(-135.864 -288.619)"/>
        <path id="Trazado_912282" data-name="Trazado 912282" d="M191.91,353.45a.924.924,0,0,1-.924-.924v-4.764a.924.924,0,1,1,1.848,0v4.764a.924.924,0,0,1-.924.924" transform="translate(-167.46 -304.115)"/>
        <path id="Trazado_912283" data-name="Trazado 912283" d="M55.47,340.548a.919.919,0,0,1-.463-.125l-1.449-.842a6.03,6.03,0,0,1-2.991-5.2v-3.069a6.006,6.006,0,0,1,1.514-3.989l2.7-3.042a.924.924,0,1,1,1.382,1.226l-2.7,3.042a4.16,4.16,0,0,0-1.049,2.763v3.069a4.176,4.176,0,0,0,2.072,3.6l1.449.842a.924.924,0,0,1-.465,1.723" transform="translate(-44.337 -284.066)"/>
      </g>
    </g>
  </g>
</svg>
