<svg xmlns="http://www.w3.org/2000/svg" xmlns:xlink="http://www.w3.org/1999/xlink" width="86" height="86" viewBox="0 0 86 86">
  <defs>
    <clipPath id="clip-path">
      <rect id="Rectángulo_403246" data-name="Rectángulo 403246" width="86" height="86" transform="translate(0.262 -0.405)" fill="none"/>
    </clipPath>
  </defs>
  <g id="Grupo_1101502" data-name="Grupo 1101502" transform="translate(-850.051 -6180)">
    <g id="Grupo_1101410" data-name="Grupo 1101410" transform="translate(849.789 6180.405)">
      <g id="Grupo_1101409" data-name="Grupo 1101409" transform="translate(0 0)" clip-path="url(#clip-path)">
        <path id="Trazado_912170" data-name="Trazado 912170" d="M55.159,217.162v-45.73A11.433,11.433,0,0,0,43.727,160H19.432A11.433,11.433,0,0,0,8,171.432v45.73Z" transform="translate(-6.277 -131.746)" fill="#ffc431"/>
        <path id="Trazado_912171" data-name="Trazado 912171" d="M132.862,96v12.147a6.431,6.431,0,1,1-12.862,0V96Z" transform="translate(-98.27 -79.178)" fill="#ffceb6"/>
        <path id="Trazado_912172" data-name="Trazado 912172" d="M137.149,48V60.862a8.574,8.574,0,1,1-17.149,0V55.145L127.145,48Z" transform="translate(-98.27 -39.753)" fill="#ffceb6"/>
        <path id="Trazado_912173" data-name="Trazado 912173" d="M137.149,15.145l.905-.453A3.533,3.533,0,0,0,136.474,8h-9.329A7.145,7.145,0,0,0,120,15.145v7.145l7.145-7.145Z" transform="translate(-98.27 -6.898)" fill="#c47220"/>
        <path id="Trazado_912174" data-name="Trazado 912174" d="M354,168.574h-8.574L344,160h11.432Z" transform="translate(-282.257 -131.746)" fill="#c5dafa"/>
        <path id="Trazado_912175" data-name="Trazado 912175" d="M352,208a4.287,4.287,0,0,0,8.574,0Z" transform="translate(-288.828 -171.171)" fill="#bed3f7"/>
        <path id="Trazado_912176" data-name="Trazado 912176" d="M340.011,58a9.979,9.979,0,0,1-3.23,7.36l-1.057,2.644H324.291l-1.057-2.644A10,10,0,1,1,340.011,58" transform="translate(-262.548 -39.752)" fill="#ffc431"/>
        <path id="Trazado_912177" data-name="Trazado 912177" d="M113.06,242.909l10.027-12.892,12.649,10.277,17.149-12.862v-8.142a1.862,1.862,0,0,1,3.411-1.033l2.305,3.458L165.746,216l2.7,3.6a7.943,7.943,0,0,1-2.268,11.577l-3.289,1.973-13.33,16.406a17.485,17.485,0,0,1-24.261,2.81Z" transform="translate(-92.57 -177.742)" fill="#ffceb6"/>
        <rect id="Rectángulo_403235" data-name="Rectángulo 403235" width="5" height="7" transform="translate(59.262 76.595)" fill="#3a5cd6"/>
        <rect id="Rectángulo_403236" data-name="Rectángulo 403236" width="6" height="13" transform="translate(64.262 70.595)" fill="#4367e0"/>
        <rect id="Rectángulo_403237" data-name="Rectángulo 403237" width="5" height="20" transform="translate(70.262 63.595)" fill="#4976f2"/>
        <rect id="Rectángulo_403238" data-name="Rectángulo 403238" width="6" height="27" transform="translate(75.262 56.595)" fill="#548aff"/>
        <path id="Trazado_912178" data-name="Trazado 912178" d="M153.429,80A1.429,1.429,0,1,1,152,81.429,1.429,1.429,0,0,1,153.429,80" transform="translate(-124.554 -66.036)"/>
        <path id="Trazado_912179" data-name="Trazado 912179" d="M154.5,118.212v-2.858h-3.7a3.427,3.427,0,0,1-2.439-1.011l-2.021,2.021a6.267,6.267,0,0,0,4.46,1.848Z" transform="translate(-119.908 -94.245)"/>
        <path id="Trazado_912180" data-name="Trazado 912180" d="M185.429,80A1.429,1.429,0,1,1,184,81.429,1.429,1.429,0,0,1,185.429,80" transform="translate(-150.838 -66.036)"/>
        <path id="Trazado_912181" data-name="Trazado 912181" d="M2.858,40.014a10.015,10.015,0,0,1,10-10h7.179a7.858,7.858,0,0,0,15.652,0h1.463a10.015,10.015,0,0,1,10,10V57.877l-4.252,3.189-22-17.874-1.8,2.218,9.131,7.419L19.943,63.492,6.59,53.174,4.842,55.435,31.559,76.08a18.944,18.944,0,0,0,15.6,3.515v6.149h2.858v-7.01A18.864,18.864,0,0,0,57.8,73.041L70.975,56.829l3.073-1.844a9.373,9.373,0,0,0,2.676-13.66l-2.7-3.6a1.414,1.414,0,0,0-1.124-.571l1.365-8.188.884-2.21a11.432,11.432,0,1,0-16.167-.2q.1.1.2.2l.884,2.21L61.453,37.3a5.687,5.687,0,0,0,.181,1.3,3.293,3.293,0,0,0-3.043,3.278V49.3l-8.574,6.431V40.014A12.876,12.876,0,0,0,38.181,27.2a9.945,9.945,0,0,0,1.833-5.761V9.458l.115-.058A4.962,4.962,0,0,0,37.91,0H28.581a8.584,8.584,0,0,0-8.574,8.574V27.152H12.862A12.876,12.876,0,0,0,0,40.014v45.73H2.858Zm62.3-19.625,1.211.808a1.429,1.429,0,0,0,1.585,0l1.212-.808-1.691,6.764h-.627ZM71.2,30.01l-.953,5.716H64.089l-.953-5.716Zm-6.5,8.574h4.943a2.852,2.852,0,0,1-4.943,0Zm-6.1-20.007a8.574,8.574,0,1,1,14.38,6.308,1.43,1.43,0,0,0-.359.52l-.7,1.746H70.425L72.839,17.5A1.429,1.429,0,0,0,70.66,15.96l-3.495,2.33-3.495-2.33A1.429,1.429,0,0,0,61.492,17.5l2.414,9.657H62.417l-.7-1.746a1.43,1.43,0,0,0-.359-.52A8.6,8.6,0,0,1,58.592,18.578ZM60.878,51.16a1.429,1.429,0,0,0,.572-1.143V41.875a.433.433,0,0,1,.793-.24l2.306,3.458a1.429,1.429,0,0,0,1.982.4c.034-.023.068-.047.1-.073l5.994-4.8,1.814,2.419a6.514,6.514,0,0,1-1.86,9.495l-3.289,1.973a1.431,1.431,0,0,0-.374.324L55.585,71.238a16.056,16.056,0,0,1-22.278,2.58L22.2,65.239l8.251-10.608,11.516,9.357a1.429,1.429,0,0,0,1.759.034Zm-32.3-48.3H37.91a2.1,2.1,0,0,1,.941,3.985l-.6.3H28.581a1.429,1.429,0,0,0-1.011.419L22.865,12.27v-3.7a5.723,5.723,0,0,1,5.716-5.716M22.865,16.311,29.173,10h7.983V21.436a7.145,7.145,0,0,1-14.291,0ZM30.01,31.439a9.976,9.976,0,0,0,2.512-.32A5,5,0,0,1,22.865,29.3v-.869a9.972,9.972,0,0,0,7.145,3.012" transform="translate(0.294 -0.327)"/>
        <rect id="Rectángulo_403239" data-name="Rectángulo 403239" width="4" height="5" transform="translate(65.262 -0.405)"/>
        <rect id="Rectángulo_403240" data-name="Rectángulo 403240" width="2.858" height="4.287" transform="translate(53.306 6.13) rotate(-45)"/>
        <rect id="Rectángulo_403241" data-name="Rectángulo 403241" width="4" height="3" transform="translate(49.262 16.595)"/>
        <rect id="Rectángulo_403242" data-name="Rectángulo 403242" width="4.287" height="2.858" transform="translate(53.304 30.382) rotate(-45)"/>
        <rect id="Rectángulo_403243" data-name="Rectángulo 403243" width="2.858" height="4.287" transform="translate(76.542 29.372) rotate(-45)"/>
        <rect id="Rectángulo_403244" data-name="Rectángulo 403244" width="5" height="3" transform="translate(81.262 16.595)"/>
        <rect id="Rectángulo_403245" data-name="Rectángulo 403245" width="4.287" height="2.858" transform="translate(76.545 7.143) rotate(-45)"/>
        <path id="Trazado_912182" data-name="Trazado 912182" d="M332.581,313.429A1.429,1.429,0,0,0,331.152,312h-5.716a1.429,1.429,0,0,0-1.429,1.429v5.716H319.72a1.429,1.429,0,0,0-1.429,1.429v5.716H314a1.429,1.429,0,0,0-1.429,1.429v4.287h-4.287a1.429,1.429,0,0,0-1.429,1.429v5.716H304v2.858h31.439v-2.858h-2.858Zm-22.865,21.436h2.858v4.287h-2.858Zm5.716-5.716h2.858v10h-2.858ZM321.149,322h2.858v17.149h-2.858Zm5.716-7.145h2.858v24.294h-2.858Z" transform="translate(-249.402 -256.594)"/>
      </g>
    </g>
  </g>
</svg>
