<svg xmlns="http://www.w3.org/2000/svg" xmlns:xlink="http://www.w3.org/1999/xlink" width="102.38" height="102.38" viewBox="0 0 102.38 102.38">
  <defs>
    <clipPath id="clip-path">
      <rect id="Rect치ngulo_403156" data-name="Rect치ngulo 403156" width="56.978" height="56.969" fill="none"/>
    </clipPath>
    <clipPath id="clip-path-3">
      <rect id="Rect치ngulo_403154" data-name="Rect치ngulo 403154" width="13.74" height="49.377" fill="none"/>
    </clipPath>
  </defs>
  <g id="Grupo_1101386" data-name="Grupo 1101386" transform="translate(-433.81 -1002.631)">
    <circle id="Elipse_4034" data-name="Elipse 4034" cx="49.69" cy="49.69" r="49.69" transform="translate(435.31 1004.131)" fill="#efedee" stroke="#007dfe" stroke-miterlimit="10" stroke-width="3"/>
    <g id="Grupo_1101287" data-name="Grupo 1101287" transform="translate(460.879 1023.75)">
      <g id="Grupo_1101291" data-name="Grupo 1101291" transform="translate(0 0)" clip-path="url(#clip-path)">
        <g id="Grupo_1101290" data-name="Grupo 1101290">
          <g id="Grupo_1101289" data-name="Grupo 1101289" clip-path="url(#clip-path)">
            <path id="Trazado_912033" data-name="Trazado 912033" d="M48.415,58.088V45.516a2.849,2.849,0,0,0-2.849-2.849H11.382a2.849,2.849,0,0,0-2.849,2.849V89.2a2.849,2.849,0,0,0,2.849,2.849H37.523Z" transform="translate(-7.583 -37.919)" fill="#007dfe"/>
            <g id="Grupo_1101288" data-name="Grupo 1101288" transform="translate(27.091 4.748)" style="mix-blend-mode: multiply;isolation: isolate">
              <g id="Grupo_1101287-2" data-name="Grupo 1101287">
                <g id="Grupo_1101286" data-name="Grupo 1101286" clip-path="url(#clip-path-3)">
                  <path id="Trazado_912034" data-name="Trazado 912034" d="M254.347,42.667H251.5a2.849,2.849,0,0,1,2.849,2.849V58.088L243.456,92.044H246.3L257.2,58.088V45.516a2.849,2.849,0,0,0-2.849-2.849" transform="translate(-243.456 -42.667)" fill="#007dfe"/>
                </g>
              </g>
            </g>
            <path id="Trazado_912035" data-name="Trazado 912035" d="M74.952,88.214V77.75A.95.95,0,0,0,74,76.8H43.617a.95.95,0,0,0-.95.95v39.881a.949.949,0,0,0,.95.95H62.76Z" transform="translate(-37.919 -68.254)" fill="#f5f5f5"/>
            <path id="Trazado_912036" data-name="Trazado 912036" d="M211.724,76.8h-2.849a.949.949,0,0,1,.95.95V88.214l-12.192,30.367h2.849l12.192-30.367V77.75a.949.949,0,0,0-.95-.95" transform="translate(-175.64 -68.254)" fill="#cfd8dc"/>
            <path id="Trazado_912037" data-name="Trazado 912037" d="M210.9,185.846a18.062,18.062,0,1,1-2.583-2.583" transform="translate(-158.937 -159.259)" fill="#f44335"/>
            <path id="Trazado_912038" data-name="Trazado 912038" d="M343.935,185.847l-2.583-2.583a17.911,17.911,0,0,0-11.395-4.064c-.446,0-.885.035-1.323.066a17.9,17.9,0,0,1,9.869,4l2.583,2.583a18.02,18.02,0,0,1-12.553,29.364c.475.037.944.072,1.424.072a18.032,18.032,0,0,0,13.978-29.436Z" transform="translate(-291.975 -159.259)" fill="#c81e1e"/>
            <path id="Trazado_912039" data-name="Trazado 912039" d="M235.16,221.867a13.294,13.294,0,1,1-13.294,13.294,13.294,13.294,0,0,1,13.294-13.294" transform="translate(-197.177 -197.178)" fill="#f5f5f5"/>
            <path id="Trazado_912040" data-name="Trazado 912040" d="M329.957,221.867a13.331,13.331,0,0,0-1.424.079,13.294,13.294,0,0,1,0,26.43,13.294,13.294,0,1,0,1.424-26.509" transform="translate(-291.975 -197.178)" fill="#cfd8dc"/>
            <path id="Trazado_912041" data-name="Trazado 912041" d="M273.079,264.533a8.546,8.546,0,1,1-8.546,8.546,8.546,8.546,0,0,1,8.546-8.546" transform="translate(-235.097 -235.097)" fill="#f44335"/>
            <path id="Trazado_912042" data-name="Trazado 912042" d="M329.957,264.532a8.6,8.6,0,0,0-1.424.128,8.536,8.536,0,0,1,0,16.836,8.546,8.546,0,1,0,1.424-16.964Z" transform="translate(-291.975 -235.096)" fill="#c81e1e"/>
            <path id="Trazado_912043" data-name="Trazado 912043" d="M311,307.2a3.8,3.8,0,1,1-3.8,3.8,3.8,3.8,0,0,1,3.8-3.8" transform="translate(-273.016 -273.016)" fill="#f5f5f5"/>
            <path id="Trazado_912044" data-name="Trazado 912044" d="M329.957,307.2a3.765,3.765,0,0,0-1.424.285,3.79,3.79,0,0,1,0,7.027,3.8,3.8,0,1,0,1.424-7.312" transform="translate(-291.975 -273.016)" fill="#cfd8dc"/>
            <path id="Trazado_912045" data-name="Trazado 912045" d="M450.086,181.11l-1.6-1.6a1.01,1.01,0,0,0-1.424,0l-3.028,3.028a1.01,1.01,0,0,0-.3.714v1.6a1.009,1.009,0,0,0,1.009,1.009h1.6a1.011,1.011,0,0,0,.714-.3l3.028-3.028a1.009,1.009,0,0,0,0-1.424" transform="translate(-394.357 -159.27)" fill="#ff9801"/>
            <path id="Trazado_912046" data-name="Trazado 912046" d="M453.157,181.11l-1.6-1.6a1.009,1.009,0,0,0-1.424,0l-.71.711.89.89a1.009,1.009,0,0,1,0,1.424l-3.028,3.031a.983.983,0,0,1-.09.06.993.993,0,0,0,.625.236h1.6a1.011,1.011,0,0,0,.714-.3l3.028-3.028a1.009,1.009,0,0,0,0-1.424" transform="translate(-397.428 -159.27)" fill="#f57c00"/>
            <path id="Trazado_912047" data-name="Trazado 912047" d="M114.757,12.332v3.8a.95.95,0,0,1-.95.95H94.817a.95.95,0,0,1-.95-.95v-3.8a.949.949,0,0,1,.95-.95h2.849l.517-1.55a1.9,1.9,0,0,1,1.8-1.3h8.656a1.9,1.9,0,0,1,1.8,1.3l.515,1.55h2.849A.949.949,0,0,1,114.757,12.332Z" transform="translate(-83.422 -7.584)" fill="#9e9e9e"/>
            <path id="Trazado_912048" data-name="Trazado 912048" d="M203.877,8.533h-2.849a1.9,1.9,0,0,1,1.8,1.3l.515,1.55H206.2l-.517-1.55A1.9,1.9,0,0,0,203.877,8.533Z" transform="translate(-178.658 -7.583)" fill="#707070"/>
            <path id="Trazado_912049" data-name="Trazado 912049" d="M250.316,34.133h-2.849a.95.95,0,0,1,.949.95v3.8a.949.949,0,0,1-.949.95h2.849a.949.949,0,0,0,.95-.95v-3.8a.95.95,0,0,0-.95-.95" transform="translate(-219.93 -30.335)" fill="#707070"/>
            <path id="Trazado_912050" data-name="Trazado 912050" d="M3.8,55.074H29.759A18.96,18.96,0,0,0,53.4,26.932l3-3a1.959,1.959,0,0,0,0-2.77h0l-.127-.126.425-.43a.95.95,0,0,0-1.352-1.333l-.421.424-.13-.13a2.006,2.006,0,0,0-2.77,0l-3,2.992a18.942,18.942,0,0,0-7.252-3.169V7.6a3.8,3.8,0,0,0-3.8-3.8H32.021a1.893,1.893,0,0,0-1.635-.95H28.222l-.3-.9A2.849,2.849,0,0,0,25.219,0H16.561a2.849,2.849,0,0,0-2.7,1.949l-.3.9H11.395A1.893,1.893,0,0,0,9.76,3.8H3.8A3.8,3.8,0,0,0,0,7.6v43.68a3.8,3.8,0,0,0,3.8,3.8m34.184,0a17.092,17.092,0,1,1,10.445-30.6v1.1a1.934,1.934,0,0,0,.083.533l-1.164,1.165a14.293,14.293,0,1,0,1.343,1.343l1.163-1.164a1.939,1.939,0,0,0,.533.083h1.1a17.067,17.067,0,0,1-13.5,27.537m2.849-17.092a2.849,2.849,0,1,1-2.849-2.849,2.8,2.8,0,0,1,1.22.285L37.311,37.31a.95.95,0,0,0,1.319,1.366l.023-.023,1.892-1.891a2.8,2.8,0,0,1,.285,1.22M40.6,34.025a4.762,4.762,0,1,0,1.343,1.343l2.037-2.039a7.621,7.621,0,1,1-1.341-1.341Zm3.391-3.391a9.51,9.51,0,1,0,1.343,1.343l2.017-2.016A12.379,12.379,0,1,1,46,28.618Zm6.362-6.7,3.111-3.027.8.8v.006h.006l.787.788v.084l-3.069,3.048-1.661-.06ZM39.882,7.6V19.1a18.894,18.894,0,0,0-1.9-.105V9.5a1.9,1.9,0,0,0-1.9-1.9h-3.8V5.7h5.7a1.9,1.9,0,0,1,1.9,1.9M11.395,4.748h2.849a.95.95,0,0,0,.9-.65l.517-1.55a.95.95,0,0,1,.9-.65h8.658a.95.95,0,0,1,.9.65l.517,1.55a.95.95,0,0,0,.9.65h2.849v3.8H11.395Zm18.991,5.7a1.892,1.892,0,0,0,1.635-.95h4.062v9.59a18.942,18.942,0,0,0-11.641,5.6h-6.4a.95.95,0,1,0,0,1.9h4.784a18.913,18.913,0,0,0-3.21,6.647H18.042a.95.95,0,1,0,0,1.9h1.187a18.213,18.213,0,0,0,.145,6.647H18.042a.95.95,0,1,0,0,1.9h1.825a18.947,18.947,0,0,0,2.959,5.7H5.7V9.5H9.76a1.892,1.892,0,0,0,1.635.95ZM1.9,7.6A1.9,1.9,0,0,1,3.8,5.7H9.5V7.6H5.7A1.9,1.9,0,0,0,3.8,9.5V49.377a1.9,1.9,0,0,0,1.9,1.9H24.443a19.244,19.244,0,0,0,2.193,1.9H3.8a1.9,1.9,0,0,1-1.9-1.9Z"/>
            <path id="Trazado_912051" data-name="Trazado 912051" d="M180.15,34.133a.95.95,0,1,1-.95.95.95.95,0,0,1,.95-.95" transform="translate(-159.259 -30.335)"/>
            <path id="Trazado_912052" data-name="Trazado 912052" d="M85.705,132.469l.95.95a.95.95,0,0,0,.671.278h.067a.95.95,0,0,0,.692-.38l2.849-3.8a.95.95,0,1,0-1.519-1.139L87.223,131.3l-.176-.176a.95.95,0,0,0-1.343,1.343" transform="translate(-75.931 -113.756)"/>
            <path id="Trazado_912053" data-name="Trazado 912053" d="M154.55,146.965h13.294a.95.95,0,0,0,0-1.9H154.55a.95.95,0,0,0,0,1.9" transform="translate(-136.508 -128.924)"/>
            <path id="Trazado_912054" data-name="Trazado 912054" d="M89.414,205.179,87.222,208.1l-.176-.176a.95.95,0,0,0-1.343,1.343l.95.95a.95.95,0,0,0,.671.278h.067a.95.95,0,0,0,.692-.38l2.849-3.8a.95.95,0,1,0-1.519-1.139" transform="translate(-75.93 -182.01)"/>
            <path id="Trazado_912055" data-name="Trazado 912055" d="M89.414,281.979,87.222,284.9l-.176-.176a.95.95,0,0,0-1.343,1.343l.95.95a.949.949,0,0,0,.671.278h.067a.949.949,0,0,0,.692-.38l2.849-3.8a.95.95,0,1,0-1.519-1.139Z" transform="translate(-75.93 -250.264)"/>
            <path id="Trazado_912056" data-name="Trazado 912056" d="M89.414,358.779,87.222,361.7l-.176-.176a.95.95,0,0,0-1.343,1.343l.95.95a.949.949,0,0,0,.671.278h.067a.95.95,0,0,0,.692-.38l2.849-3.8a.95.95,0,1,0-1.519-1.139Z" transform="translate(-75.93 -318.518)"/>
          </g>
        </g>
      </g>
    </g>
  </g>
</svg>
