<svg xmlns="http://www.w3.org/2000/svg" xmlns:xlink="http://www.w3.org/1999/xlink" width="102.38" height="102.38" viewBox="0 0 102.38 102.38">
  <defs>
    <clipPath id="clip-path">
      <rect id="Rect치ngulo_403158" data-name="Rect치ngulo 403158" width="55.976" height="56.973" fill="none"/>
    </clipPath>
  </defs>
  <g id="Grupo_1101387" data-name="Grupo 1101387" transform="translate(-748.811 -1002.631)">
    <circle id="Elipse_5204" data-name="Elipse 5204" cx="49.69" cy="49.69" r="49.69" transform="translate(750.311 1004.131)" fill="#efedee" stroke="#007dfe" stroke-miterlimit="10" stroke-width="3"/>
    <g id="Grupo_1101288" data-name="Grupo 1101288" transform="translate(772.012 1026.917)">
      <g id="Grupo_1101293" data-name="Grupo 1101293" transform="translate(0)" clip-path="url(#clip-path)">
        <path id="Trazado_912057" data-name="Trazado 912057" d="M315.337,18.88,315.191,16l-2.869-.363a7.685,7.685,0,0,0-.93-1.944l1.531-2.439L310.769,9.32l-2.289,1.758a7.807,7.807,0,0,0-2.042-.722l-.653-2.8-2.9.147-.368,2.848a7.809,7.809,0,0,0-1.958.925L298.1,9.961,296.153,12.1l1.769,2.272a7.688,7.688,0,0,0-.729,2.027l-2.817.65.146,2.881,2.869.363a7.684,7.684,0,0,0,.93,1.944l-1.531,2.439,2.155,1.934,2.289-1.758a7.808,7.808,0,0,0,2.041.722l.653,2.8,2.9-.147.368-2.848a7.807,7.807,0,0,0,1.958-.925l2.455,1.518,1.949-2.141-1.769-2.272a7.69,7.69,0,0,0,.729-2.027Zm-10.278,3.086a4.006,4.006,0,1,1,3.828-4.2,4.02,4.02,0,0,1-3.828,4.2" transform="translate(-261.619 -6.718)" fill="#007dfe"/>
        <path id="Trazado_912058" data-name="Trazado 912058" d="M179.45,94.055l18.19,7.975,8.1-18.472L202.4,74.975l-12.229-5.362Z" transform="translate(-159.481 -61.867)" fill="#f0f0ff"/>
        <path id="Trazado_912059" data-name="Trazado 912059" d="M316.476,151.823,309.1,168.646l3.763,1.65,8.1-18.472-2.1-5.4Z" transform="translate(-274.704 -130.132)" fill="#e8e8ff"/>
        <path id="Trazado_912060" data-name="Trazado 912060" d="M364.672,117.8l-2.627,5.946,5.97,2.637Z" transform="translate(-321.758 -104.689)" fill="#cfcfff"/>
        <rect id="Rect치ngulo_403157" data-name="Rect치ngulo 403157" width="14.376" height="14.33" transform="translate(37.223 30.21)" fill="#8ab2ee"/>
        <path id="Trazado_912061" data-name="Trazado 912061" d="M467.24,252.038,463.7,255.8V241.466l3.535-3.759Z" transform="translate(-412.105 -211.256)" fill="#fa6d61"/>
        <path id="Trazado_912062" data-name="Trazado 912062" d="M348.887,241.467H334.51l3.535-3.759h14.376Z" transform="translate(-297.287 -211.257)" fill="#ffbe01"/>
        <path id="Trazado_912063" data-name="Trazado 912063" d="M272.824,367.61l1.661-1.663-1.349-1.932a6.269,6.269,0,0,0,.666-1.624l2.31-.408-.01-2.359-2.314-.423a6.362,6.362,0,0,0-.679-1.628l1.333-1.923-1.675-1.673-1.922,1.335a6.358,6.358,0,0,0-1.629-.678l-.424-2.313-2.359-.007-.406,2.311a6.262,6.262,0,0,0-1.624.668l-1.933-1.347-1.661,1.663,1.349,1.932a6.263,6.263,0,0,0-.666,1.624l-2.31.408.01,2.359,2.314.422a6.358,6.358,0,0,0,.679,1.628l-1.333,1.923,1.675,1.673,1.922-1.335a6.362,6.362,0,0,0,1.629.678l.424,2.313,2.359.007.406-2.311a6.263,6.263,0,0,0,1.624-.668Zm-7.264-4.744a2.962,2.962,0,1,1,4.2.013,2.973,2.973,0,0,1-4.2-.013" transform="translate(-230.341 -313.109)" fill="#007dfe"/>
        <path id="Trazado_912064" data-name="Trazado 912064" d="M93.943,58.209c-.137,0-.275,0-.413,0A17.177,17.177,0,0,0,85.871,90.5v2.884A2.128,2.128,0,0,0,88,95.519h5.948Z" transform="translate(-68.293 -51.732)" fill="#fdf486"/>
        <path id="Trazado_912065" data-name="Trazado 912065" d="M183.007,393.5h-5.948v4.7a3.825,3.825,0,0,0,3.825,3.825h2.122Z" transform="translate(-157.356 -349.715)" fill="#fa6d61"/>
        <path id="Trazado_912066" data-name="Trazado 912066" d="M354.465,375.68l2.31-.408-.01-2.359-2.314-.423a6.364,6.364,0,0,0-.679-1.628l1.333-1.923-1.675-1.673-1.922,1.335a6.355,6.355,0,0,0-1.564-.66,8.182,8.182,0,0,1,.7,12.048,6.25,6.25,0,0,0,.906-.437l1.933,1.347,1.661-1.663L353.8,377.3A6.266,6.266,0,0,0,354.465,375.68Z" transform="translate(-311.004 -326.398)" fill="#007dfe"/>
        <path id="Trazado_912067" data-name="Trazado 912067" d="M117.549,26.409a.85.85,0,0,0-.838-.8h-9.677l1.57-3.581a.853.853,0,0,0,.013-.643l-.8-2.064a8.658,8.658,0,0,0,1.3-.6l2.016,1.247a.844.844,0,0,0,1.064-.149l1.949-2.141a.841.841,0,0,0,.042-1.083l-1.447-1.858a8.531,8.531,0,0,0,.439-1.221l2.311-.534a.841.841,0,0,0,.651-.862l-.146-2.881a.841.841,0,0,0-.734-.792l-2.353-.3a8.527,8.527,0,0,0-.56-1.171l1.253-1.995a.841.841,0,0,0-.151-1.073l-2.155-1.934a.841.841,0,0,0-1.074-.041l-1.88,1.443A8.64,8.64,0,0,0,107.1,2.94L106.562.65A.84.84,0,0,0,105.7,0l-2.9.147a.841.841,0,0,0-.792.732l-.3,2.332a8.639,8.639,0,0,0-1.188.561L98.5,2.527a.841.841,0,0,0-1.064.149L95.489,4.817A.841.841,0,0,0,95.448,5.9l1.447,1.858a8.529,8.529,0,0,0-.356.945L92.6,6.976a.841.841,0,0,0-1.108.433l-3.344,7.627V1.97a.841.841,0,0,0-1.682,0V5.654a17.952,17.952,0,0,0-14.273,8.2.841.841,0,0,0,1.41.917A16.273,16.273,0,0,1,86.465,7.337V42.947H81.279A1.288,1.288,0,0,1,80,41.656V38.772a.841.841,0,0,0-.442-.741A16.339,16.339,0,0,1,71.7,18.8a.841.841,0,0,0-1.606-.5,18.022,18.022,0,0,0,8.215,20.966v2.389a2.977,2.977,0,0,0,2.124,2.851v3.984A4.672,4.672,0,0,0,85.1,53.157h1.361v2.975a.841.841,0,0,0,1.682,0V36l8.57,3.757-.193,1.1a7.083,7.083,0,0,0-.827.34l-1.51-1.052a.841.841,0,0,0-1.076.1L91.451,41.9a.841.841,0,0,0-.095,1.076l1.054,1.509a7.118,7.118,0,0,0-.34.828l-1.8.317a.841.841,0,0,0-.695.832l.01,2.359a.841.841,0,0,0,.69.824l1.809.33a7.183,7.183,0,0,0,.349.838l-1.039,1.5a.841.841,0,0,0,.1,1.074l1.675,1.673a.841.841,0,0,0,1.074.1l1.5-1.04a7.181,7.181,0,0,0,.839.349l.332,1.809a.841.841,0,0,0,.825.689l2.359.007h0a.841.841,0,0,0,.828-.7l.316-1.8a7.076,7.076,0,0,0,.827-.34l1.51,1.052a.841.841,0,0,0,1.076-.1l1.661-1.663a.841.841,0,0,0,.095-1.076l-1.054-1.509a7.118,7.118,0,0,0,.34-.828l1.8-.317a.841.841,0,0,0,.7-.832l-.01-2.359a.841.841,0,0,0-.69-.824l-1.7-.31c2.407-.011,4.852-.011,7.229-.011a.858.858,0,0,0,.771-.25l3.535-3.759a.841.841,0,0,0,.228-.576V26.451C117.553,26.437,117.55,26.423,117.549,26.409Zm-2.784.883-1.916,2.038H100.782l1.917-2.038ZM105.274,12.8a.857.857,0,0,0-.446-.465l-3.192-1.4a3.192,3.192,0,1,1,4.2,3.308Zm-.833,2.5.908,2.332.961,2.467-3.338-1.474Zm-5.9-8.162L97.21,5.426l1-1.1,1.861,1.151a.841.841,0,0,0,.9-.012,6.964,6.964,0,0,1,1.747-.825.841.841,0,0,0,.584-.7l.278-2.152,1.5-.076.493,2.112a.841.841,0,0,0,.651.633,6.959,6.959,0,0,1,1.822.645.842.842,0,0,0,.9-.079l1.735-1.333,1.108.994-1.154,1.839a.841.841,0,0,0,.012.913,6.851,6.851,0,0,1,.828,1.731.841.841,0,0,0,.7.582l2.17.275.074,1.474-2.131.492a.841.841,0,0,0-.634.649,6.843,6.843,0,0,1-.65,1.806.842.842,0,0,0,.08.909l1.334,1.713-1,1.1-1.861-1.151a.841.841,0,0,0-.9.012,6.97,6.97,0,0,1-1.45.724l-.756-1.941a4.852,4.852,0,1,0-6.4-5.573L98.09,9.383a6.868,6.868,0,0,1,.535-1.336A.841.841,0,0,0,98.544,7.138ZM85.1,51.475a2.987,2.987,0,0,1-2.984-2.984V44.629h4.345v6.846Zm3.043-32.25,4.547-10.37L103.38,13.54l-2.286,5.175a.841.841,0,0,0,.429,1.109l5.2,2.3L105.2,25.61h-2.862a.841.841,0,0,0-.613.265l-3.535,3.759a1.543,1.543,0,0,0-.243.941v7.789h-.221l-9.576-4.2ZM106.5,48.169l-1.613.285a.841.841,0,0,0-.669.621,5.423,5.423,0,0,1-.577,1.406.841.841,0,0,0,.036.907l.945,1.354-.665.666-1.355-.944a.841.841,0,0,0-.907-.035,5.424,5.424,0,0,1-1.406.578.841.841,0,0,0-.62.67l-.283,1.613-.952,0-.3-1.626A.841.841,0,0,0,97.526,53a5.524,5.524,0,0,1-1.414-.588.841.841,0,0,0-.908.033l-1.345.934-.681-.68.933-1.346a.841.841,0,0,0,.032-.908,5.526,5.526,0,0,1-.59-1.413.841.841,0,0,0-.663-.614l-1.627-.3,0-.952,1.613-.285a.841.841,0,0,0,.669-.621,5.422,5.422,0,0,1,.577-1.406.841.841,0,0,0-.036-.907l-.945-1.354.665-.666,1.355.944a.84.84,0,0,0,.907.035,5.427,5.427,0,0,1,1.406-.578.841.841,0,0,0,.62-.67l.283-1.613.952,0,.3,1.626a.841.841,0,0,0,.615.662,5.518,5.518,0,0,1,1.414.588.841.841,0,0,0,.908-.033l1.345-.934.681.68-.933,1.346a.841.841,0,0,0-.033.908,5.529,5.529,0,0,1,.59,1.413.841.841,0,0,0,.663.614l1.627.3Zm7.515-5.753c0-.828,0-2.874,0-2.874a.841.841,0,0,0-1.682,0v4.142c-2.123,0-4.291,0-6.433.011l.468-.675a.841.841,0,0,0-.1-1.074L104.6,40.273a.841.841,0,0,0-1.074-.1l-1.5,1.04a7.191,7.191,0,0,0-.839-.349l-.332-1.809a1,1,0,0,0-1.217-.691c-.014-.934.087-5.819,0-7.318h12.7v4.1a.841.841,0,0,0,1.682,0s0-3.162,0-4.61l1.85-1.967V40.448Z" transform="translate(-61.577 0)" fill="#060606"/>
        <path id="Trazado_912068" data-name="Trazado 912068" d="M304.841,394.042h-.012a3.788,3.788,0,0,0-3.792,3.808,3.84,3.84,0,0,0,3.824,3.82h.012a3.788,3.788,0,0,0,3.792-3.808,3.84,3.84,0,0,0-3.824-3.82Zm1.525,5.329a2.08,2.08,0,0,1-1.5.618,2.158,2.158,0,0,1-2.147-2.145,2.106,2.106,0,0,1,2.117-2.119,2.158,2.158,0,0,1,2.147,2.145A2.1,2.1,0,0,1,306.367,399.371Z" transform="translate(-267.538 -350.194)" fill="#060606"/>
        <path id="Trazado_912069" data-name="Trazado 912069" d="M68.362,50.637a.862.862,0,0,0,.595-1.436l-2.868-2.868a.841.841,0,0,0-1.19,1.189l2.868,2.868a.839.839,0,0,0,.595.246" transform="translate(-57.457 -40.956)" fill="#060606"/>
        <path id="Trazado_912070" data-name="Trazado 912070" d="M4.871,206.081H.816a.841.841,0,0,0,0,1.682H4.871a.841.841,0,0,0,0-1.682" transform="translate(0 -183.149)" fill="#060606"/>
        <path id="Trazado_912071" data-name="Trazado 912071" d="M70.073,339.552l-2.868,2.868a.841.841,0,0,0,1.189,1.189l2.868-2.868a.841.841,0,0,0-1.19-1.189" transform="translate(-59.506 -301.547)" fill="#060606"/>
      </g>
    </g>
  </g>
</svg>
