<svg xmlns="http://www.w3.org/2000/svg" xmlns:xlink="http://www.w3.org/1999/xlink" width="102.38" height="102.38" viewBox="0 0 102.38 102.38">
  <defs>
    <clipPath id="clip-path">
      <rect id="Rectángulo_403159" data-name="Rectángulo 403159" width="64.329" height="65.933" fill="none"/>
    </clipPath>
  </defs>
  <g id="Grupo_1101388" data-name="Grupo 1101388" transform="translate(-1063.81 -1002.631)">
    <circle id="Elipse_5205" data-name="Elipse 5205" cx="49.69" cy="49.69" r="49.69" transform="translate(1065.31 1004.131)" fill="#efedee" stroke="#007dfe" stroke-miterlimit="10" stroke-width="3"/>
    <g id="Grupo_1101295" data-name="Grupo 1101295" transform="translate(1082.835 1019.269)">
      <g id="Grupo_1101294" data-name="Grupo 1101294" clip-path="url(#clip-path)">
        <path id="Trazado_912072" data-name="Trazado 912072" d="M192.775,7.5a20.6,20.6,0,1,1-20.6,20.6,20.6,20.6,0,0,1,20.6-20.6" transform="translate(-150.007 -6.534)" fill="#eef7ff"/>
        <path id="Trazado_912073" data-name="Trazado 912073" d="M46.829,173.631a17.963,17.963,0,1,0-35.926,0q0,.769.064,1.522a1.433,1.433,0,0,1-.1.65l-3.314,8.323a.979.979,0,0,0,.526,1.263l3.039,1.293a1.456,1.456,0,0,1,.875,1.164l.886,7.31a1.978,1.978,0,0,0,1.964,1.74H21.22a1.456,1.456,0,0,1,1.456,1.456V199.9a.684.684,0,0,0,.684.684h18.1a.684.684,0,0,0,.684-.684V189.59a11.739,11.739,0,0,1,1.875-6.31,17.877,17.877,0,0,0,2.809-9.649" transform="translate(-6.52 -135.621)" fill="#f7eadc"/>
        <path id="Trazado_912074" data-name="Trazado 912074" d="M133.721,173.655a17.874,17.874,0,0,1,1.815,21.77,11.451,11.451,0,0,0-1.817,6.22v5.794a5.2,5.2,0,0,1-5.2,5.2H117.781a1.455,1.455,0,0,1,.988,1.378v1.555a.684.684,0,0,0,.684.684h18.1a.684.684,0,0,0,.684-.684V205.261a11.451,11.451,0,0,1,1.817-6.22,17.928,17.928,0,0,0-6.335-25.386" transform="translate(-102.614 -151.292)" fill="#f3ded1"/>
        <path id="Trazado_912075" data-name="Trazado 912075" d="M172.236,155.678q-.054.75-.055,1.513a20.6,20.6,0,0,0,17.7,20.392,17.973,17.973,0,0,0-17.645-21.905" transform="translate(-150.008 -135.63)" fill="#fa6d61"/>
        <path id="Trazado_912076" data-name="Trazado 912076" d="M250.35,193.27a17.928,17.928,0,0,0-8.763-19.587,17.86,17.86,0,0,1,3.6,18.153,20.451,20.451,0,0,0,5.159,1.434" transform="translate(-210.477 -151.317)" fill="#ffbe01"/>
        <path id="Trazado_912077" data-name="Trazado 912077" d="M251.222,70.429H250.9a.963.963,0,0,1-.911-.667,12.206,12.206,0,0,0-.683-1.645A.964.964,0,0,1,249.482,67l.226-.226a.956.956,0,0,0,0-1.353l-3.18-3.18a.956.956,0,0,0-1.353,0l-.226.226a.964.964,0,0,1-1.118.172,12.222,12.222,0,0,0-1.645-.683.963.963,0,0,1-.667-.911v-.318a.956.956,0,0,0-.956-.956h-4.5a.956.956,0,0,0-.956.956v.318a.963.963,0,0,1-.667.911,12.207,12.207,0,0,0-1.645.683.964.964,0,0,1-1.118-.172l-.226-.226a.956.956,0,0,0-1.353,0l-3.18,3.18a.956.956,0,0,0,0,1.353l.226.226a.964.964,0,0,1,.172,1.118,12.231,12.231,0,0,0-.683,1.645.963.963,0,0,1-.911.667h-.318a.956.956,0,0,0-.956.956v4.5a.956.956,0,0,0,.956.956h.318a.963.963,0,0,1,.911.667,12.206,12.206,0,0,0,.683,1.645.964.964,0,0,1-.172,1.118l-.226.226a.956.956,0,0,0,0,1.353l3.18,3.179a.956.956,0,0,0,1.353,0l.226-.226a.964.964,0,0,1,1.118-.172,12.213,12.213,0,0,0,1.645.683.963.963,0,0,1,.667.911v.318a.956.956,0,0,0,.956.956h4.5a.956.956,0,0,0,.956-.956v-.318a.963.963,0,0,1,.667-.911,12.206,12.206,0,0,0,1.645-.683.964.964,0,0,1,1.118.172l.226.226a.956.956,0,0,0,1.353,0l3.18-3.18a.956.956,0,0,0,0-1.353l-.226-.226a.964.964,0,0,1-.172-1.118,12.233,12.233,0,0,0,.683-1.645.963.963,0,0,1,.911-.667h.318a.956.956,0,0,0,.956-.956v-4.5a.957.957,0,0,0-.957-.956m-12.908,8.949a5.745,5.745,0,1,1,5.745-5.745,5.745,5.745,0,0,1-5.745,5.745" transform="translate(-195.546 -52.072)" fill="#007dfe"/>
        <path id="Trazado_912078" data-name="Trazado 912078" d="M99.013,57.654a.966.966,0,0,1-.966-.966V53.235a.966.966,0,1,1,1.932,0v3.453a.966.966,0,0,1-.966.966" transform="translate(-85.421 -45.538)"/>
        <path id="Trazado_912079" data-name="Trazado 912079" d="M89.058,67.61H85.6a.966.966,0,0,1,0-1.932h3.453a.966.966,0,1,1,0,1.932" transform="translate(-73.74 -57.22)"/>
        <path id="Trazado_912080" data-name="Trazado 912080" d="M401.192,381.934a.966.966,0,0,1-.966-.966v-3.453a.966.966,0,0,1,1.932,0v3.453a.966.966,0,0,1-.966.966" transform="translate(-348.687 -328.059)"/>
        <path id="Trazado_912081" data-name="Trazado 912081" d="M391.236,391.889h-3.454a.966.966,0,1,1,0-1.932h3.454a.966.966,0,1,1,0,1.932" transform="translate(-337.004 -339.74)"/>
        <path id="Trazado_912082" data-name="Trazado 912082" d="M109.468,433.211h-1.852a.966.966,0,0,1,0-1.932h1.852a4.636,4.636,0,0,0,4.656-4.535.966.966,0,0,1,1.931.053,6.591,6.591,0,0,1-6.587,6.413" transform="translate(-92.917 -370.973)"/>
        <path id="Trazado_912083" data-name="Trazado 912083" d="M34.942,269.126H16.84a1.652,1.652,0,0,1-1.65-1.65v-1.555a.49.49,0,0,0-.49-.49H8.324a2.946,2.946,0,0,1-2.922-2.59l-.886-7.31a.492.492,0,0,0-.295-.392l-3.039-1.293a1.957,1.957,0,0,1-1.045-2.509l3.314-8.322a.469.469,0,0,0,.034-.211c-.045-.53-.067-1.069-.067-1.6a18.808,18.808,0,0,1,1.5-7.386.966.966,0,0,1,1.778.754A16.888,16.888,0,0,0,5.349,241.2c0,.48.02.965.06,1.441a2.413,2.413,0,0,1-.164,1.088l-3.314,8.322a.013.013,0,0,0,.007.017l3.039,1.293A2.427,2.427,0,0,1,6.433,255.3l.886,7.31a1.013,1.013,0,0,0,1,.89H14.7a2.424,2.424,0,0,1,2.421,2.422v1.273H34.66V257.162a12.692,12.692,0,0,1,2.026-6.83,16.979,16.979,0,0,0,2.508-11.371.966.966,0,1,1,1.914-.258,18.91,18.91,0,0,1-2.794,12.667,10.766,10.766,0,0,0-1.723,5.791v10.315a1.652,1.652,0,0,1-1.65,1.65" transform="translate(0 -203.193)"/>
        <path id="Trazado_912084" data-name="Trazado 912084" d="M54.651,157.411a.966.966,0,0,1-.777-1.539,19.1,19.1,0,0,1,6.448-5.542,18.84,18.84,0,0,1,15.359-.971A.966.966,0,0,1,75,151.167a16.933,16.933,0,0,0-19.574,5.851.964.964,0,0,1-.778.393" transform="translate(-46.772 -129.086)"/>
        <path id="Trazado_912085" data-name="Trazado 912085" d="M186.242,43.121a21.54,21.54,0,1,1,20.445-14.7.966.966,0,1,1-1.831-.615,19.663,19.663,0,1,0-1.724,3.759.966.966,0,0,1,1.661.987,21.551,21.551,0,0,1-18.55,10.565" transform="translate(-143.474 0.001)"/>
        <path id="Trazado_912086" data-name="Trazado 912086" d="M234.029,81.929h-4.5a1.924,1.924,0,0,1-1.922-1.922v-.318a12.338,12.338,0,0,1-1.781-.732l-.227.218a1.922,1.922,0,0,1-2.718,0L219.7,76a1.924,1.924,0,0,1,0-2.718l.226-.226a12.377,12.377,0,0,1-.745-1.776l-.313-.006a1.924,1.924,0,0,1-1.922-1.922v-4.5a1.924,1.924,0,0,1,1.922-1.922h.318a12.362,12.362,0,0,1,.732-1.781l-.218-.227a1.924,1.924,0,0,1,0-2.718l3.179-3.179a1.922,1.922,0,0,1,2.718,0l.226.225A12.4,12.4,0,0,1,227.6,54.5l.006-.313a1.924,1.924,0,0,1,1.922-1.922h4.5a1.924,1.924,0,0,1,1.922,1.922v.318a12.36,12.36,0,0,1,1.781.732l.227-.218a1.922,1.922,0,0,1,2.718,0l3.18,3.18a1.924,1.924,0,0,1,0,2.718l-.226.226a12.322,12.322,0,0,1,.745,1.776l.313.006a1.924,1.924,0,0,1,1.922,1.922v4.5a1.924,1.924,0,0,1-1.922,1.922h-.318a12.364,12.364,0,0,1-.732,1.781l.218.227a1.924,1.924,0,0,1,0,2.718l-3.18,3.18a1.924,1.924,0,0,1-2.718,0l-.226-.226a12.36,12.36,0,0,1-1.776.745l-.006.313a1.924,1.924,0,0,1-1.922,1.922M229.541,80h4.478v-.309a1.928,1.928,0,0,1,1.329-1.828,11.273,11.273,0,0,0,1.515-.629,1.928,1.928,0,0,1,2.235.352l.219.219,3.166-3.166-.219-.219a1.928,1.928,0,0,1-.352-2.235,11.323,11.323,0,0,0,.629-1.515,1.928,1.928,0,0,1,1.828-1.329h.308V64.86h-.309a1.928,1.928,0,0,1-1.828-1.329,11.287,11.287,0,0,0-.629-1.515,1.928,1.928,0,0,1,.352-2.235l.219-.219L239.318,56.4l-.219.219a1.929,1.929,0,0,1-2.235.352,11.3,11.3,0,0,0-1.516-.629,1.928,1.928,0,0,1-1.329-1.828V54.2h-4.478v.309a1.928,1.928,0,0,1-1.329,1.828,11.263,11.263,0,0,0-1.515.629,1.929,1.929,0,0,1-2.235-.352l-.219-.219-3.166,3.166.219.219a1.928,1.928,0,0,1,.352,2.235,11.283,11.283,0,0,0-.629,1.516,1.928,1.928,0,0,1-1.828,1.329h-.309v4.478h.309a1.928,1.928,0,0,1,1.828,1.329,11.256,11.256,0,0,0,.629,1.515,1.928,1.928,0,0,1-.352,2.235l-.219.219,3.166,3.166.219-.219a1.928,1.928,0,0,1,2.235-.352,11.276,11.276,0,0,0,1.515.629,1.928,1.928,0,0,1,1.329,1.828ZM244.689,64.86h0ZM231.78,73.81a6.71,6.71,0,1,1,6.71-6.71,6.718,6.718,0,0,1-6.71,6.71m0-11.489a4.779,4.779,0,1,0,4.779,4.779,4.784,4.784,0,0,0-4.779-4.779" transform="translate(-189.012 -45.538)"/>
      </g>
    </g>
  </g>
</svg>
