<svg xmlns="http://www.w3.org/2000/svg" xmlns:xlink="http://www.w3.org/1999/xlink" width="102.38" height="102.38" viewBox="0 0 102.38 102.38">
  <defs>
    <clipPath id="clip-path">
      <rect id="Rectángulo_403187" data-name="Rectángulo 403187" width="55.958" height="55.956" fill="none"/>
    </clipPath>
  </defs>
  <g id="Grupo_1101385" data-name="Grupo 1101385" transform="translate(-433.81 -848.957)">
    <circle id="Elipse_4034" data-name="Elipse 4034" cx="49.69" cy="49.69" r="49.69" transform="translate(435.31 850.457)" fill="#efedee" stroke="#007dfe" stroke-miterlimit="10" stroke-width="3"/>
    <g id="Grupo_1101337" data-name="Grupo 1101337" transform="translate(456.278 869.752)">
      <g id="Grupo_1101336" data-name="Grupo 1101336" transform="translate(0 0)" clip-path="url(#clip-path)">
        <path id="Trazado_912087" data-name="Trazado 912087" d="M164.225,210.1l-8.123,4.513,3.61.9a40.651,40.651,0,0,1-18.953,14.441q-1.442.525-2.84.917a27.926,27.926,0,0,1-5.283,1.107,20.78,20.78,0,0,1-5.415-.219l-1.805,8.123h3.555a13.272,13.272,0,0,0,1.912-.129c20.982-3.057,30.106-18.892,32.44-22.435l2.708.9Z" transform="translate(-111.267 -186.4)" fill="#fa6d61"/>
        <path id="Trazado_912088" data-name="Trazado 912088" d="M394.831,10.1l1.673,3.565,3.742.572-2.708,2.774.639,3.919-3.347-1.85-3.347,1.85.639-3.919-2.708-2.774,3.742-.572Z" transform="translate(-345.483 -8.964)" fill="#ffbe01"/>
        <path id="Trazado_912089" data-name="Trazado 912089" d="M174.147,108.445l-1.043-1.533a.9.9,0,0,0-1.3-.2l-7.737,6.052-6.409.542A3.611,3.611,0,0,0,155,114.831l-7.1,9.691a.9.9,0,0,0,.816,1.417l2.163-.183a.9.9,0,0,0,.656-.372l5.714-7.516.532,6.3-2.158,14.8,4.422-.952,2.309-13.329,4.411,2.164a.9.9,0,0,1,.442.479l2.38,6.681,3.179-2.264-2.2-7.379a.905.905,0,0,0-.462-.534l-4.127-2.149-.709-5.4,8.68-6.613A.9.9,0,0,0,174.147,108.445Z" transform="translate(-131.07 -94.501)" fill="#007dfe"/>
        <path id="Trazado_912090" data-name="Trazado 912090" d="M23.467,340.938v-3.617H21.421a7.165,7.165,0,0,0-.764-1.848l1.446-1.446-2.558-2.558L18.1,332.915a7.2,7.2,0,0,0-1.848-.766V330.1H12.633v2.042a7.178,7.178,0,0,0-1.852.765l-1.442-1.442-2.558,2.558,1.441,1.441a7.175,7.175,0,0,0-.767,1.853H5.416v3.617H7.455a7.169,7.169,0,0,0,.767,1.852l-1.441,1.441,2.558,2.558,1.442-1.442a7.166,7.166,0,0,0,1.852.765v2.042H16.25v-2.043a7.193,7.193,0,0,0,1.849-.766l1.445,1.445,2.558-2.558-1.446-1.446a7.138,7.138,0,0,0,.764-1.848Zm-9.025,1.8a3.61,3.61,0,1,1,3.61-3.61,3.61,3.61,0,0,1-3.61,3.61" transform="translate(-4.805 -292.862)" fill="#ffbe01"/>
        <path id="Trazado_912091" data-name="Trazado 912091" d="M230.154,101.688a3.61,3.61,0,1,1-3.61,3.61,3.61,3.61,0,0,1,3.61-3.61" transform="translate(-200.986 -90.216)" fill="#007dfe"/>
        <path id="Trazado_912092" data-name="Trazado 912092" d="M232.679,107.8a3.6,3.6,0,0,1-2.443-6.254,3.605,3.605,0,1,0,3.081,6.19,3.633,3.633,0,0,1-.638.064" transform="translate(-201.624 -90.088)" fill="#7499cc"/>
        <path id="Trazado_912093" data-name="Trazado 912093" d="M.9,332.638H2.274a8.124,8.124,0,0,0,.324.783l-.97.97a.9.9,0,0,0,0,1.276l2.558,2.558a.929.929,0,0,0,1.276,0l.971-.971a7.976,7.976,0,0,0,.783.323v1.374a.9.9,0,0,0,.9.9h3.617a.9.9,0,0,0,.9-.9v-1.376a8.049,8.049,0,0,0,.78-.323l.974.974a.9.9,0,0,0,1.276,0l2.558-2.558a.9.9,0,0,0,0-1.276l-.975-.975a8.031,8.031,0,0,0,.322-.779h1.379a.9.9,0,0,0,.9-.9v-3.617a.9.9,0,0,0-.9-.9H17.573a8.031,8.031,0,0,0-.322-.779l.975-.975a.9.9,0,0,0,0-1.276l-2.558-2.558a.929.929,0,0,0-1.276,0l-.974.974a8.286,8.286,0,0,0-.78-.323V320.9a.9.9,0,0,0-.9-.9H8.118a.9.9,0,0,0-.9.9v1.374a8.192,8.192,0,0,0-.783.323l-.971-.971a.9.9,0,0,0-1.276,0l-2.558,2.558a.9.9,0,0,0,0,1.276l.97.97a7.9,7.9,0,0,0-.324.783H.9a.9.9,0,0,0-.9.9v3.617A.9.9,0,0,0,.9,332.638Zm.9-3.617H2.941a.9.9,0,0,0,.874-.677,6.269,6.269,0,0,1,.671-1.619.9.9,0,0,0-.139-1.1l-.8-.8,1.282-1.282.8.805a.9.9,0,0,0,1.1.139,6.26,6.26,0,0,1,1.618-.669.9.9,0,0,0,.677-.874v-1.139h1.812v1.14a.9.9,0,0,0,.676.874,6.293,6.293,0,0,1,1.617.671.9.9,0,0,0,1.1-.139l.807-.808,1.282,1.282-.809.809a.9.9,0,0,0-.139,1.1,6.268,6.268,0,0,1,.668,1.616.9.9,0,0,0,.874.677h1.144v1.812H16.9a.9.9,0,0,0-.874.677,6.313,6.313,0,0,1-.668,1.616.9.9,0,0,0,.139,1.1l.808.808-1.282,1.282-.807-.807a.9.9,0,0,0-1.1-.139,6.281,6.281,0,0,1-1.617.671.9.9,0,0,0-.676.874v1.141H9.019v-1.139a.9.9,0,0,0-.677-.874,6.277,6.277,0,0,1-1.618-.669.9.9,0,0,0-1.1.139l-.8.8L3.543,335.03l.8-.8a.9.9,0,0,0,.139-1.1,6.282,6.282,0,0,1-.671-1.619.9.9,0,0,0-.874-.677H1.805Z" transform="translate(0 -283.898)"/>
        <path id="Trazado_912094" data-name="Trazado 912094" d="M52.513,377.017A4.513,4.513,0,1,0,48,372.5a4.518,4.518,0,0,0,4.513,4.513m0-7.22a2.708,2.708,0,1,1-2.708,2.708,2.711,2.711,0,0,1,2.708-2.708" transform="translate(-42.585 -326.476)"/>
        <path id="Trazado_912095" data-name="Trazado 912095" d="M396.591,4.752a.9.9,0,0,0-.719-.606l-3.265-.5L391.137.519a.9.9,0,0,0-1.634,0l-1.47,3.128-3.265.5a.9.9,0,0,0-.51,1.523l2.389,2.449-.565,3.469a.9.9,0,0,0,1.328.936l2.91-1.608,2.91,1.608a.9.9,0,0,0,1.328-.936l-.565-3.469,2.389-2.449A.9.9,0,0,0,396.591,4.752Zm-4.209,2.431a.9.9,0,0,0-.245.775l.339,2.084-1.72-.95a.9.9,0,0,0-.874,0l-1.72.95.339-2.084a.9.9,0,0,0-.245-.775l-1.481-1.518,2.005-.306a.9.9,0,0,0,.681-.509l.857-1.824.857,1.824a.905.905,0,0,0,.681.509l2.005.306Z" transform="translate(-340.68)"/>
        <path id="Trazado_912096" data-name="Trazado 912096" d="M168.109,91.243a1.817,1.817,0,0,0-1.39.362l-7.081,5.54a4.518,4.518,0,1,0-7.292.988,4.474,4.474,0,0,0-2.6,1.771l-7.111,9.706a1.806,1.806,0,0,0,1.632,2.834l2.163-.183a1.788,1.788,0,0,0,1.3-.726l4.293-5.648.325,3.854-2.133,14.628c-.805.165-1.614.313-2.427.427l.25,1.787A40.564,40.564,0,0,0,168.9,117.15l.2-.06-.028-.094a42.213,42.213,0,0,0,6.646-7.246.9.9,0,0,0-.515-1.4L173.815,108l5.068-2.815,1.2,5.386-1.195-.4a.9.9,0,0,0-1.039.359l-.149.226c-11.347,17.275-23.959,21.463-32.541,21.934l.1,1.8c8.938-.491,22.017-4.784,33.716-22.389l2.05.683a.9.9,0,0,0,1.166-1.051l-1.805-8.123a.9.9,0,0,0-1.32-.593l-8.123,4.513a.9.9,0,0,0,.22,1.664l2.3.574a40.753,40.753,0,0,1-4.949,5.318l-1.609-5.4a1.8,1.8,0,0,0-.9-1.058l-3.71-1.932-.58-4.412,8.264-6.3a1.8,1.8,0,0,0,.4-2.452l-1.043-1.533A1.808,1.808,0,0,0,168.109,91.243Zm-12.7,1.134c.078-.006.155-.01.233-.01a2.711,2.711,0,1,1-.233.01m1.227,30.085,1.878-10.839,3.318,1.61,1.961,5.506a38.532,38.532,0,0,1-7.157,3.723m3.56-21.29a.9.9,0,0,0-.348.836l.709,5.4a.9.9,0,0,0,.478.682l4.141,2.141,1.834,6.153c-.533.435-1.1.866-1.681,1.294l-1.807-5.072a1.8,1.8,0,0,0-.885-.959l-4.411-2.164a.9.9,0,0,0-1.287.656l-2.258,13.035c-.85.282-1.709.542-2.579.766L154.15,109.9a.93.93,0,0,0,.006-.207l-.532-6.3a.9.9,0,0,0-1.617-.47l-5.728,7.535-2.174.2,7.111-9.706a2.706,2.706,0,0,1,1.991-1.146l2.808-.238h0l3.6-.3a.905.905,0,0,0,.48-.189l7.737-6.052,1.044,1.533Z" transform="translate(-126.252 -80.345)"/>
      </g>
    </g>
  </g>
</svg>
