<svg xmlns="http://www.w3.org/2000/svg" xmlns:xlink="http://www.w3.org/1999/xlink" width="102.38" height="102.38" viewBox="0 0 102.38 102.38">
  <defs>
    <clipPath id="clip-path">
      <rect id="Rectángulo_403191" data-name="Rectángulo 403191" width="54.471" height="54.471" fill="none"/>
    </clipPath>
    <clipPath id="clip-path-3">
      <rect id="Rectángulo_403188" data-name="Rectángulo 403188" width="2.708" height="9.047" fill="none"/>
    </clipPath>
    <clipPath id="clip-path-4">
      <rect id="Rectángulo_403189" data-name="Rectángulo 403189" width="6.57" height="11.694" fill="none"/>
    </clipPath>
  </defs>
  <g id="Grupo_1101386" data-name="Grupo 1101386" transform="translate(-748.811 -848.957)">
    <circle id="Elipse_5204" data-name="Elipse 5204" cx="49.69" cy="49.69" r="49.69" transform="translate(750.311 850.457)" fill="#efedee" stroke="#007dfe" stroke-miterlimit="10" stroke-width="3"/>
    <g id="Grupo_1101347" data-name="Grupo 1101347" transform="translate(772.765 872.911)">
      <g id="Grupo_1101346" data-name="Grupo 1101346" transform="translate(0 0)" clip-path="url(#clip-path)">
        <g id="Grupo_1101345" data-name="Grupo 1101345">
          <g id="Grupo_1101344" data-name="Grupo 1101344" clip-path="url(#clip-path)">
            <path id="Trazado_912097" data-name="Trazado 912097" d="M301.415,88.373V75.737a2.7,2.7,0,0,1,2.708-2.707h4.513v3.61l7.22-6.318L308.636,64v3.61h-6.318A6.3,6.3,0,0,0,296,73.932v10.83Z" transform="translate(-262.448 -56.63)" fill="#ffbe01"/>
            <path id="Trazado_912098" data-name="Trazado 912098" d="M22.441,88.373V75.737a2.7,2.7,0,0,0-2.708-2.707H15.22v3.61L8,70.322,15.22,64v3.61h6.318a6.3,6.3,0,0,1,6.318,6.318v10.83Z" transform="translate(-6.939 -56.63)" fill="#ffbe01"/>
            <path id="Trazado_912099" data-name="Trazado 912099" d="M187.683,20.639l-.073-5.415H184L190.318,8l6.318,7.222h-3.61l.012,5.415Z" transform="translate(-163.084 -6.946)" fill="#007dfe"/>
            <path id="Trazado_912100" data-name="Trazado 912100" d="M190.318,8,184,15.222h2.256l5.19-5.932Z" transform="translate(-163.083 -6.944)" fill="#f5f9fb"/>
            <path id="Trazado_912101" data-name="Trazado 912101" d="M12.771,304.344a7.255,7.255,0,0,0-4.763,6.845V312.4a3.616,3.616,0,0,0,3.61,3.637h7.22a3.614,3.614,0,0,0,3.608-3.637v-1.213a7.254,7.254,0,0,0-4.761-6.845Z" transform="translate(-6.946 -269.855)" fill="#fa6d61"/>
            <path id="Trazado_912102" data-name="Trazado 912102" d="M348.763,304.344A7.255,7.255,0,0,0,344,311.189V312.4a3.616,3.616,0,0,0,3.61,3.637h7.22a3.614,3.614,0,0,0,3.608-3.637v-1.213a7.254,7.254,0,0,0-4.761-6.845Z" transform="translate(-305.032 -269.855)" fill="#fa6d61"/>
            <path id="Trazado_912103" data-name="Trazado 912103" d="M148.759,286.2,135.119,282.7a2.792,2.792,0,0,0-1.439,5.395l16.083,4.331c2.415.47,3.507-.807,3.507-2.61v-8.125a12.608,12.608,0,0,0-8.633-11.993h-8.005A12.608,12.608,0,0,0,128,281.688v8.125c0,1.8,1.093,3.08,3.507,2.61l16.083-4.331a2.792,2.792,0,0,0-1.439-5.395L132.513,286.2Z" transform="translate(-113.401 -239.115)" fill="#007dfe"/>
            <path id="Trazado_912104" data-name="Trazado 912104" d="M177.109,368.906v4.411h1.68v-2.665a1.885,1.885,0,0,0-1.68-1.745" transform="translate(-156.97 -327.133)" fill="#3588cb"/>
            <ellipse id="Elipse_11556" data-name="Elipse 11556" cx="6.318" cy="6.318" rx="6.318" ry="6.318" transform="translate(20.917 19.108)" fill="#ffd1b5"/>
            <path id="Trazado_912105" data-name="Trazado 912105" d="M383.22,251.612a3.61,3.61,0,1,1-3.61-3.61,3.61,3.61,0,0,1,3.61,3.61" transform="translate(-333.422 -219.87)" fill="#ffd1b5"/>
            <path id="Trazado_912106" data-name="Trazado 912106" d="M47.212,251.612A3.61,3.61,0,1,1,43.6,248a3.61,3.61,0,0,1,3.61,3.61" transform="translate(-35.322 -219.87)" fill="#ffd1b5"/>
            <path id="Trazado_912107" data-name="Trazado 912107" d="M181.639,368.244l-13.157,3.381L168,373.554l13.639-3.5a2.814,2.814,0,0,1,1.343-.007v-1.81a2.808,2.808,0,0,0-.783-.074,2.9,2.9,0,0,0-.561.086" transform="translate(-148.888 -326.466)" fill="#3588cb"/>
            <path id="Trazado_912108" data-name="Trazado 912108" d="M243.484,269.688a12.608,12.608,0,0,1,8.632,11.994v8.126a2.6,2.6,0,0,1-1.067,2.293l1.169.316c2.415.47,3.508-.806,3.508-2.609v-8.126a12.608,12.608,0,0,0-8.632-11.994Z" transform="translate(-215.856 -239.109)" fill="#3588cb"/>
            <path id="Trazado_912109" data-name="Trazado 912109" d="M225.791,168.016a6.319,6.319,0,0,0-1.8.266,6.314,6.314,0,0,1,0,12.1,6.317,6.317,0,1,0,1.807-12.37" transform="translate(-198.556 -148.908)" fill="#ffb98d"/>
            <path id="Trazado_912110" data-name="Trazado 912110" d="M190.318,168.016a6.318,6.318,0,1,0,.908,12.563,6.309,6.309,0,0,1-.011-12.491,6.306,6.306,0,0,0-.9-.072" transform="translate(-163.083 -148.908)" fill="#f5f9fb"/>
            <path id="Trazado_912111" data-name="Trazado 912111" d="M148.521,385.344c.013.042.034.079.046.122a2.8,2.8,0,0,1-1.978,3.423l-16.082,4.331a4.153,4.153,0,0,1-1.6.033c.307,1.332,1.39,2.164,3.406,1.772l16.082-4.331a2.8,2.8,0,0,0,1.978-3.423A2.757,2.757,0,0,0,148.521,385.344Z" transform="translate(-114.205 -341.717)" fill="#3588cb"/>
            <path id="Trazado_912112" data-name="Trazado 912112" d="M136.632,269.688A12.608,12.608,0,0,0,128,281.682v8.126c0,1.8,1.093,3.079,3.508,2.609l.051-.014a2.424,2.424,0,0,1-1.754-2.6v-8.126a12.608,12.608,0,0,1,8.632-11.994Z" transform="translate(-113.401 -239.109)" fill="#f5f9fb"/>
            <path id="Trazado_912113" data-name="Trazado 912113" d="M411.889,94.156A5.177,5.177,0,0,1,408,99.4v3.993l7.22-6.32Z" transform="translate(-361.812 -83.38)" fill="#ecb200"/>
            <path id="Trazado_912114" data-name="Trazado 912114" d="M296,184.844v7.125l.873.582a6.291,6.291,0,0,0-.873-7.707Z" transform="translate(-262.448 -163.837)" fill="#ecb200"/>
            <path id="Trazado_912115" data-name="Trazado 912115" d="M104,96a6.3,6.3,0,0,1,6.318,6.318v9c0,1.833-.993,2.495-2.708,3.638v1.805l5.415-3.61V102.318A6.3,6.3,0,0,0,106.708,96Z" transform="translate(-92.109 -85.016)" fill="#ecb200"/>
            <path id="Trazado_912116" data-name="Trazado 912116" d="M322.708,144A2.7,2.7,0,0,0,320,146.708v10.831l2.708,1.805V146.708A2.7,2.7,0,0,1,325.415,144Z" transform="translate(-283.74 -127.601)" fill="#ecb200"/>
            <g id="Grupo_1101340" data-name="Grupo 1101340" transform="translate(38.968 37.008)" style="mix-blend-mode: multiply;isolation: isolate">
              <g id="Grupo_1101339" data-name="Grupo 1101339">
                <g id="Grupo_1101338" data-name="Grupo 1101338" clip-path="url(#clip-path-3)">
                  <path id="Trazado_912117" data-name="Trazado 912117" d="M345.417,326.672A7.277,7.277,0,0,0,344,331v1.213a3.613,3.613,0,0,0,2.708,3.508v-3.482a12.617,12.617,0,0,0-1.29-5.565" transform="translate(-344 -326.672)" fill="#fa6d61"/>
                </g>
              </g>
            </g>
            <path id="Trazado_912118" data-name="Trazado 912118" d="M397.34,248a3.612,3.612,0,0,0-1.356.266,3.606,3.606,0,0,1,0,6.688A3.609,3.609,0,1,0,397.34,248Z" transform="translate(-351.152 -219.868)" fill="#ffb98d"/>
            <path id="Trazado_912119" data-name="Trazado 912119" d="M379.61,248a3.61,3.61,0,1,0,.908,7.1,3.605,3.605,0,0,1-.009-6.984,3.61,3.61,0,0,0-.9-.118" transform="translate(-333.422 -219.868)" fill="#f5f9fb"/>
            <path id="Trazado_912120" data-name="Trazado 912120" d="M61.34,248a3.612,3.612,0,0,0-1.356.266,3.606,3.606,0,0,1,0,6.688A3.609,3.609,0,1,0,61.34,248Z" transform="translate(-53.058 -219.868)" fill="#ffb98d"/>
            <path id="Trazado_912121" data-name="Trazado 912121" d="M43.594,248a3.61,3.61,0,1,0,.908,7.1,3.605,3.605,0,0,1-.009-6.984A3.611,3.611,0,0,0,43.594,248Z" transform="translate(-35.315 -219.868)" fill="#f5f9fb"/>
            <g id="Grupo_1101343" data-name="Grupo 1101343" transform="translate(1.061 34.489)" style="mix-blend-mode: multiply;isolation: isolate">
              <g id="Grupo_1101342" data-name="Grupo 1101342">
                <g id="Grupo_1101341" data-name="Grupo 1101341" clip-path="url(#clip-path-4)">
                  <path id="Trazado_912122" data-name="Trazado 912122" d="M12.765,304.344A7.257,7.257,0,0,0,8,311.189V312.4a3.617,3.617,0,0,0,3.612,3.637h1.805A3.617,3.617,0,0,1,9.805,312.4v-1.213a7.257,7.257,0,0,1,4.765-6.845Z" transform="translate(-8 -304.344)" fill="#fa6d61"/>
                </g>
              </g>
            </g>
            <path id="Trazado_912123" data-name="Trazado 912123" d="M27.077,0A.9.9,0,0,0,26.4.307L20.082,7.529a.9.9,0,0,0,.679,1.5h2.718l.06,4.524a.9.9,0,1,0,1.807-.026l-.074-5.41a.9.9,0,0,0-.9-.894h-1.62l4.324-4.943L31.4,7.222H29.783a.9.9,0,0,0-.9.906l.014,5.41a.9.9,0,1,0,1.805,0l-.014-4.509h2.7a.9.9,0,0,0,.681-1.5L27.757.307A.9.9,0,0,0,27.077,0M8.12,6.318a.9.9,0,0,0-.589.226L.309,12.86a.9.9,0,0,0,0,1.359l7.222,6.316a.9.9,0,0,0,1.5-.681v-2.7h3.6a1.78,1.78,0,0,1,1.8,1.805V31.589a.9.9,0,1,0,1.807,0V18.956a3.622,3.622,0,0,0-3.61-3.61H8.123a.9.9,0,0,0-.9.9V17.87L2.282,13.539l4.943-4.33v1.625a.9.9,0,0,0,.9.9h6.314a5.387,5.387,0,0,1,5.417,5.417v8.122a7.2,7.2,0,0,0,1.782,4.742,13.546,13.546,0,0,0-6.787,6.577,8.124,8.124,0,0,0-2.9-2.627,4.509,4.509,0,1,0-7.661,0A8.182,8.182,0,0,0,0,41.184v1.211a4.533,4.533,0,0,0,4.511,4.538h7.222a4.482,4.482,0,0,0,1.8-.375v3.988A3.644,3.644,0,0,0,14.706,53.4a4,4,0,0,0,3.448.64l8.918-2.4,8.93,2.4a4.016,4.016,0,0,0,3.441-.64,3.611,3.611,0,0,0,1.172-2.831V46.557a4.5,4.5,0,0,0,1.805.375h7.222a4.532,4.532,0,0,0,4.509-4.538V41.184a8.181,8.181,0,0,0-4.291-7.219,4.516,4.516,0,1,0-7.665,0A8.125,8.125,0,0,0,39.3,36.591a13.547,13.547,0,0,0-6.787-6.577A7.192,7.192,0,0,0,34.3,25.272V17.151a5.381,5.381,0,0,1,5.41-5.417H46.03a.9.9,0,0,0,.9-.9V9.209l4.945,4.33L46.929,17.87V16.245a.9.9,0,0,0-.9-.9H41.512a3.615,3.615,0,0,0-3.6,3.61V30.689a.9.9,0,1,0,1.8,0V18.956a1.78,1.78,0,0,1,1.8-1.805h3.612v2.7a.9.9,0,0,0,1.5.681l7.222-6.316a.9.9,0,0,0,0-1.359L46.623,6.544a.9.9,0,0,0-1.5.679V9.928H39.709a7.221,7.221,0,0,0-7.215,7.222s0,1.76,0,3.353a7.2,7.2,0,0,0-10.834,0V17.151a7.226,7.226,0,0,0-7.22-7.222H9.031V7.222a.9.9,0,0,0-.911-.9ZM27.079,19.855a5.417,5.417,0,1,1-5.417,5.417,5.429,5.429,0,0,1,5.417-5.417M8.09,28.884a2.708,2.708,0,1,1-2.669,2.7,2.71,2.71,0,0,1,2.669-2.7m37.909,0a2.708,2.708,0,1,1-2.678,2.7A2.711,2.711,0,0,1,46,28.884M23.179,31.345a7.194,7.194,0,0,0,7.8,0A11.7,11.7,0,0,1,38.81,42.423v8.141a1.805,1.805,0,0,1-.527,1.453,2.169,2.169,0,0,1-1.9.254L30.551,50.7l3.716-1a3.715,3.715,0,0,0,2.611-4.531A3.648,3.648,0,0,0,35.2,42.961v-.538a.9.9,0,1,0-1.805.009,4.111,4.111,0,0,0-1.026.123L20.762,45.538V42.423a.9.9,0,0,0-1.805,0V46l-.226.058a.9.9,0,0,0,.446,1.752l13.644-3.5a1.887,1.887,0,1,1,.98,3.645L17.775,52.27a2.172,2.172,0,0,1-1.9-.254,1.841,1.841,0,0,1-.525-1.472V42.423A11.7,11.7,0,0,1,23.179,31.345ZM10.644,35.331a6.344,6.344,0,0,1,3.369,3.529,13.617,13.617,0,0,0-.472,3.563v2.011a2.662,2.662,0,0,1-1.805.693H4.515a2.691,2.691,0,0,1-2.7-2.732V41.184a6.346,6.346,0,0,1,3.8-5.851,4.476,4.476,0,0,0,5.035,0Zm32.869,0a4.478,4.478,0,0,0,5.033,0,6.351,6.351,0,0,1,3.8,5.849v1.211a2.691,2.691,0,0,1-2.7,2.732H42.422a2.664,2.664,0,0,1-1.807-.693V42.421a13.593,13.593,0,0,0-.471-3.561A6.347,6.347,0,0,1,43.513,35.331ZM30.687,37a.9.9,0,1,0,0,1.805h2.708a.9.9,0,1,0,0-1.805Z" transform="translate(0.158 0.153)"/>
          </g>
        </g>
      </g>
    </g>
  </g>
</svg>
