<svg xmlns="http://www.w3.org/2000/svg" xmlns:xlink="http://www.w3.org/1999/xlink" width="102.38" height="102.38" viewBox="0 0 102.38 102.38">
  <defs>
    <clipPath id="clip-path">
      <rect id="Rectángulo_403192" data-name="Rectángulo 403192" width="54.471" height="54.471" fill="none"/>
    </clipPath>
  </defs>
  <g id="Grupo_1101387" data-name="Grupo 1101387" transform="translate(-1063.81 -848.957)">
    <circle id="Elipse_5205" data-name="Elipse 5205" cx="49.69" cy="49.69" r="49.69" transform="translate(1065.31 850.457)" fill="#efedee" stroke="#007dfe" stroke-miterlimit="10" stroke-width="3"/>
    <g id="Grupo_1101349" data-name="Grupo 1101349" transform="translate(1088.264 870.501)">
      <g id="Grupo_1101348" data-name="Grupo 1101348" transform="translate(0 0)" clip-path="url(#clip-path)">
        <path id="Trazado_912124" data-name="Trazado 912124" d="M26.708,336A2.708,2.708,0,1,1,24,338.708,2.708,2.708,0,0,1,26.708,336" transform="translate(-21.134 -297.94)" fill="#ffcf94"/>
        <path id="Trazado_912125" data-name="Trazado 912125" d="M17.025,401.025v-7.22A1.805,1.805,0,0,0,15.22,392H9.805A1.805,1.805,0,0,0,8,393.805v7.22Z" transform="translate(-6.939 -347.622)" fill="#007dfe"/>
        <path id="Trazado_912126" data-name="Trazado 912126" d="M218.708,336A2.708,2.708,0,1,1,216,338.708,2.708,2.708,0,0,1,218.708,336" transform="translate(-191.473 -297.94)" fill="#ffdbac"/>
        <path id="Trazado_912127" data-name="Trazado 912127" d="M209.025,401.025v-7.22A1.805,1.805,0,0,0,207.22,392h-5.415A1.805,1.805,0,0,0,200,393.805v7.22Z" transform="translate(-177.278 -347.622)" fill="#007dfe"/>
        <path id="Trazado_912128" data-name="Trazado 912128" d="M410.708,336A2.708,2.708,0,1,1,408,338.708,2.708,2.708,0,0,1,410.708,336" transform="translate(-361.812 -297.94)" fill="#ffcf94"/>
        <path id="Trazado_912129" data-name="Trazado 912129" d="M401.025,401.025v-7.22A1.805,1.805,0,0,0,399.22,392h-5.415A1.805,1.805,0,0,0,392,393.805v7.22Z" transform="translate(-347.617 -347.622)" fill="#007dfe"/>
        <path id="Trazado_912130" data-name="Trazado 912130" d="M112,227.61h5.415L114.708,224Z" transform="translate(-99.206 -198.576)" fill="#8197bf"/>
        <path id="Trazado_912131" data-name="Trazado 912131" d="M325.415,227.61H320l2.708-3.61Z" transform="translate(-283.74 -198.576)" fill="#8197bf"/>
        <path id="Trazado_912132" data-name="Trazado 912132" d="M216,203.61h5.415L218.708,200Z" transform="translate(-191.473 -177.283)" fill="#8197bf"/>
        <path id="Trazado_912133" data-name="Trazado 912133" d="M169.025,8A9.025,9.025,0,1,1,160,17.025,9.025,9.025,0,0,1,169.025,8" transform="translate(-141.791 -6.944)" fill="#d8e0e6"/>
        <path id="Trazado_912134" data-name="Trazado 912134" d="M195.222,36l1.76,3.565,3.934.572-2.848,2.774.672,3.919-3.519-1.85-3.519,1.85.672-3.919-2.848-2.774,3.934-.572Z" transform="translate(-167.988 -31.785)" fill="#ffbe01"/>
        <path id="Trazado_912135" data-name="Trazado 912135" d="M8.123,334.145H7.778a3.61,3.61,0,1,0-4.726,0H2.708A2.708,2.708,0,0,0,0,336.853v7.22a.9.9,0,0,0,.9.9H9.928a.9.9,0,0,0,.9-.9v-7.22a2.708,2.708,0,0,0-2.708-2.708m-2.708-4.513a1.805,1.805,0,1,1-1.805,1.805,1.805,1.805,0,0,1,1.805-1.805m3.61,13.538H1.805v-6.318a.9.9,0,0,1,.9-.9H8.123a.9.9,0,0,1,.9.9Z" transform="translate(0.158 -290.67)"/>
        <path id="Trazado_912136" data-name="Trazado 912136" d="M200.123,334.145h-.345a3.61,3.61,0,1,0-4.726,0h-.345A2.708,2.708,0,0,0,192,336.853v7.22a.9.9,0,0,0,.9.9h9.025a.9.9,0,0,0,.9-.9v-7.22a2.708,2.708,0,0,0-2.708-2.708m-2.708-4.513a1.805,1.805,0,1,1-1.805,1.805,1.805,1.805,0,0,1,1.805-1.805m3.61,13.538h-7.22v-6.318a.9.9,0,0,1,.9-.9h5.415a.9.9,0,0,1,.9.9Z" transform="translate(-170.181 -290.67)"/>
        <path id="Trazado_912137" data-name="Trazado 912137" d="M392.123,334.145h-.345a3.61,3.61,0,1,0-4.726,0h-.345A2.708,2.708,0,0,0,384,336.853v7.22a.9.9,0,0,0,.9.9h9.025a.9.9,0,0,0,.9-.9v-7.22a2.708,2.708,0,0,0-2.708-2.708m-2.708-4.513a1.805,1.805,0,1,1-1.805,1.805,1.805,1.805,0,0,1,1.805-1.805m3.61,13.538h-7.22v-6.318a.9.9,0,0,1,.9-.9h5.415a.9.9,0,0,1,.9.9Z" transform="translate(-340.52 -290.67)"/>
        <path id="Trazado_912138" data-name="Trazado 912138" d="M212.512,205.7v-8.123h1.805a.9.9,0,0,0,.722-1.444l-2.708-3.61a.935.935,0,0,0-1.316-.128.926.926,0,0,0-.128.128l-2.708,3.61a.9.9,0,0,0,.722,1.444h1.805V205.7Zm-.9-11.131.9,1.2h-1.805Z" transform="translate(-184.375 -170.343)"/>
        <path id="Trazado_912139" data-name="Trazado 912139" d="M51.553,216.519a.935.935,0,0,0-1.444,0l-2.708,3.61a.9.9,0,0,0,.722,1.444h1.805v1.805H40.9a.9.9,0,0,0-.9.9v2.708h1.805v-1.805h9.025a.9.9,0,0,0,.9-.9v-2.708h1.805a.9.9,0,0,0,.722-1.444Zm-1.625,3.249.9-1.2.9,1.2Z" transform="translate(-35.329 -191.636)"/>
        <path id="Trazado_912140" data-name="Trazado 912140" d="M324.635,226.988h1.805v-2.708a.9.9,0,0,0-.9-.9h-9.025v-1.805h1.805a.9.9,0,0,0,.722-1.444l-2.708-3.61a.935.935,0,0,0-1.316-.128.926.926,0,0,0-.128.128l-2.708,3.61a.9.9,0,0,0,.722,1.444h1.805v2.708a.9.9,0,0,0,.9.9h9.025Zm-9.928-7.22.9-1.2.9,1.2Z" transform="translate(-276.642 -191.636)"/>
        <path id="Trazado_912141" data-name="Trazado 912141" d="M161.928,0a9.928,9.928,0,1,0,9.928,9.928A9.928,9.928,0,0,0,161.928,0m0,18.051a8.123,8.123,0,1,1,8.123-8.123,8.123,8.123,0,0,1-8.123,8.123" transform="translate(-134.693 0.153)"/>
        <path id="Trazado_912142" data-name="Trazado 912142" d="M194.682,33.079a.9.9,0,0,0-.729-.614l-3.465-.5-1.546-3.139a.938.938,0,0,0-1.617,0l-1.553,3.139-3.465.5A.9.9,0,0,0,181.8,34l2.507,2.443L183.72,39.9a.9.9,0,0,0,1.309.951l3.1-1.629,3.1,1.629a.9.9,0,0,0,1.31-.951l-.592-3.451L194.453,34A.9.9,0,0,0,194.682,33.079Zm-4.332,2.407a.9.9,0,0,0-.259.8l.361,2.116-1.9-1a.9.9,0,0,0-.839,0l-1.9,1,.361-2.116a.9.9,0,0,0-.259-.8l-1.534-1.5,2.124-.31a.9.9,0,0,0,.68-.493l.948-1.925.95,1.925a.9.9,0,0,0,.68.493l2.124.31Z" transform="translate(-160.894 -25.006)"/>
      </g>
    </g>
  </g>
</svg>
